SplineFontDB: 3.0
FontName: AletheiaSerif-Medium
FullName: Aletheia Serif
FamilyName: Aletheia Serif
Weight: Medium
Copyright: Copyright (c) 2019, Collectif Design Ltd. (collectif.co.nz), Wayne Shih (wayne@collectif.co.nz), \nwith Reserved Font Name 'Aletheia Serif'. \n-- \n'Photo Sans' is a Font Software modified from 'Butler' under the CC BY-SA 4.0 License. \nButler v1.000 (c) 2015, Fabian De Smet (contact@fabiandesmet.com). \n--\nThis Font Software is licensed under the Creative Commons Attribution ShareAlike 4.0 International License.
Version: 1.000
ItalicAngle: 0
UnderlinePosition: -100
UnderlineWidth: 50
Ascent: 735
Descent: 265
InvalidEm: 0
sfntRevision: 0x00010000
LayerCount: 2
Layer: 0 0 "Back" 1
Layer: 1 0 "Fore" 0
XUID: [1021 95 -562094785 575407]
StyleMap: 0x0000
FSType: 8
OS2Version: 3
OS2_WeightWidthSlopeOnly: 0
OS2_UseTypoMetrics: 0
CreationTime: 1430141782
ModificationTime: 1551512016
PfmFamily: 17
TTFWeight: 500
TTFWidth: 5
LineGap: 200
VLineGap: 0
Panose: 2 7 8 3 8 7 6 2 3 3
OS2TypoAscent: 735
OS2TypoAOffset: 0
OS2TypoDescent: -265
OS2TypoDOffset: 0
OS2TypoLinegap: 200
OS2WinAscent: 948
OS2WinAOffset: 0
OS2WinDescent: 265
OS2WinDOffset: 0
HheadAscent: 735
HheadAOffset: 0
HheadDescent: -265
HheadDOffset: 0
OS2SubXSize: 650
OS2SubYSize: 600
OS2SubXOff: 0
OS2SubYOff: 75
OS2SupXSize: 650
OS2SupYSize: 600
OS2SupXOff: 0
OS2SupYOff: 350
OS2StrikeYSize: 50
OS2StrikeYPos: 252
OS2CapHeight: 704
OS2XHeight: 420
OS2Vendor: 'PfEd'
OS2CodePages: 20000003.00000000
OS2UnicodeRanges: 00000003.00000000.00000000.00000000
Lookup: 1 0 0 "'aalt' Access All Alternates in Latin lookup 0" { "'aalt' Access All Alternates in Latin lookup 0 subtable"  } ['aalt' ('DFLT' <'dflt' > 'latn' <'dflt' > ) ]
Lookup: 3 0 0 "'aalt' Access All Alternates in Latin lookup 1" { "'aalt' Access All Alternates in Latin lookup 1 subtable"  } ['aalt' ('DFLT' <'dflt' > 'latn' <'dflt' > ) ]

StartChar: .notdef
Encoding: 65536 -1 0
Width: 507
Flags: MW
HStem: 0 48<79 426 79 507> 657 47<79 79 79 426>
VStem: -1 47<84 622 84 704> 459 48<84 622 622 622>
LayerCount: 2
Fore
SplineSet
281 352 m 1
 459 84 l 1
 459 622 l 1
 281 352 l 1
79 657 m 1
 253 396 l 1
 426 657 l 1
 79 657 l 1
-1 704 m 1
 507 704 l 1
 507 0 l 1
 -1 0 l 1
 -1 704 l 1
224 352 m 1
 46 622 l 1
 46 84 l 1
 224 352 l 1
253 310 m 1
 79 48 l 1
 426 48 l 1
 253 310 l 1
EndSplineSet
Validated: 1
EndChar

StartChar: exclam
Encoding: 33 33 2
Width: 318
Flags: MW
HStem: -9 135<138.5 175.5> 186 20G<129 186 129 129> 725 20G<102 215 215 215>
VStem: 90 134<40 77.5>
LayerCount: 2
Fore
SplineSet
186 206 m 1
 129 206 l 1
 102 745 l 1
 215 745 l 1
 186 206 l 1
224 59 m 0
 224 96 194 126 157 126 c 0
 120 126 90 96 90 59 c 0
 90 21 120 -9 157 -9 c 0
 194 -9 224 21 224 59 c 0
EndSplineSet
Validated: 9
EndChar

StartChar: quotedbl
Encoding: 34 34 3
Width: 519
Flags: MW
HStem: 378 21G<131 131 131 186 328 328 328 382> 684 20G<101 214 214 214 297 412 412 412>
LayerCount: 2
Fore
SplineSet
328 378 m 1
 297 704 l 1
 412 704 l 1
 382 378 l 1
 328 378 l 1
131 378 m 1
 101 704 l 1
 214 704 l 1
 186 378 l 1
 131 378 l 1
EndSplineSet
Validated: 1
EndChar

StartChar: numbersign
Encoding: 35 35 4
Width: 709
Flags: MW
HStem: 0 21G<114 191 114 114 339 416 339 339> 233 74<44 168 44 185 262 393 44 245 487 599> 471 73<108 223 108 239 317 448 108 300 541 662> 726 20G<286 363 363 363 511 588 588 588>
LayerCount: 2
Fore
SplineSet
448 471 m 1
 300 471 l 1
 262 307 l 1
 410 307 l 1
 448 471 l 1
662 471 m 1
 525 471 l 1
 487 307 l 1
 599 307 l 1
 599 233 l 1
 470 233 l 1
 416 0 l 1
 339 0 l 1
 393 233 l 1
 245 233 l 1
 191 0 l 1
 114 0 l 1
 168 233 l 1
 44 233 l 1
 44 307 l 1
 185 307 l 1
 223 471 l 1
 108 471 l 1
 108 544 l 1
 239 544 l 1
 286 746 l 1
 363 746 l 1
 317 544 l 1
 464 544 l 1
 511 746 l 1
 588 746 l 1
 541 544 l 1
 662 544 l 1
 662 471 l 1
EndSplineSet
Validated: 1
EndChar

StartChar: dollar
Encoding: 36 36 5
Width: 568
Flags: MW
HStem: -131 21G<265 288 265 265> 222 20G<46 54 54 54> 815 20G<265 288 288 288>
VStem: 46 242<50 242 242 242> 265 23<-131 -9 -131 -9 6 281 452 697 713 835> 265 243<6 665 295 665 497 665 497 698 497 698 497 835 497 835>
LayerCount: 2
Fore
SplineSet
288 6 m 1xf0
 451 9 443 174 338 249 c 1
 288 281 l 1
 288 6 l 1xf0
265 452 m 1xe8
 265 698 l 1
 158 697 98 562 237 471 c 2
 265 452 l 1xe8
397 365 m 2
 530 278 569 168 505 73 c 1
 474 36 428 -8 288 -9 c 1
 288 -131 l 1
 265 -131 l 1
 265 -9 l 1xe8
 113 -2 46 50 46 50 c 1
 46 242 l 1xf0
 54 242 l 1
 69 156 120 27 265 6 c 1
 265 295 l 1
 179 351 l 2
 60 427 -12 522 68 636 c 1
 68 636 117 712 265 713 c 1
 265 835 l 1xe8
 288 835 l 1
 288 713 l 1xf0
 432 709 508 665 508 665 c 1
 508 497 l 1xe4
 500 497 l 1
 486 568 433 688 288 697 c 1
 288 437 l 1
 397 365 l 2
EndSplineSet
Validated: 33
EndChar

StartChar: percent
Encoding: 37 37 6
Width: 992
Flags: MW
HStem: 0 21G<244 303 244 244> 301 20G<223 332.5> 316 20G<256 300.5> 349 20G<702.5 746.5> 364 20G<670 779.5> 684 20G<700 759 759 759>
VStem: 141 76<450.5 542.5> 338 76<450.5 542.5 450.5 566> 589 75<155 247> 785 76<155 247 155 270>
LayerCount: 2
Fore
SplineSet
725 40 m 0xb7c0
 770 40 785 63 785 201 c 0
 785 339 768 369 725 369 c 0
 680 369 664 339 664 201 c 0
 664 63 681 40 725 40 c 0xb7c0
725 384 m 0xafc0
 834 384 861 293 861 201 c 0
 861 109 834 25 725 25 c 0
 615 25 589 109 589 201 c 0
 589 293 615 384 725 384 c 0xafc0
217 497 m 0
 217 359 234 336 278 336 c 0
 323 336 338 359 338 497 c 0
 338 635 321 664 278 664 c 0
 233 664 217 635 217 497 c 0
414 497 m 0
 414 404 387 321 278 321 c 0xd7c0
 168 321 141 404 141 497 c 0
 141 588 168 679 278 679 c 0
 387 679 414 588 414 497 c 0
759 704 m 1
 303 0 l 1
 244 0 l 1
 700 704 l 1
 759 704 l 1
EndSplineSet
Validated: 1
Ligature2: "'frac' Diagonal Fractions in Latin lookup 8 subtable" zero uni2215 zero
Ligature2: "'frac' Diagonal Fractions in Latin lookup 8 subtable" zero fraction zero
Ligature2: "'frac' Diagonal Fractions in Latin lookup 8 subtable" zero slash zero
Ligature2: "'frac' Diagonal Fractions in Latin lookup 7 subtable" zero uni2215 zero
Ligature2: "'frac' Diagonal Fractions in Latin lookup 7 subtable" zero fraction zero
Ligature2: "'frac' Diagonal Fractions in Latin lookup 7 subtable" zero slash zero
Ligature2: "'frac' Diagonal Fractions in Latin lookup 6 subtable" zero uni2215 zero
Ligature2: "'frac' Diagonal Fractions in Latin lookup 6 subtable" zero fraction zero
Ligature2: "'frac' Diagonal Fractions in Latin lookup 6 subtable" zero slash zero
Ligature2: "'frac' Diagonal Fractions in Latin lookup 5 subtable" zero uni2215 zero
Ligature2: "'frac' Diagonal Fractions in Latin lookup 5 subtable" zero fraction zero
Ligature2: "'frac' Diagonal Fractions in Latin lookup 5 subtable" zero slash zero
Ligature2: "'frac' Diagonal Fractions in Latin lookup 4 subtable" zero uni2215 zero
Ligature2: "'frac' Diagonal Fractions in Latin lookup 4 subtable" zero fraction zero
Ligature2: "'frac' Diagonal Fractions in Latin lookup 4 subtable" zero slash zero
Ligature2: "'frac' Diagonal Fractions in Latin lookup 3 subtable" zero uni2215 zero
Ligature2: "'frac' Diagonal Fractions in Latin lookup 3 subtable" zero fraction zero
Ligature2: "'frac' Diagonal Fractions in Latin lookup 3 subtable" zero slash zero
Ligature2: "'frac' Diagonal Fractions in Latin lookup 2 subtable" zero uni2215 zero
Ligature2: "'frac' Diagonal Fractions in Latin lookup 2 subtable" zero fraction zero
Ligature2: "'frac' Diagonal Fractions in Latin lookup 2 subtable" zero slash zero
EndChar

StartChar: ampersand
Encoding: 38 38 7
Width: 810
Flags: MW
HStem: 96 20G<743 758 758 758>
LayerCount: 2
Fore
SplineSet
317 717 m 0
 265 699 240 618 288 547 c 2
 360 441 l 1
 491 527 468 633 424 688 c 1
 395 717 353 730 317 717 c 0
207 105 m 0
 261 38 388 33 437 138 c 1
 274 373 l 1
 224 341 l 2
 168 301 129 202 207 105 c 0
743 116 m 1
 758 116 l 1
 758 35 698 -3 643 -9 c 1
 643 -9 544 -18 504 41 c 2
 448 123 l 1
 410 9 205 -76 105 63 c 0
 5 200 136 310 215 356 c 2
 265 386 l 1
 212 466 l 1
 118 596 181 721 293 740 c 0
 360 752 407 734 438 699 c 0
 477 653 521 535 369 427 c 1
 495 240 l 1
 533 324 584 343 610 349 c 0
 631 354 659 352 677 337 c 0
 701 318 706 281 683 256 c 0
 663 232 626 228 601 249 c 0
 589 260 583 272 582 288 c 0
 582 309 528 293 503 228 c 1
 582 114 l 2
 613 68 665 68 665 68 c 1
 700 68 735 79 743 116 c 1
EndSplineSet
Validated: 33
EndChar

StartChar: quotesingle
Encoding: 39 39 8
Width: 258
Flags: MW
HStem: 376 21G<105 105 105 160> 684 20G<75 189 189 189>
LayerCount: 2
Fore
SplineSet
105 376 m 1
 75 704 l 1
 189 704 l 1
 160 376 l 1
 105 376 l 1
EndSplineSet
Validated: 1
EndChar

StartChar: parenleft
Encoding: 40 40 9
Width: 325
Flags: MW
HStem: -206 21G<311 311> 725 20G<313 313>
VStem: 79 106<211 290.5 211 329.5>
LayerCount: 2
Fore
SplineSet
313 745 m 1
 326 733 l 1
 182 564 185 330 185 251 c 0
 185 171 183 -66 324 -193 c 1
 311 -206 l 1
 133 -106 79 102 79 254 c 0
 79 405 134 620 313 745 c 1
EndSplineSet
Validated: 33
EndChar

StartChar: parenright
Encoding: 41 41 10
Width: 329
Flags: MW
HStem: -206 21G<13 13> 725 20G<11 11>
VStem: 139 106<211 290.5>
LayerCount: 2
Fore
SplineSet
-2 733 m 1
 11 745 l 1
 190 620 245 405 245 254 c 0
 245 102 191 -106 13 -206 c 1
 0 -193 l 1
 141 -66 139 171 139 251 c 0
 139 330 142 564 -2 733 c 1
EndSplineSet
Validated: 33
EndChar

StartChar: asterisk
Encoding: 42 42 11
Width: 551
Flags: MW
HStem: 306 21G<190 190 357 357> 684 20G<228 320 320 320>
LayerCount: 2
Fore
SplineSet
483 519 m 1
 301 490 l 1
 432 361 l 1
 357 306 l 1
 274 471 l 1
 190 306 l 1
 116 361 l 1
 247 490 l 1
 64 519 l 1
 93 606 l 1
 257 522 l 1
 228 704 l 1
 320 704 l 1
 291 522 l 1
 455 606 l 1
 483 519 l 1
EndSplineSet
Validated: 1
EndChar

StartChar: plus
Encoding: 43 43 12
Width: 715
Flags: MW
HStem: 0 21G<316 397 316 316> 270 80<56 316 56 316 397 657> 599 20G<316 397 397 397>
VStem: 316 81<0 270 0 270 350 619>
LayerCount: 2
Fore
SplineSet
657 350 m 1
 657 270 l 1
 397 270 l 1
 397 0 l 1
 316 0 l 1
 316 270 l 1
 56 270 l 1
 56 350 l 1
 316 350 l 1
 316 619 l 1
 397 619 l 1
 397 350 l 1
 657 350 l 1
EndSplineSet
Validated: 1
EndChar

StartChar: comma
Encoding: 44 44 13
Width: 254
Flags: MW
HStem: -129 21G<89 89>
LayerCount: 2
Fore
SplineSet
89 -129 m 1
 80 -118 l 1
 142 -72 146 -9 130 -7 c 0
 113 -5 96 0 82 14 c 0
 55 41 54 85 81 113 c 0
 109 141 154 141 181 113 c 0
 224 71 197 -9 167 -55 c 0
 154 -76 134 -105 89 -129 c 1
EndSplineSet
Validated: 33
EndChar

StartChar: hyphen
Encoding: 45 45 14
Width: 444
Flags: MW
HStem: 215 80<64 379 64 379>
LayerCount: 2
Fore
SplineSet
379 215 m 1
 64 215 l 1
 64 295 l 1
 379 295 l 1
 379 215 l 1
EndSplineSet
Validated: 1
EndChar

StartChar: period
Encoding: 46 46 15
Width: 252
Flags: MW
HStem: -5 144<107 146.5>
VStem: 55 144<47 87>
LayerCount: 2
Fore
SplineSet
127 -5 m 0
 87 -5 55 27 55 67 c 0
 55 107 87 139 127 139 c 0
 166 139 199 107 199 67 c 0
 199 27 166 -5 127 -5 c 0
EndSplineSet
Validated: 1
EndChar

StartChar: slash
Encoding: 47 47 16
Width: 420
Flags: MW
HStem: -21 21G<14 95 14 14> 705 20G<322 403 403 403>
LayerCount: 2
Fore
SplineSet
403 725 m 1
 95 -21 l 1
 14 -21 l 1
 322 725 l 1
 403 725 l 1
EndSplineSet
Validated: 1
EndChar

StartChar: zero
Encoding: 48 48 17
Width: 619
Flags: MW
HStem: -9 21G<198.5 419> 693 20G<198.5 419>
VStem: 34 133<253.5 439> 450 133<253.5 439 253.5 485>
LayerCount: 2
Fore
SplineSet
450 346 m 0
 450 624 395 698 309 698 c 0
 219 698 167 624 167 346 c 0
 167 69 221 6 309 6 c 0
 400 6 450 69 450 346 c 0
583 346 m 0
 583 161 529 -9 309 -9 c 0
 88 -9 34 161 34 346 c 0
 34 532 88 713 309 713 c 0
 529 713 583 532 583 346 c 0
EndSplineSet
Validated: 1
Substitution2: "'onum' Oldstyle Figures in Latin lookup 36 subtable" zero.taboldstyle
Substitution2: "'onum' Oldstyle Figures in Latin lookup 35 subtable" zero.taboldstyle
Substitution2: "'onum' Oldstyle Figures in Latin lookup 34 subtable" zero.taboldstyle
Substitution2: "'onum' Oldstyle Figures in Latin lookup 33 subtable" zero.taboldstyle
Substitution2: "'onum' Oldstyle Figures in Latin lookup 32 subtable" zero.taboldstyle
Substitution2: "'onum' Oldstyle Figures in Latin lookup 31 subtable" zero.taboldstyle
Substitution2: "'onum' Oldstyle Figures in Latin lookup 30 subtable" zero.taboldstyle
AlternateSubs2: "'aalt' Access All Alternates in Latin lookup 1 subtable" zero.taboldstyle
EndChar

StartChar: one
Encoding: 49 49 18
Width: 405
Flags: MW
HStem: 0 21G<71 344 71 71> 693 20G<232 265 265 265>
VStem: 159 106<93 547 547 588>
LayerCount: 2
Fore
SplineSet
344 15 m 1
 344 0 l 1
 71 0 l 1
 71 15 l 1
 112 15 159 19 159 93 c 2
 159 547 l 2
 159 629 85 579 67 564 c 1
 58 578 l 1
 232 713 l 1
 265 713 l 1
 265 93 l 2
 265 16 309 15 344 15 c 1
EndSplineSet
Validated: 33
Substitution2: "'onum' Oldstyle Figures in Latin lookup 36 subtable" one.taboldstyle
Substitution2: "'onum' Oldstyle Figures in Latin lookup 35 subtable" one.taboldstyle
Substitution2: "'onum' Oldstyle Figures in Latin lookup 34 subtable" one.taboldstyle
Substitution2: "'onum' Oldstyle Figures in Latin lookup 33 subtable" one.taboldstyle
Substitution2: "'onum' Oldstyle Figures in Latin lookup 32 subtable" one.taboldstyle
Substitution2: "'onum' Oldstyle Figures in Latin lookup 31 subtable" one.taboldstyle
Substitution2: "'onum' Oldstyle Figures in Latin lookup 30 subtable" one.taboldstyle
Substitution2: "'sups' Superscript in Latin lookup 22 subtable" one.superior
Substitution2: "'sups' Superscript in Latin lookup 21 subtable" one.superior
Substitution2: "'sups' Superscript in Latin lookup 20 subtable" one.superior
Substitution2: "'sups' Superscript in Latin lookup 19 subtable" one.superior
Substitution2: "'sups' Superscript in Latin lookup 18 subtable" one.superior
Substitution2: "'sups' Superscript in Latin lookup 17 subtable" one.superior
Substitution2: "'sups' Superscript in Latin lookup 16 subtable" one.superior
AlternateSubs2: "'aalt' Access All Alternates in Latin lookup 1 subtable" one.superior one.taboldstyle
EndChar

StartChar: two
Encoding: 50 50 19
Width: 487
Flags: MW
HStem: 0 108<133 345 345 362 133 406 39 345> 145 20G<437 451 451 451> 693 20G<231 281>
LayerCount: 2
Fore
SplineSet
437 165 m 1
 451 165 l 1
 406 0 l 1
 39 0 l 1
 263 332 l 1
 435 606 114 702 56 521 c 1
 41 525 l 1
 58 715 231 713 231 713 c 1
 331 713 402 637 402 546 c 0
 402 480 360 420 281 318 c 0
 232 254 133 108 133 108 c 1
 345 108 l 2
 379 108 415 125 437 165 c 1
EndSplineSet
Validated: 33
Substitution2: "'onum' Oldstyle Figures in Latin lookup 36 subtable" two.taboldstyle
Substitution2: "'onum' Oldstyle Figures in Latin lookup 35 subtable" two.taboldstyle
Substitution2: "'onum' Oldstyle Figures in Latin lookup 34 subtable" two.taboldstyle
Substitution2: "'onum' Oldstyle Figures in Latin lookup 33 subtable" two.taboldstyle
Substitution2: "'onum' Oldstyle Figures in Latin lookup 32 subtable" two.taboldstyle
Substitution2: "'onum' Oldstyle Figures in Latin lookup 31 subtable" two.taboldstyle
Substitution2: "'onum' Oldstyle Figures in Latin lookup 30 subtable" two.taboldstyle
Substitution2: "'sups' Superscript in Latin lookup 22 subtable" two.superior
Substitution2: "'sups' Superscript in Latin lookup 21 subtable" two.superior
Substitution2: "'sups' Superscript in Latin lookup 20 subtable" two.superior
Substitution2: "'sups' Superscript in Latin lookup 19 subtable" two.superior
Substitution2: "'sups' Superscript in Latin lookup 18 subtable" two.superior
Substitution2: "'sups' Superscript in Latin lookup 17 subtable" two.superior
Substitution2: "'sups' Superscript in Latin lookup 16 subtable" two.superior
AlternateSubs2: "'aalt' Access All Alternates in Latin lookup 1 subtable" two.superior two.taboldstyle
EndChar

StartChar: three
Encoding: 51 51 20
Width: 514
Flags: MW
HStem: -9 21G<190.5 279.5> 693 20G<226.5 306.5>
LayerCount: 2
Fore
SplineSet
56 44 m 0
 39 59 32 87 39 112 c 0
 49 147 86 167 121 156 c 0
 156 146 176 109 165 74 c 0
 160 56 150 44 136 38 c 0
 127 34 150 6 230 6 c 0
 332 6 366 84 357 182 c 0
 353 230 318 333 166 349 c 1
 166 365 l 1
 326 404 330 546 259 606 c 0
 204 652 92 633 65 548 c 1
 50 551 l 1
 66 713 222 713 231 713 c 0
 382 713 490 528 310 393 c 1
 406 357 460 288 463 221 c 0
 471 44 329 -9 230 -9 c 0
 151 -9 95 12 56 44 c 0
EndSplineSet
Validated: 33
Substitution2: "'onum' Oldstyle Figures in Latin lookup 36 subtable" three.taboldstyle
Substitution2: "'onum' Oldstyle Figures in Latin lookup 35 subtable" three.taboldstyle
Substitution2: "'onum' Oldstyle Figures in Latin lookup 34 subtable" three.taboldstyle
Substitution2: "'onum' Oldstyle Figures in Latin lookup 33 subtable" three.taboldstyle
Substitution2: "'onum' Oldstyle Figures in Latin lookup 32 subtable" three.taboldstyle
Substitution2: "'onum' Oldstyle Figures in Latin lookup 31 subtable" three.taboldstyle
Substitution2: "'onum' Oldstyle Figures in Latin lookup 30 subtable" three.taboldstyle
Substitution2: "'sups' Superscript in Latin lookup 22 subtable" three.superior
Substitution2: "'sups' Superscript in Latin lookup 21 subtable" three.superior
Substitution2: "'sups' Superscript in Latin lookup 20 subtable" three.superior
Substitution2: "'sups' Superscript in Latin lookup 19 subtable" three.superior
Substitution2: "'sups' Superscript in Latin lookup 18 subtable" three.superior
Substitution2: "'sups' Superscript in Latin lookup 17 subtable" three.superior
Substitution2: "'sups' Superscript in Latin lookup 16 subtable" three.superior
AlternateSubs2: "'aalt' Access All Alternates in Latin lookup 1 subtable" three.superior three.taboldstyle
EndChar

StartChar: four
Encoding: 52 52 21
Width: 538
Flags: MW
HStem: 0 21G<198 480 198 198> 200 61<122 278 122 278 400 500> 691 20G<357 357>
VStem: 278 122<128 133 133 200 75 200 261 558 558 558>
LayerCount: 2
Fore
SplineSet
278 261 m 1
 278 558 l 1
 109 308 l 2
 76 262 99 261 122 261 c 2
 278 261 l 1
500 200 m 1
 400 200 l 1
 400 133 l 2
 400 17 438 15 480 15 c 1
 480 0 l 1
 198 0 l 1
 198 15 l 1
 240 15 278 19 278 128 c 2
 278 200 l 1
 28 200 l 1
 28 215 l 1
 357 711 l 1
 400 704 l 1
 400 261 l 1
 500 261 l 1
 500 200 l 1
EndSplineSet
Validated: 33
Substitution2: "'onum' Oldstyle Figures in Latin lookup 36 subtable" four.taboldstyle
Substitution2: "'onum' Oldstyle Figures in Latin lookup 35 subtable" four.taboldstyle
Substitution2: "'onum' Oldstyle Figures in Latin lookup 34 subtable" four.taboldstyle
Substitution2: "'onum' Oldstyle Figures in Latin lookup 33 subtable" four.taboldstyle
Substitution2: "'onum' Oldstyle Figures in Latin lookup 32 subtable" four.taboldstyle
Substitution2: "'onum' Oldstyle Figures in Latin lookup 31 subtable" four.taboldstyle
Substitution2: "'onum' Oldstyle Figures in Latin lookup 30 subtable" four.taboldstyle
AlternateSubs2: "'aalt' Access All Alternates in Latin lookup 1 subtable" four.taboldstyle
EndChar

StartChar: five
Encoding: 53 53 22
Width: 535
Flags: MW
HStem: -9 21G<181 295.5> 592 112<119 430 117 465>
LayerCount: 2
Fore
SplineSet
483 232 m 0
 491 66 362 -9 229 -9 c 0
 133 -9 87 28 69 43 c 0
 53 59 44 88 50 112 c 0
 60 147 98 168 134 158 c 0
 169 148 189 111 179 75 c 0
 175 57 162 44 149 38 c 0
 136 32 155 6 229 6 c 0
 360 6 420 102 392 198 c 0
 373 259 288 366 52 325 c 1
 119 704 l 1
 465 704 l 1
 430 592 l 1
 117 592 l 1
 88 431 l 1
 369 483 477 348 483 232 c 0
EndSplineSet
Validated: 33
Substitution2: "'onum' Oldstyle Figures in Latin lookup 36 subtable" five.taboldstyle
Substitution2: "'onum' Oldstyle Figures in Latin lookup 35 subtable" five.taboldstyle
Substitution2: "'onum' Oldstyle Figures in Latin lookup 34 subtable" five.taboldstyle
Substitution2: "'onum' Oldstyle Figures in Latin lookup 33 subtable" five.taboldstyle
Substitution2: "'onum' Oldstyle Figures in Latin lookup 32 subtable" five.taboldstyle
Substitution2: "'onum' Oldstyle Figures in Latin lookup 31 subtable" five.taboldstyle
Substitution2: "'onum' Oldstyle Figures in Latin lookup 30 subtable" five.taboldstyle
AlternateSubs2: "'aalt' Access All Alternates in Latin lookup 1 subtable" five.taboldstyle
EndChar

StartChar: six
Encoding: 54 54 23
Width: 563
Flags: MW
HStem: -9 21G<202.5 356.5> 397 38<306 324.5> 693 20G<250 374.5>
VStem: 42 132<218.5 330.5 195.5 434.5> 401 123<140.5 269.5>
LayerCount: 2
Fore
SplineSet
401 199 m 0
 401 340 353 397 296 397 c 0
 241 397 174 363 174 298 c 0
 174 93 205 6 287 6 c 0
 362 6 401 44 401 199 c 0
524 218 m 0
 524 63 426 -9 287 -9 c 0
 118 -9 42 119 42 318 c 0
 42 551 171 713 329 713 c 0
 420 713 454 665 464 648 c 0
 475 629 474 600 460 579 c 0
 439 550 398 542 368 563 c 0
 339 583 332 625 353 654 c 0
 363 668 376 678 392 679 c 0
 400 680 386 696 336 698 c 0
 249 700 175 615 174 338 c 1
 203 413 275 435 337 435 c 0
 479 435 524 324 524 218 c 0
EndSplineSet
Validated: 33
Substitution2: "'onum' Oldstyle Figures in Latin lookup 36 subtable" six.taboldstyle
Substitution2: "'onum' Oldstyle Figures in Latin lookup 35 subtable" six.taboldstyle
Substitution2: "'onum' Oldstyle Figures in Latin lookup 34 subtable" six.taboldstyle
Substitution2: "'onum' Oldstyle Figures in Latin lookup 33 subtable" six.taboldstyle
Substitution2: "'onum' Oldstyle Figures in Latin lookup 32 subtable" six.taboldstyle
Substitution2: "'onum' Oldstyle Figures in Latin lookup 31 subtable" six.taboldstyle
Substitution2: "'onum' Oldstyle Figures in Latin lookup 30 subtable" six.taboldstyle
AlternateSubs2: "'aalt' Access All Alternates in Latin lookup 1 subtable" six.taboldstyle
EndChar

StartChar: seven
Encoding: 55 55 24
Width: 553
Flags: MW
HStem: 0 21G<188 311 188 188> 596 108<134.5 155 155 439 454 454>
VStem: 188 123<0 61.5>
LayerCount: 2
Fore
SplineSet
67 704 m 1
 518 704 l 1
 454 596 l 1
 329 372 311 123 311 0 c 1
 188 0 l 1
 194 176 240 338 439 596 c 1
 155 596 l 2
 114 596 80 578 60 538 c 1
 45 538 l 1
 67 704 l 1
EndSplineSet
Validated: 1
Substitution2: "'onum' Oldstyle Figures in Latin lookup 36 subtable" seven.taboldstyle
Substitution2: "'onum' Oldstyle Figures in Latin lookup 35 subtable" seven.taboldstyle
Substitution2: "'onum' Oldstyle Figures in Latin lookup 34 subtable" seven.taboldstyle
Substitution2: "'onum' Oldstyle Figures in Latin lookup 33 subtable" seven.taboldstyle
Substitution2: "'onum' Oldstyle Figures in Latin lookup 32 subtable" seven.taboldstyle
Substitution2: "'onum' Oldstyle Figures in Latin lookup 31 subtable" seven.taboldstyle
Substitution2: "'onum' Oldstyle Figures in Latin lookup 30 subtable" seven.taboldstyle
AlternateSubs2: "'aalt' Access All Alternates in Latin lookup 1 subtable" seven.taboldstyle
EndChar

StartChar: eight
Encoding: 56 56 25
Width: 552
Flags: MW
HStem: -9 21G<210 350.5> 693 20G<215.5 331>
VStem: 36 94<111 199> 66 64 66 100<548.5 591.5> 394 77 410 109
LayerCount: 2
Fore
SplineSet
394 553 m 0xd2
 393 669 329 698 271 698 c 0
 215 698 166 659 166 586 c 0
 166 511 215 462 326 418 c 1
 364 434 395 482 394 553 c 0xd2
284 -9 m 0xcc
 136 -9 36 35 36 156 c 0
 36 242 122 318 198 339 c 1
 104 397 66 460 66 530 c 0
 66 653 160 713 271 713 c 0xe4
 391 713 471 657 471 562 c 0
 471 503 424 427 344 408 c 1
 440 362 519 285 519 196 c 0
 519 47 417 -9 284 -9 c 0xcc
254 308 m 0
 237 317 233 319 218 328 c 1
 188 314 130 267 130 160 c 0
 130 62 192 6 284 6 c 0xcc
 344 6 411 42 410 138 c 0
 409 217 337 265 254 308 c 0
EndSplineSet
Validated: 33
Substitution2: "'onum' Oldstyle Figures in Latin lookup 36 subtable" eight.taboldstyle
Substitution2: "'onum' Oldstyle Figures in Latin lookup 35 subtable" eight.taboldstyle
Substitution2: "'onum' Oldstyle Figures in Latin lookup 34 subtable" eight.taboldstyle
Substitution2: "'onum' Oldstyle Figures in Latin lookup 33 subtable" eight.taboldstyle
Substitution2: "'onum' Oldstyle Figures in Latin lookup 32 subtable" eight.taboldstyle
Substitution2: "'onum' Oldstyle Figures in Latin lookup 31 subtable" eight.taboldstyle
Substitution2: "'onum' Oldstyle Figures in Latin lookup 30 subtable" eight.taboldstyle
AlternateSubs2: "'aalt' Access All Alternates in Latin lookup 1 subtable" eight.taboldstyle
EndChar

StartChar: nine
Encoding: 57 57 26
Width: 555
Flags: MW
HStem: -9 21G<182.5 330> 270 38<236.5 255> 693 20G<204.5 358.5>
VStem: 37 123<436.5 564> 386 131<377.5 491.5 267 509.5>
LayerCount: 2
Fore
SplineSet
160 507 m 0
 160 366 208 308 265 308 c 0
 320 308 386 345 386 410 c 0
 386 609 356 698 274 698 c 0
 199 698 160 657 160 507 c 0
37 488 m 0
 37 640 135 713 274 713 c 0
 443 713 517 591 517 392 c 0
 517 142 425 -9 235 -9 c 0
 130 -9 101 42 91 59 c 0
 80 78 81 107 95 128 c 0
 116 158 157 165 187 144 c 0
 216 124 223 82 202 53 c 0
 192 39 178 29 162 28 c 0
 155 27 177 7 227 6 c 0
 354 3 385 81 386 368 c 1
 353 290 286 270 224 270 c 0
 82 270 37 382 37 488 c 0
EndSplineSet
Validated: 33
Substitution2: "'onum' Oldstyle Figures in Latin lookup 36 subtable" nine.taboldstyle
Substitution2: "'onum' Oldstyle Figures in Latin lookup 35 subtable" nine.taboldstyle
Substitution2: "'onum' Oldstyle Figures in Latin lookup 34 subtable" nine.taboldstyle
Substitution2: "'onum' Oldstyle Figures in Latin lookup 33 subtable" nine.taboldstyle
Substitution2: "'onum' Oldstyle Figures in Latin lookup 32 subtable" nine.taboldstyle
Substitution2: "'onum' Oldstyle Figures in Latin lookup 31 subtable" nine.taboldstyle
Substitution2: "'onum' Oldstyle Figures in Latin lookup 30 subtable" nine.taboldstyle
AlternateSubs2: "'aalt' Access All Alternates in Latin lookup 1 subtable" nine.taboldstyle
EndChar

StartChar: colon
Encoding: 58 58 27
Width: 252
Flags: MW
HStem: 16 146<106.5 146.5> 304 146<106.5 146.5>
VStem: 54 146<68 108.5 357 397>
LayerCount: 2
Fore
SplineSet
127 304 m 0
 86 304 54 337 54 377 c 0
 54 417 86 450 127 450 c 0
 166 450 200 417 200 377 c 0
 200 337 166 304 127 304 c 0
127 16 m 0
 86 16 54 48 54 88 c 0
 54 129 86 162 127 162 c 0
 166 162 200 129 200 88 c 0
 200 48 166 16 127 16 c 0
EndSplineSet
Validated: 1
EndChar

StartChar: semicolon
Encoding: 59 59 28
Width: 251
Flags: MW
HStem: -104 21G<84 84> 303 147<106 146.5>
VStem: 54 145<356.5 397>
LayerCount: 2
Fore
SplineSet
126 303 m 0
 86 303 54 336 54 377 c 0
 54 417 86 450 126 450 c 0
 167 450 199 417 199 377 c 0
 199 336 167 303 126 303 c 0
84 -104 m 1
 129 -80 149 -51 162 -30 c 0
 192 16 219 96 176 138 c 0
 149 166 104 166 76 138 c 0
 49 110 50 66 77 39 c 0
 91 25 108 20 125 18 c 0
 141 16 137 -47 75 -93 c 1
 84 -104 l 1
EndSplineSet
Validated: 41
EndChar

StartChar: less
Encoding: 60 60 29
Width: 600
Flags: MW
HStem: -16 21G<553 553> 527 20G<553 553>
LayerCount: 2
Fore
SplineSet
170 266 m 1
 553 65 l 1
 553 -16 l 1
 46 244 l 1
 46 287 l 1
 553 547 l 1
 553 465 l 1
 170 266 l 1
EndSplineSet
Validated: 1
EndChar

StartChar: equal
Encoding: 61 61 30
Width: 613
Flags: MW
HStem: 119 71<56 567 56 567> 344 71<56 567 56 567>
LayerCount: 2
Fore
SplineSet
567 344 m 1
 56 344 l 1
 56 415 l 1
 567 415 l 1
 567 344 l 1
567 119 m 1
 56 119 l 1
 56 190 l 1
 567 190 l 1
 567 119 l 1
EndSplineSet
Validated: 1
EndChar

StartChar: greater
Encoding: 62 62 31
Width: 600
Flags: MW
HStem: -16 21G<47 47> 527 20G<47 47>
LayerCount: 2
Fore
SplineSet
47 65 m 1
 430 266 l 1
 47 465 l 1
 47 547 l 1
 554 287 l 1
 554 244 l 1
 47 -16 l 1
 47 65 l 1
EndSplineSet
Validated: 1
EndChar

StartChar: question
Encoding: 63 63 32
Width: 584
Flags: MW
HStem: -5 148<252.5 294>
VStem: 200 148<48.5 89.5>
LayerCount: 2
Fore
SplineSet
348 69 m 0
 348 28 315 -5 273 -5 c 0
 232 -5 200 28 200 69 c 0
 200 110 232 143 273 143 c 0
 315 143 348 110 348 69 c 0
350 345 m 0
 298 328 270 282 275 222 c 1
 252 218 l 1
 246 257 241 323 304 376 c 0
 350 415 381 460 372 565 c 0
 361 699 255 729 171 696 c 0
 135 681 136 653 150 651 c 0
 165 649 177 641 187 627 c 0
 206 600 199 562 173 543 c 0
 146 524 108 532 88 560 c 0
 75 579 77 602 82 621 c 0
 88 644 113 687 161 708 c 0
 319 778 492 712 498 569 c 0
 505 424 407 364 350 345 c 0
EndSplineSet
Validated: 33
EndChar

StartChar: at
Encoding: 64 64 33
Width: 880
Flags: MW
HStem: -205 32 -8 37<550 652> 373 20G<489 520.5> 374 241 558 57
LayerCount: 2
Fore
SplineSet
515 81 m 1xd0
 520 106 542 203 552 253 c 0
 555 269 569 374 506 374 c 0
 443 374 391 298 374 206 c 0
 352 92 400 49 445 45 c 0
 491 41 515 81 515 81 c 1xd0
525 615 m 0
 697 608 851 479 827 244 c 0
 805 21 646 -8 573 -8 c 0
 527 -8 506 22 511 54 c 1
 501 40 457 -8 379 -8 c 0
 292 -8 263 88 272 165 c 0
 281 248 339 394 489 393 c 0
 552 393 572 354 573 353 c 1
 575 365 578 379 578 379 c 1
 662 378 l 1
 662 378 610 115 603 79 c 0
 598 59 598 29 631 29 c 0
 673 29 772 86 781 248 c 0
 787 362 755 541 535 558 c 0xe8
 302 575 169 389 145 204 c 1
 145 204 83 -146 434 -173 c 0
 550 -182 634 -123 640 -117 c 1
 649 -130 l 1
 649 -130 579 -205 414 -205 c 0
 269 -205 25 -131 38 182 c 0
 49 460 288 624 525 615 c 0
EndSplineSet
Validated: 33
EndChar

StartChar: A
Encoding: 65 65 34
Width: 698
Flags: MW
HStem: 0 220<172 251 16 411 172 683 172 426> 185 20G<169 417 169 169> 684 20G<336 349 349 349>
LayerCount: 2
Fore
SplineSet
172 220 m 1xa0
 411 220 l 1
 287 532 l 1
 172 220 l 1xa0
683 15 m 1
 683 0 l 1
 426 0 l 1
 426 15 l 1
 492 15 461 97 449 125 c 2
 417 205 l 1
 169 205 l 1xa0
 155 165 102 9 251 15 c 1
 251 0 l 1
 16 0 l 1
 16 15 l 1x60
 48 16 73 15 165 248 c 1
 336 704 l 1
 349 704 l 1
 533 263 600 92 600 92 c 2
 633 12 656 17 683 15 c 1
EndSplineSet
Validated: 33
EndChar

StartChar: B
Encoding: 66 66 35
Width: 615
Flags: MW
HStem: 0 21G<37 258 37 37> 329 20G<219 269 219 219> 341 20G<358 380.5> 344 20G<219 269 269 298> 684 20G<37 258 258 327.5>
VStem: 95 124<128 349 364 576 576 607> 398 123<460 609> 439 129<98.5 264>
LayerCount: 2
Fore
SplineSet
261 689 m 2xcd
 219 689 l 1
 219 364 l 1
 269 364 l 2
 327 364 398 385 398 535 c 0
 398 683 315 689 261 689 c 2xcd
568 179 m 0
 568 5 431 0 258 0 c 2
 37 0 l 1xae
 37 9 l 1
 80 9 95 60 95 128 c 2
 95 576 l 2
 95 638 81 696 37 696 c 1
 37 704 l 1
 258 704 l 2
 397 704 521 703 521 533 c 0
 521 381 368 361 348 361 c 1
 413 361 568 349 568 179 c 0
439 184 m 0
 439 344 340 349 269 349 c 2
 219 349 l 1xcd
 219 15 l 1
 261 15 l 2
 352 15 439 13 439 184 c 0
EndSplineSet
Validated: 33
EndChar

StartChar: C
Encoding: 67 67 36
Width: 681
Flags: MW
HStem: -9 21G<282.5 441.5> 189 20G<610 625 625 625> 693 20G<282.5 439.5>
VStem: 41 154<246.5 458>
LayerCount: 2
Fore
SplineSet
610 209 m 1
 625 209 l 1
 638 53 l 1
 564 4 495 -9 388 -9 c 0
 177 -9 41 141 41 352 c 0
 41 564 177 713 388 713 c 0
 491 713 575 703 638 652 c 1
 625 496 l 1
 610 496 l 1
 568 646 485 698 388 698 c 0
 280 698 195 640 195 352 c 0
 195 61 283 6 388 6 c 0
 488 6 591 78 610 209 c 1
EndSplineSet
Validated: 1
EndChar

StartChar: D
Encoding: 68 68 37
Width: 735
Flags: MW
HStem: 0 21G<41 281 41 41> 684 20G<41 281 281 380.5>
VStem: 112 125<128 576 576 607> 541 148<201 496.5 201 508.5>
LayerCount: 2
Fore
SplineSet
541 350 m 0
 541 667 385 689 281 689 c 2
 237 689 l 1
 237 15 l 1
 281 15 l 2
 383 15 541 28 541 350 c 0
689 350 m 0
 689 52 480 0 281 0 c 2
 41 0 l 1
 41 15 l 1
 84 15 112 60 112 128 c 2
 112 576 l 2
 112 638 85 689 41 689 c 1
 41 704 l 1
 281 704 l 2
 480 704 689 643 689 350 c 0
EndSplineSet
Validated: 1
EndChar

StartChar: E
Encoding: 69 69 38
Width: 625
Flags: MW
HStem: 0 21G<29 562 29 29> 193 20G<547 562 562 562> 225 20G<410 425 410 410> 328 20G<209 259 209 209> 343 20G<209 259 259 266> 445 20G<410 425 425 425> 684 20G<29 549 549 549>
VStem: 85 124<127 348 363 582 582 613>
LayerCount: 2
Fore
SplineSet
547 213 m 1xf7
 562 213 l 1
 562 0 l 1
 29 0 l 1
 29 15 l 1
 71 15 85 59 85 127 c 2
 85 582 l 2
 85 644 73 689 29 689 c 1
 29 704 l 1
 549 704 l 1
 549 519 l 1xef
 534 519 l 1
 517 688 295 689 254 689 c 2
 209 689 l 1
 209 363 l 1
 259 363 l 2
 273 363 402 363 410 465 c 1
 425 465 l 1
 425 245 l 1
 410 245 l 1
 402 348 272 348 259 348 c 2
 209 348 l 1
 209 15 l 1
 250 15 l 2
 294 15 515 13 547 213 c 1xf7
EndSplineSet
Validated: 33
EndChar

StartChar: F
Encoding: 70 70 39
Width: 573
Flags: MW
HStem: 0 21G<27 288 27 27> 225 20G<414 429 414 414> 327 20G<207 256 207 207> 344 20G<207 256 256 263> 445 20G<414 429 429 429> 684 20G<27 555 555 555>
VStem: 83 124<127 129 129 347 364 582 582 613>
LayerCount: 2
Fore
SplineSet
27 704 m 1xee
 555 704 l 1
 555 519 l 1
 540 519 l 1
 514 696 290 689 251 689 c 2
 207 689 l 1
 207 364 l 1
 256 364 l 2
 270 364 401 361 414 465 c 1
 429 465 l 1
 429 245 l 1
 414 245 l 1
 401 350 270 347 256 347 c 2
 207 347 l 1
 207 129 l 2
 207 23 244 15 288 15 c 1
 288 0 l 1xde
 27 0 l 1
 27 15 l 1
 70 15 83 59 83 127 c 2
 83 582 l 2
 83 644 71 689 27 689 c 1
 27 704 l 1xee
EndSplineSet
Validated: 33
EndChar

StartChar: G
Encoding: 71 71 40
Width: 730
Flags: MW
HStem: -9 21G<272 433.5> 245 20G<446 477 676 705> 260 20G<446 705 705 705> 693 20G<272 436>
VStem: 39 156<252.5 451.5> 529 108<72.5 142 33 189.5>
LayerCount: 2
Fore
SplineSet
446 280 m 1xdc
 705 280 l 1
 705 265 l 1xbc
 647 265 637 251 637 33 c 1
 575 9 487 -9 380 -9 c 0
 164 -9 39 153 39 352 c 0
 39 551 164 713 380 713 c 0
 492 713 571 699 633 658 c 1
 626 492 l 1
 598 492 l 1
 576 653 498 698 380 698 c 0
 266 698 195 627 195 352 c 0
 195 77 268 6 380 6 c 0
 497 6 529 27 529 118 c 0
 529 261 508 265 446 265 c 1
 446 280 l 1xdc
EndSplineSet
Validated: 1
EndChar

StartChar: H
Encoding: 72 72 41
Width: 634
Flags: MW
HStem: 0 21G<23 216 23 23 422 614 422 422> 308 20G<190 448 190 190> 327 20G<190 448 448 448> 684 20G<23 216 216 216 422 614 614 614>
VStem: 71 119<136 328 347 563> 448 119<136 328 328 328 347 563>
LayerCount: 2
Fore
SplineSet
567 563 m 2xbc
 567 136 l 2
 567 54 562 29 614 15 c 1
 614 0 l 1
 422 0 l 1
 422 15 l 1
 449 25 448 50 448 136 c 2
 448 328 l 1
 190 328 l 1
 190 136 l 2
 190 44 188 25 216 15 c 1
 216 0 l 1
 23 0 l 1
 23 15 l 1
 76 29 71 47 71 136 c 2
 71 563 l 2
 71 647 71 680 23 689 c 1
 23 704 l 1
 216 704 l 1
 216 689 l 1
 188 680 190 650 190 563 c 2xdc
 190 347 l 1
 448 347 l 1
 448 563 l 2
 448 650 450 680 422 689 c 1
 422 704 l 1
 614 704 l 1
 614 689 l 1
 567 680 567 650 567 563 c 2xbc
EndSplineSet
Validated: 33
EndChar

StartChar: I
Encoding: 73 73 42
Width: 363
Flags: MW
HStem: 0 21G<47 326 47 47> 684 20G<47 326 326 326>
VStem: 125 123<114 605>
LayerCount: 2
Fore
SplineSet
47 704 m 1
 326 704 l 1
 326 689 l 1
 283 689 248 667 248 605 c 2
 248 114 l 2
 248 46 284 15 326 15 c 1
 326 0 l 1
 47 0 l 1
 47 15 l 1
 90 15 125 46 125 114 c 2
 125 605 l 2
 125 667 91 689 47 689 c 1
 47 704 l 1
EndSplineSet
Validated: 1
EndChar

StartChar: J
Encoding: 74 74 43
Width: 418
Flags: MW
HStem: -167 21G<5 5> 684 20G<90 377 377 377>
VStem: 168 126<176 182 182 475 475 569>
LayerCount: 2
Fore
SplineSet
90 704 m 1
 377 704 l 1
 377 689 l 1
 332 689 294 661 294 597 c 2
 294 182 l 2
 294 -54 168 -143 5 -167 c 1
 1 -152 l 1
 87 -121 168 -41 168 176 c 2
 168 475 l 2
 168 663 167 689 90 689 c 1
 90 704 l 1
EndSplineSet
Validated: 1
EndChar

StartChar: K
Encoding: 75 75 44
Width: 770
Flags: MW
HStem: 0 21G<38 300 38 38 572 625 625 757> 684 20G<38 311 311 311 425 728 728 728>
VStem: 105 124<114 605>
LayerCount: 2
Fore
SplineSet
757 15 m 1
 757 0 l 1
 625 0 l 2
 519 0 496 30 390 181 c 0
 333 263 284 327 284 327 c 1
 416 487 l 2
 445 520 589 686 425 689 c 1
 425 704 l 1
 728 704 l 1
 728 689 l 1
 658 689 595 676 379 399 c 1
 555 164 621 75 621 75 c 2
 668 13 737 15 757 15 c 1
38 704 m 1
 311 704 l 1
 311 689 l 1
 267 689 229 678 229 605 c 2
 229 114 l 2
 229 46 257 15 300 15 c 1
 300 0 l 1
 38 0 l 1
 38 15 l 1
 80 15 105 46 105 114 c 2
 105 605 l 2
 105 667 81 689 38 689 c 1
 38 704 l 1
EndSplineSet
Validated: 33
EndChar

StartChar: L
Encoding: 76 76 45
Width: 640
Flags: MW
HStem: 0 21G<45 578 45 45> 197 20G<564 578 578 578> 684 20G<37 314 314 314>
VStem: 108 123<124 600 15 602 15 632.5>
LayerCount: 2
Fore
SplineSet
564 217 m 1
 578 217 l 1
 578 0 l 1
 45 0 l 1
 45 15 l 1
 88 15 108 56 108 124 c 2
 108 602 l 2
 108 663 80 689 37 689 c 1
 37 704 l 1
 314 704 l 1
 314 689 l 1
 271 689 231 672 231 600 c 2
 231 15 l 1
 267 15 l 2
 321 15 538 15 564 217 c 1
EndSplineSet
Validated: 1
EndChar

StartChar: M
Encoding: 77 77 46
Width: 949
Flags: MW
HStem: -9 21G<454 469 454 454> 0 21G<14 307 14 14 650 929 650 650> 684 20G<47 273 273 273 722 922 922 922>
VStem: 722 123<119 601>
LayerCount: 2
Fore
SplineSet
845 119 m 2x70
 845 44 886 15 929 15 c 1
 929 0 l 1
 650 0 l 1x70
 650 15 l 1
 692 15 722 44 722 119 c 2
 722 661 l 1
 469 -9 l 1
 454 -9 l 1xb0
 174 597 l 1
 174 251 l 2
 174 193 182 15 307 15 c 1
 307 0 l 1
 14 0 l 1
 14 15 l 1
 150 15 159 194 159 251 c 2
 159 621 l 1
 122 687 72 687 47 689 c 1
 47 704 l 1
 273 704 l 1
 523 167 l 1
 722 704 l 1
 922 704 l 1
 922 689 l 1
 879 689 845 665 845 601 c 2
 845 119 l 2x70
EndSplineSet
Validated: 1
EndChar

StartChar: N
Encoding: 78 78 47
Width: 822
Flags: MW
HStem: 0 21G<21 317 21 21 614 657 614 614> 684 20G<9 224 224 224 508 802 802 802>
LayerCount: 2
Fore
SplineSet
508 704 m 1
 802 704 l 1
 802 689 l 1
 654 690 657 499 657 453 c 2
 657 0 l 1
 614 0 l 1
 183 549 l 1
 183 253 l 2
 183 208 182 15 317 15 c 1
 317 0 l 1
 21 0 l 1
 21 15 l 1
 168 15 168 208 168 253 c 2
 168 565 l 1
 128 616 l 2
 64 696 35 687 9 689 c 1
 9 704 l 1
 224 704 l 1
 642 177 l 1
 642 453 l 2
 642 499 642 690 508 689 c 1
 508 704 l 1
EndSplineSet
Validated: 33
EndChar

StartChar: O
Encoding: 79 79 48
Width: 755
Flags: MW
HStem: -9 21G<266 486> 693 20G<266 486>
VStem: 41 143<247.5 446> 566 145<247.5 446 247.5 484>
LayerCount: 2
Fore
SplineSet
566 347 m 0
 566 621 494 698 376 698 c 0
 257 698 184 621 184 347 c 0
 184 72 257 6 376 6 c 0
 494 6 566 72 566 347 c 0
711 347 m 0
 711 148 596 -9 376 -9 c 0
 156 -9 41 148 41 347 c 0
 41 545 156 713 376 713 c 0
 596 713 711 545 711 347 c 0
EndSplineSet
Validated: 1
EndChar

StartChar: P
Encoding: 80 80 49
Width: 619
Flags: MW
HStem: 0 21G<30 327 30 30> 281 20G<218 218 218 245> 296 20G<218 245 245 300> 684 20G<28 245 245 344.5>
VStem: 96 122<136 137 137 301 316 585 585 617.5> 444 137<416 588 416 594>
LayerCount: 2
Fore
SplineSet
218 316 m 1xdc
 245 316 l 2
 355 316 444 321 444 502 c 0
 444 686 353 689 245 689 c 2
 218 689 l 1
 218 316 l 1xdc
218 301 m 1
 218 137 l 2
 218 20 274 15 327 15 c 1
 327 0 l 1
 30 0 l 1
 30 15 l 1
 76 15 96 54 96 136 c 2
 96 585 l 2
 96 650 75 689 28 689 c 1
 28 704 l 1xbc
 245 704 l 2
 444 704 581 674 581 502 c 0
 581 330 444 301 245 301 c 2
 218 301 l 1
EndSplineSet
Validated: 1
EndChar

StartChar: Q
Encoding: 81 81 50
Width: 751
Flags: MW
HStem: -9 21G<266 486> 693 20G<266 486>
VStem: 41 143<247.5 446> 566 145<247.5 446 247.5 484>
LayerCount: 2
Fore
SplineSet
566 347 m 0
 566 621 494 698 376 698 c 0
 257 698 184 621 184 347 c 0
 184 72 257 6 376 6 c 0
 494 6 566 72 566 347 c 0
711 347 m 0
 711 148 596 -9 376 -9 c 0
 156 -9 41 148 41 347 c 0
 41 545 156 713 376 713 c 0
 596 713 711 545 711 347 c 0
426 -66 m 1
 587 -122 l 2
 664 -148 708 -112 730 -96 c 1
 741 -107 l 1
 650 -184 l 2
 573 -247 490 -224 328 -155 c 2
 246 -120 l 2
 175 -90 127 -126 105 -142 c 1
 93 -130 l 1
 256 7 426 -66 426 -66 c 1
EndSplineSet
Validated: 33
EndChar

StartChar: R
Encoding: 82 82 51
Width: 687
Flags: MW
HStem: 0 21G<24 282 24 24 596 680 596 596> 302 20G<212 259 212 212> 317 20G<212 243 243 296> 684 20G<24 243 243 342.5>
VStem: 91 121<119 322 337 606 606 637> 431 137<448.5 596.5 448.5 602>
LayerCount: 2
Fore
SplineSet
431 513 m 0xdc
 431 691 345 689 243 689 c 2
 212 689 l 1
 212 337 l 1
 243 337 l 2
 349 337 431 337 431 513 c 0xdc
680 15 m 1
 680 0 l 1
 596 0 l 2
 442 1 463 1 399 218 c 0
 369 322 272 322 259 322 c 2
 212 322 l 1
 212 113 l 2
 212 44 240 15 282 15 c 1
 282 0 l 1
 24 0 l 1
 24 15 l 1
 67 15 91 43 91 119 c 2
 91 606 l 2
 91 668 68 689 24 689 c 1
 24 704 l 1
 243 704 l 2xbc
 442 704 568 680 568 513 c 0
 568 384 490 341 377 331 c 1
 443 333 517 308 567 108 c 0
 587 32 654 17 680 15 c 1
EndSplineSet
Validated: 33
EndChar

StartChar: S
Encoding: 83 83 52
Width: 586
Flags: MW
HStem: -9 21G<213 381> 222 20G<46 61 61 61> 693 20G<191.5 345>
LayerCount: 2
Fore
SplineSet
505 73 m 1
 505 73 460 -9 302 -9 c 0
 124 -9 46 50 46 50 c 1
 46 242 l 1
 61 242 l 1
 77 151 128 6 302 6 c 0
 431 6 458 163 338 249 c 1
 179 351 l 2
 60 427 -12 522 68 636 c 1
 68 636 117 713 266 713 c 0
 424 713 508 665 508 665 c 1
 508 497 l 1
 493 497 l 1
 479 573 429 698 266 698 c 0
 158 698 97 562 237 471 c 2
 397 366 l 2
 530 278 569 169 505 73 c 1
EndSplineSet
Validated: 33
EndChar

StartChar: T
Encoding: 84 84 53
Width: 676
Flags: MW
HStem: 0 21G<196 476 196 196> 684 20G<19 654 654 654>
VStem: 275 122<109 689>
LayerCount: 2
Fore
SplineSet
19 704 m 1
 654 704 l 1
 654 515 l 1
 639 515 l 1
 633 686 443 689 436 689 c 2
 397 689 l 1
 397 109 l 2
 397 42 434 15 476 15 c 1
 476 0 l 1
 196 0 l 1
 196 15 l 1
 238 15 275 42 275 109 c 2
 275 689 l 1
 236 689 l 2
 221 689 40 686 34 515 c 1
 19 515 l 1
 19 704 l 1
EndSplineSet
Validated: 1
EndChar

StartChar: U
Encoding: 85 85 54
Width: 736
Flags: MW
HStem: -9 52<339 385> 684 20G<17 301 301 301 435 716 716 716>
VStem: 92 122<243 601>
LayerCount: 2
Fore
SplineSet
332 -9 m 0
 200 -9 92 80 92 243 c 2
 92 602 l 2
 92 666 61 689 17 689 c 1
 17 704 l 1
 301 704 l 1
 301 689 l 1
 258 689 214 676 214 601 c 2
 214 235 l 2
 214 114 288 43 390 43 c 0
 479 43 562 111 562 238 c 2
 562 522 l 2
 562 570 562 690 435 689 c 1
 435 704 l 1
 716 704 l 1
 716 689 l 1
 575 690 577 570 577 522 c 2
 577 238 l 2
 578 41 438 -9 332 -9 c 0
EndSplineSet
Validated: 33
EndChar

StartChar: V
Encoding: 86 86 55
Width: 761
Flags: MW
HStem: 0 21G<361 377 361 361> 684 20G<17 311 311 311 475 740 740 740>
LayerCount: 2
Fore
SplineSet
475 704 m 1
 740 704 l 1
 740 689 l 1
 684 689 649 689 553 450 c 2
 377 0 l 1
 361 0 l 1
 177 442 112 612 112 612 c 2
 81 688 47 689 17 689 c 1
 17 704 l 1
 311 704 l 1
 311 689 l 1
 228 689 258 590 259 587 c 2
 424 158 l 1
 539 454 l 2
 554 500 629 689 475 689 c 1
 475 704 l 1
EndSplineSet
Validated: 33
EndChar

StartChar: W
Encoding: 87 87 56
Width: 1087
Flags: MW
HStem: 0 21G<351 366 351 351 695 710 695 695> 684 20G<13 307 307 307 366 660 660 660 798 1073 1073 1073>
LayerCount: 2
Fore
SplineSet
798 704 m 1
 1073 704 l 1
 1073 689 l 1
 1013 689 966 665 879 450 c 1
 710 0 l 1
 695 0 l 1
 522 439 l 1
 366 0 l 1
 351 0 l 1
 107 610 l 2
 77 686 43 689 13 689 c 1
 13 704 l 1
 307 704 l 1
 307 689 l 1
 219 689 253 592 255 588 c 2
 413 172 l 1
 514 461 l 1
 459 610 l 2
 430 686 395 689 366 689 c 1
 366 704 l 1
 660 704 l 1
 660 689 l 1
 570 689 606 592 607 588 c 2
 760 168 l 1
 864 454 l 2
 878 502 953 689 798 689 c 1
 798 704 l 1
EndSplineSet
Validated: 33
EndChar

StartChar: X
Encoding: 88 88 57
Width: 786
Flags: MW
HStem: 0 21G<47 326 47 47 473 767 473 473> 684 20G<23 337 337 337 452 755 755 755>
LayerCount: 2
Fore
SplineSet
647 100 m 2
 702 22 734 16 767 15 c 1
 767 0 l 1
 473 0 l 1
 473 15 l 1
 541 28 484 114 475 127 c 2
 365 293 l 1
 310 215 l 1
 279 157 176 15 326 15 c 1
 326 0 l 1
 47 0 l 1
 47 15 l 1
 85 15 141 9 297 228 c 2
 354 308 l 1
 241 473 147 603 147 603 c 2
 88 685 53 689 23 689 c 1
 23 704 l 1
 337 704 l 1
 337 689 l 1
 295 689 271 652 324 574 c 2
 427 422 l 1
 480 497 l 1
 507 546 605 689 452 689 c 1
 452 704 l 1
 755 704 l 1
 755 689 l 1
 711 689 640 691 492 484 c 2
 437 407 l 1
 510 304 647 100 647 100 c 2
EndSplineSet
Validated: 33
EndChar

StartChar: Y
Encoding: 89 89 58
Width: 732
Flags: MW
HStem: 0 21G<227 506 227 227> 684 20G<9 297 297 297 439 718 718 718>
VStem: 307 119<117 282 282 282>
LayerCount: 2
Fore
SplineSet
439 704 m 1
 718 704 l 1
 718 689 l 1
 683 689 608 689 497 469 c 1
 426 321 l 1
 426 117 l 2
 426 42 464 16 506 16 c 1
 506 0 l 1
 227 0 l 1
 227 16 l 1
 269 16 307 42 307 117 c 2
 307 282 l 1
 160 542 115 612 115 612 c 2
 71 688 38 689 9 690 c 1
 9 704 l 1
 297 704 l 1
 297 690 l 1
 272 690 206 692 274 577 c 2
 418 337 l 1
 490 485 l 2
 507 520 579 689 439 689 c 1
 439 704 l 1
EndSplineSet
Validated: 33
EndChar

StartChar: Z
Encoding: 90 90 59
Width: 581
Flags: MW
HStem: 0 21G<24 519 24 24> 213 20G<527 544 544 544> 684 20G<66 555 555 555>
LayerCount: 2
Fore
SplineSet
191 15 m 1
 227 15 l 2
 408 15 503 133 527 233 c 1
 544 233 l 1
 519 0 l 1
 24 0 l 1
 412 689 l 1
 364 689 l 2
 205 689 99 624 67 502 c 1
 48 502 l 1
 66 704 l 1
 555 704 l 1
 191 15 l 1
EndSplineSet
Validated: 1
EndChar

StartChar: bracketleft
Encoding: 91 91 60
Width: 321
Flags: MW
HStem: -146 21G<113 306 113 113> 715 20G<113 306 306 306>
VStem: 113 87<-91.5 -55 -55 635>
LayerCount: 2
Fore
SplineSet
113 735 m 1
 306 735 l 1
 306 720 l 1
 252 720 200 719 200 635 c 2
 200 -55 l 2
 200 -128 254 -131 306 -131 c 1
 306 -146 l 1
 113 -146 l 1
 113 735 l 1
EndSplineSet
Validated: 1
EndChar

StartChar: backslash
Encoding: 92 92 61
Width: 423
Flags: MW
HStem: -19 21G<325 325 325 405> 714 20G<14 94 94 94>
LayerCount: 2
Fore
SplineSet
325 -19 m 1
 14 734 l 1
 94 734 l 1
 405 -19 l 1
 325 -19 l 1
EndSplineSet
Validated: 1
EndChar

StartChar: bracketright
Encoding: 93 93 62
Width: 320
Flags: MW
HStem: -146 21G<11 204 11 11> 715 20G<11 204 204 204>
VStem: 117 87<-55 635 635 677>
LayerCount: 2
Fore
SplineSet
11 735 m 1
 204 735 l 1
 204 -146 l 1
 11 -146 l 1
 11 -131 l 1
 63 -131 117 -128 117 -55 c 2
 117 635 l 2
 117 719 65 720 11 720 c 1
 11 735 l 1
EndSplineSet
Validated: 1
EndChar

StartChar: asciicircum
Encoding: 94 94 63
Width: 569
Flags: MW
HStem: 376 21G<89 127 89 89 438 475 438 438> 684 20G<270 293 293 293>
LayerCount: 2
Fore
SplineSet
293 704 m 1
 475 376 l 1
 438 376 l 1
 281 557 l 1
 127 376 l 1
 89 376 l 1
 270 704 l 1
 293 704 l 1
EndSplineSet
Validated: 1
EndChar

StartChar: underscore
Encoding: 95 95 64
Width: 560
Flags: MW
HStem: -126 53<0 560 0 560>
LayerCount: 2
Fore
SplineSet
0 -73 m 1
 560 -73 l 1
 560 -126 l 1
 0 -126 l 1
 0 -73 l 1
EndSplineSet
Validated: 1
EndChar

StartChar: grave
Encoding: 96 96 65
Width: 337
Flags: MW
HStem: 557 21G<244 273 244 244> 700 20G<100 100>
LayerCount: 2
Fore
SplineSet
100 720 m 1
 273 557 l 1
 244 557 l 1
 4 691 l 1
 100 720 l 1
EndSplineSet
Validated: 1
EndChar

StartChar: a
Encoding: 97 97 66
Width: 508
Flags: HMW
HStem: -9 53<190.5 191> 451 20G<254 314>
VStem: 41 109<109 144 109 145.5> 298 108<111 241 241 241 258 271 111 318 111 369.5>
LayerCount: 2
Fore
SplineSet
298 241 m 1
 191 217 150 172 150 116 c 0
 150 102 159 44 222 44 c 0
 265 44 289 75 298 99 c 0
 298 101 298 241 298 241 c 1
481 66 m 1
 496 60 l 1
 489 29 449 -9 391 -9 c 1
 391 -9 308 -10 299 74 c 1
 285 28 226 -9 156 -9 c 1
 156 -9 41 -9 41 93 c 0
 41 198 125 214 298 258 c 1
 298 318 l 2
 298 421 244 476 169 440 c 0
 134 422 129 404 135 403 c 0
 149 401 160 395 169 383 c 0
 186 360 180 328 157 311 c 0
 134 295 101 300 85 323 c 0
 73 340 72 362 81 378 c 0
 90 394 105 422 159 451 c 0
 203 474 254 471 254 471 c 1
 374 471 406 389 406 271 c 2
 406 111 l 1
 406 111 406 45 453 45 c 1
 453 45 475 45 481 66 c 1
EndSplineSet
Validated: 33
Substitution2: "'sups' Superscript in Latin lookup 22 subtable" a.superior
Substitution2: "'sups' Superscript in Latin lookup 21 subtable" a.superior
Substitution2: "'sups' Superscript in Latin lookup 20 subtable" a.superior
Substitution2: "'sups' Superscript in Latin lookup 19 subtable" a.superior
Substitution2: "'sups' Superscript in Latin lookup 18 subtable" a.superior
Substitution2: "'sups' Superscript in Latin lookup 17 subtable" a.superior
Substitution2: "'sups' Superscript in Latin lookup 16 subtable" a.superior
Substitution2: "'ordn' Ordinals in Latin lookup 15 subtable" a.superior
Substitution2: "'ordn' Ordinals in Latin lookup 14 subtable" a.superior
Substitution2: "'ordn' Ordinals in Latin lookup 13 subtable" a.superior
Substitution2: "'ordn' Ordinals in Latin lookup 12 subtable" a.superior
Substitution2: "'ordn' Ordinals in Latin lookup 11 subtable" a.superior
Substitution2: "'ordn' Ordinals in Latin lookup 10 subtable" a.superior
Substitution2: "'ordn' Ordinals in Latin lookup 9 subtable" a.superior
Substitution2: "'aalt' Access All Alternates in Latin lookup 0 subtable" a.superior
EndChar

StartChar: b
Encoding: 98 98 67
Width: 572
Flags: MW
HStem: -9 21G<263.5 361.5> 434 37<297 322.5> 722 20G<170 170>
VStem: 65 105<108.5 166 166 305 389 635 635 652> 409 124<147 294>
LayerCount: 2
Fore
SplineSet
409 215 m 0
 409 373 365 434 280 434 c 0
 210 434 170 379 170 305 c 2
 170 166 l 2
 170 51 229 6 291 6 c 0
 361 6 409 59 409 215 c 0
533 226 m 0
 533 68 430 -9 293 -9 c 0
 234 -9 183 9 150 41 c 1
 118 12 65 -11 65 5 c 2
 65 635 l 2
 65 669 55 684 14 695 c 1
 14 710 l 1
 170 742 l 1
 170 389 l 1
 202 446 272 471 322 471 c 0
 445 471 533 374 533 226 c 0
EndSplineSet
Validated: 33
EndChar

StartChar: c
Encoding: 99 99 68
Width: 491
Flags: MW
HStem: -9 21G<203.5 326> 451 20G<215 338.5>
VStem: 45 110<185.5 291>
LayerCount: 2
Fore
SplineSet
444 128 m 1
 456 121 l 1
 443 71 388 -9 264 -9 c 0
 143 -9 45 100 45 232 c 0
 45 350 134 471 296 471 c 0
 381 471 417 434 430 419 c 0
 442 404 449 380 440 361 c 0
 429 333 396 317 367 328 c 0
 338 339 325 372 336 400 c 0
 341 415 352 426 365 431 c 0
 374 434 349 456 296 456 c 0
 258 456 155 425 155 246 c 0
 155 125 221 74 291 63 c 0
 353 54 423 92 444 128 c 1
EndSplineSet
Validated: 33
EndChar

StartChar: d
Encoding: 100 100 69
Width: 566
Flags: MW
HStem: -9 32<241 270> 451 20G<206 298> 722 20G<501 501>
VStem: 34 123<169 316.5> 396 105<63.5 68 68 68 142 300 300 355.5 438 637 637 654.5>
LayerCount: 2
Fore
SplineSet
396 142 m 2
 396 300 l 2
 396 411 335 456 276 456 c 0
 206 456 157 405 157 249 c 0
 157 89 199 23 283 23 c 0
 350 23 396 72 396 142 c 2
552 27 m 1
 552 12 l 1
 424 -8 l 2
 396 -12 396 10 396 10 c 1
 396 68 l 1
 364 13 294 -9 246 -9 c 0
 122 -9 34 89 34 237 c 0
 34 396 138 471 274 471 c 0
 322 471 364 458 396 438 c 1
 396 637 l 2
 396 672 386 684 345 695 c 1
 345 710 l 1
 501 742 l 1
 501 88 l 2
 501 39 511 30 552 27 c 1
EndSplineSet
Validated: 33
EndChar

StartChar: e
Encoding: 101 101 70
Width: 507
Flags: MW
HStem: -9 21G<189.5 316> 235 20G<148 362 362 362> 240 231<196.5 327.5 196.5 466 148 327.5>
VStem: 36 112<240 240 255 300> 362 104<255 318.5 240 323>
LayerCount: 2
Fore
SplineSet
148 255 m 1xb8
 362 255 l 1
 362 391 309 456 258 456 c 0
 200 456 148 366 148 255 c 1xb8
436 127 m 1
 450 120 l 1
 437 71 379 -9 253 -9 c 0
 126 -9 36 103 36 228 c 0
 36 372 131 471 262 471 c 0
 393 471 466 397 466 240 c 1
 148 240 l 1xd8
 154 124 209 71 281 60 c 0
 339 51 414 79 436 127 c 1
EndSplineSet
Validated: 33
EndChar

StartChar: f
Encoding: 102 102 71
Width: 315
Flags: MW
HStem: 0 21G<38 228 38 38> 442 20G<12 77 77 77 183 293 293 293> 724 20G<192 276>
VStem: 77 106<99 447 462 569>
LayerCount: 2
Fore
SplineSet
356 639 m 0
 343 612 311 600 284 612 c 0
 256 625 245 656 257 684 c 0
 264 698 275 707 288 710 c 0
 300 712 285 730 252 730 c 0
 209 730 183 676 183 462 c 1
 293 462 l 1
 290 447 l 1
 183 447 l 1
 183 99 l 2
 183 45 192 23 228 15 c 1
 228 0 l 1
 38 0 l 1
 38 15 l 1
 76 24 77 49 77 99 c 2
 77 447 l 1
 13 447 l 1
 12 462 l 1
 77 462 l 1
 77 686 133 744 251 744 c 0
 301 744 339 715 349 700 c 0
 360 684 364 658 356 639 c 0
EndSplineSet
Validated: 33
EndChar

StartChar: g
Encoding: 103 103 72
Width: 557
Flags: MW
HStem: -42 112<199.5 205 205 312 312 343> -42 214<199.5 279 234 279 234 343> 137 20G<236.5 316>
VStem: 67 102<282.5 349.5> 345 102<268.5 327 268.5 365>
LayerCount: 2
Fore
SplineSet
345 309 m 0xb8
 345 421 299 445 256 445 c 0
 206 445 169 421 169 309 c 0
 169 197 212 172 256 172 c 0
 302 172 345 197 345 309 c 0xb8
536 383 m 0
 514 364 482 367 464 388 c 0
 455 399 451 412 454 425 c 0
 455 433 427 428 410 405 c 1
 434 380 447 345 447 309 c 0
 447 228 376 157 256 157 c 0
 217 157 187 162 162 173 c 1
 126 163 70 70 182 70 c 2
 312 70 l 2
 381 70 499 68 481 -73 c 1
 481 -73 477 -154 372 -213 c 0
 234 -290 64 -278 24 -199 c 0
 -12 -129 41 -52 103 -20 c 1
 75 -7 55 20 55 60 c 1
 55 60 52 148 147 180 c 1
 96 202 67 256 67 309 c 0
 67 390 138 460 256 460 c 0
 319 460 367 443 399 415 c 1
 426 455 468 469 491 472 c 0
 509 475 529 469 542 455 c 0
 560 433 557 401 536 383 c 0
98 -169 m 1
 149 -230 273 -255 364 -200 c 0
 436 -156 428 -94 428 -94 c 1
 428 -94 422 -42 343 -42 c 2x58
 205 -42 l 2
 194 -42 156 -44 119 -29 c 1
 25 -86 99 -170 98 -169 c 1
EndSplineSet
Validated: 33
EndChar

StartChar: h
Encoding: 104 104 73
Width: 523
Flags: MW
HStem: 0 21G<26 213 26 26 319 506 319 319> 408 63<246 373.5> 722 20G<172 172>
VStem: 66 106<108 338 360 634 634 651.5> 359 106<108 309 309 313>
LayerCount: 2
Fore
SplineSet
506 15 m 1
 506 0 l 1
 319 0 l 1
 319 15 l 1
 357 26 359 57 359 108 c 2
 359 309 l 2
 359 374 329 408 265 408 c 0
 227 408 191 375 172 338 c 1
 172 108 l 2
 172 53 177 25 213 16 c 1
 213 0 l 1
 26 0 l 1
 26 16 l 1
 64 27 66 57 66 108 c 2
 66 634 l 2
 66 669 57 680 16 691 c 1
 16 706 l 1
 172 742 l 1
 172 360 l 1
 190 415 269 471 333 471 c 0
 414 471 465 433 465 313 c 2
 465 108 l 2
 465 53 471 24 506 15 c 1
EndSplineSet
Validated: 1
EndChar

StartChar: i
Encoding: 105 105 74
Width: 263
Flags: MW
HStem: 0 21G<39 225 39 39> 553 119<104.5 137.5>
VStem: 62 122 79 105<107 357 357 374>
LayerCount: 2
Fore
SplineSet
121 553 m 0xe0
 88 553 62 579 62 612 c 0
 62 645 88 672 121 672 c 0
 154 672 182 645 182 612 c 0
 182 579 154 553 121 553 c 0xe0
225 15 m 1
 225 0 l 1
 39 0 l 1
 39 15 l 1
 77 27 79 56 79 107 c 2
 79 357 l 2
 79 391 69 405 28 422 c 1
 28 437 l 1
 184 471 l 1
 184 107 l 2xd0
 184 52 189 25 225 15 c 1
EndSplineSet
Validated: 1
EndChar

StartChar: j
Encoding: 106 106 75
Width: 261
Flags: MW
HStem: -228 21G<8 8> 553 119<106 138.5>
VStem: 63 121 79 105<27 50 50 353 353 370>
LayerCount: 2
Fore
SplineSet
122 553 m 0xe0
 90 553 63 579 63 612 c 0
 63 646 90 672 122 672 c 0
 155 672 183 646 183 612 c 0
 183 579 155 553 122 553 c 0xe0
79 27 m 2
 79 353 l 2
 79 387 71 405 29 422 c 1
 29 437 l 1xe0
 184 471 l 1
 184 50 l 2
 184 -139 107 -203 8 -228 c 1
 8 -213 l 1xd0
 79 -193 79 9 79 27 c 2
EndSplineSet
Validated: 1
EndChar

StartChar: k
Encoding: 107 107 76
Width: 536
Flags: MW
HStem: 0 21G<20 207 20 20 373.5 408 408 523> 442 20G<298 532 532 532> 722 20G<166 166>
VStem: 60 106<107 634 634 651.5>
LayerCount: 2
Fore
SplineSet
523 15 m 1
 523 0 l 1
 408 0 l 2
 339 0 326 18 256 118 c 0
 233 151 190 208 190 208 c 1
 284 308 l 1
 284 308 430 450 298 447 c 1
 298 462 l 1
 532 462 l 1
 532 447 l 1
 500 446 420 439 273 268 c 1
 384 112 434 60 434 60 c 2
 465 19 503 16 523 15 c 1
207 15 m 1
 207 0 l 1
 20 0 l 1
 20 15 l 1
 58 26 60 56 60 107 c 2
 60 634 l 2
 60 669 51 684 10 695 c 1
 10 710 l 1
 166 742 l 1
 166 107 l 2
 166 52 171 24 207 15 c 1
EndSplineSet
Validated: 33
EndChar

StartChar: l
Encoding: 108 108 77
Width: 246
Flags: MW
HStem: 0 21G<33 220 33 33> 722 20G<179 179>
VStem: 73 106<107 634 634 651.5>
LayerCount: 2
Fore
SplineSet
220 15 m 1
 220 0 l 1
 33 0 l 1
 33 15 l 1
 71 26 73 56 73 107 c 2
 73 634 l 2
 73 669 64 684 23 695 c 1
 23 710 l 1
 179 742 l 1
 179 107 l 2
 179 52 184 24 220 15 c 1
EndSplineSet
Validated: 1
EndChar

StartChar: m
Encoding: 109 109 78
Width: 778
Flags: MW
HStem: 0 21G<21 207 21 21 295 482 295 295 569 756 569 569> 410 61
VStem: 60 106<106 326 368 370.5> 335 105<311 312 312 324 311 344> 609 106<107 312 312 315>
CounterMasks: 1 38
LayerCount: 2
Fore
SplineSet
756 15 m 1
 756 0 l 1
 569 0 l 1
 569 15 l 1
 607 26 609 56 609 107 c 2
 609 312 l 2
 609 376 581 410 527 410 c 0
 483 410 440 362 440 324 c 0
 440 320 440 316 440 311 c 2
 441 107 l 2
 441 52 446 24 482 15 c 1
 482 0 l 1
 295 0 l 1
 295 15 l 1
 333 26 335 56 335 107 c 2
 335 312 l 2
 335 376 308 410 254 410 c 0
 210 410 170 361 166 326 c 1
 166 106 l 2
 166 51 172 25 207 15 c 1
 207 0 l 1
 21 0 l 1
 21 15 l 1
 59 26 60 55 60 106 c 2
 60 353 l 2
 60 388 51 405 10 422 c 1
 10 437 l 1
 166 471 l 1
 166 368 l 1
 191 426 250 471 313 471 c 0
 383 471 426 439 439 364 c 1
 459 425 523 471 586 471 c 0
 666 471 715 436 715 315 c 2
 715 107 l 2
 715 52 720 24 756 15 c 1
EndSplineSet
Validated: 1
EndChar

StartChar: n
Encoding: 110 110 79
Width: 519
Flags: MW
HStem: 0 21G<21 207 21 21 312 499 312 312> 410 61
VStem: 60 106<106 326 365 375.5> 352 106<107 312 312 315>
LayerCount: 2
Fore
SplineSet
499 15 m 1
 499 0 l 1
 312 0 l 1
 312 15 l 1
 350 26 352 56 352 107 c 2
 352 312 l 2
 352 370 318 410 260 410 c 0
 215 410 170 364 166 326 c 1
 166 106 l 2
 166 51 172 25 207 15 c 1
 207 0 l 1
 21 0 l 1
 21 15 l 1
 59 26 60 55 60 106 c 2
 60 358 l 2
 60 393 51 405 10 422 c 1
 10 437 l 1
 166 471 l 1
 166 365 l 1
 188 425 263 471 326 471 c 0
 405 471 458 436 458 315 c 2
 458 107 l 2
 458 52 463 24 499 15 c 1
EndSplineSet
Validated: 1
EndChar

StartChar: o
Encoding: 111 111 80
Width: 548
Flags: MW
HStem: -9 21G<199 351.5> 451 20G<199 351.5>
VStem: 41 125<165.5 297> 384 126<165.5 297 165.5 321.5>
LayerCount: 2
Fore
SplineSet
384 231 m 0
 384 412 350 456 275 456 c 0
 201 456 166 412 166 231 c 0
 166 50 201 6 275 6 c 0
 350 6 384 50 384 231 c 0
510 231 m 0
 510 100 428 -9 275 -9 c 0
 123 -9 41 100 41 231 c 0
 41 363 123 471 275 471 c 0
 428 471 510 363 510 231 c 0
EndSplineSet
Validated: 1
Substitution2: "'sups' Superscript in Latin lookup 22 subtable" o.superior
Substitution2: "'sups' Superscript in Latin lookup 21 subtable" o.superior
Substitution2: "'sups' Superscript in Latin lookup 20 subtable" o.superior
Substitution2: "'sups' Superscript in Latin lookup 19 subtable" o.superior
Substitution2: "'sups' Superscript in Latin lookup 18 subtable" o.superior
Substitution2: "'sups' Superscript in Latin lookup 17 subtable" o.superior
Substitution2: "'sups' Superscript in Latin lookup 16 subtable" o.superior
Substitution2: "'ordn' Ordinals in Latin lookup 15 subtable" o.superior
Substitution2: "'ordn' Ordinals in Latin lookup 14 subtable" o.superior
Substitution2: "'ordn' Ordinals in Latin lookup 13 subtable" o.superior
Substitution2: "'ordn' Ordinals in Latin lookup 12 subtable" o.superior
Substitution2: "'ordn' Ordinals in Latin lookup 11 subtable" o.superior
Substitution2: "'ordn' Ordinals in Latin lookup 10 subtable" o.superior
Substitution2: "'ordn' Ordinals in Latin lookup 9 subtable" o.superior
Substitution2: "'aalt' Access All Alternates in Latin lookup 0 subtable" o.superior
EndChar

StartChar: p
Encoding: 112 112 81
Width: 579
Flags: MW
HStem: -265 21G<26 213 26 26> -9 21G<269 361.5> 437 34<297.5 322>
VStem: 66 106<-164 25 140 325> 410 123<148 295>
LayerCount: 2
Fore
SplineSet
410 215 m 0
 410 375 364 437 280 437 c 0
 217 437 178 389 172 325 c 1
 172 140 l 1
 179 44 234 6 291 6 c 0
 361 6 410 59 410 215 c 0
533 227 m 0
 533 69 430 -9 293 -9 c 0
 245 -9 203 4 172 25 c 1
 172 -164 l 2
 172 -219 177 -241 213 -250 c 1
 213 -265 l 1
 26 -265 l 1
 26 -250 l 1
 64 -239 66 -215 66 -164 c 2
 66 367 l 2
 66 402 57 411 16 422 c 1
 16 437 l 1
 172 471 l 1
 172 392 l 1
 203 448 273 471 322 471 c 0
 445 471 533 375 533 227 c 0
EndSplineSet
Validated: 1
EndChar

StartChar: q
Encoding: 113 113 82
Width: 571
Flags: MW
HStem: -265 21G<356 542 356 356> -9 24<248 282.5> 451 20G<221.5 315.5>
VStem: 50 115<170 317> 395 106<-164 46 46 46 132 303 303 303>
LayerCount: 2
Fore
SplineSet
395 132 m 2
 395 303 l 2
 393 413 341 456 283 456 c 0
 213 456 165 406 165 250 c 0
 165 90 206 15 290 15 c 0
 356 15 393 64 395 132 c 2
542 -250 m 1
 542 -265 l 1
 356 -265 l 1
 356 -250 l 1
 393 -239 395 -215 395 -164 c 2
 395 46 l 1
 360 7 303 -9 262 -9 c 0
 138 -9 50 90 50 238 c 0
 50 396 153 471 290 471 c 0
 341 471 387 457 419 432 c 1
 450 461 501 476 501 461 c 2
 501 -164 l 2
 501 -219 506 -241 542 -250 c 1
EndSplineSet
Validated: 33
EndChar

StartChar: r
Encoding: 114 114 83
Width: 397
Flags: MW
HStem: 0 21G<24 212 24 24>
VStem: 64 107<108 337 363 375>
LayerCount: 2
Fore
SplineSet
297 467 m 0
 317 472 348 468 366 451 c 0
 391 426 391 385 366 360 c 0
 341 335 301 334 274 359 c 0
 262 372 256 388 257 403 c 0
 259 417 205 400 171 337 c 1
 171 108 l 2
 171 52 176 25 212 15 c 1
 212 0 l 1
 24 0 l 1
 24 15 l 1
 62 27 64 56 64 108 c 2
 64 358 l 2
 64 392 55 407 14 422 c 1
 14 437 l 1
 171 471 l 1
 171 363 l 1
 216 438 265 459 297 467 c 0
EndSplineSet
Validated: 33
EndChar

StartChar: s
Encoding: 115 115 84
Width: 435
Flags: MW
HStem: -9 21G<164.5 273.5> 145 20G<47 62 62 62> 303 20G<347 362 347 347> 451 20G<147.5 255.5>
LayerCount: 2
Fore
SplineSet
358 43 m 1
 358 43 322 -9 225 -9 c 0
 104 -9 47 34 47 34 c 1
 47 165 l 1
 62 165 l 1
 73 112 101 6 225 6 c 0
 313 6 313 104 237 154 c 2
 136 215 l 2
 39 277 15 347 63 417 c 1
 63 417 97 471 198 471 c 0
 313 471 362 440 362 440 c 1
 362 323 l 1
 347 323 l 1
 337 370 307 456 198 456 c 0
 118 456 100 371 187 316 c 2
 288 253 l 2
 378 197 407 113 358 43 c 1
EndSplineSet
Validated: 33
EndChar

StartChar: t
Encoding: 116 116 85
Width: 335
Flags: MW
HStem: -9 60<153.5 265.5> 442 20G<17 70 70 70 176 295 295 295> 597 20G<176 176>
VStem: 70 106<144 147 147 447 462 600 600 600>
LayerCount: 2
Fore
SplineSet
311 90 m 1
 324 82 l 1
 307 37 254 -9 191 -9 c 0
 116 -9 70 23 70 144 c 2
 70 447 l 1
 20 447 l 1
 17 462 l 1
 70 462 l 1
 70 600 l 1
 176 617 l 1
 176 462 l 1
 295 462 l 1
 291 447 l 1
 176 447 l 1
 176 147 l 2
 176 79 202 51 251 51 c 0
 280 51 303 72 311 90 c 1
EndSplineSet
Validated: 1
EndChar

StartChar: u
Encoding: 117 117 86
Width: 543
Flags: MW
HStem: -9 61<168.5 290> 451 20G<177 177 472 472>
VStem: 72 105<143 146 146 362 362 393.5> 366 106<64 88 88 95 95 95 123 362 362 392.5>
LayerCount: 2
Fore
SplineSet
523 29 m 1
 523 15 l 1
 392 -8 l 2
 366 -12 366 9 366 9 c 1
 366 95 l 1
 345 40 271 -9 206 -9 c 0
 131 -9 72 21 72 143 c 2
 72 362 l 2
 72 425 74 431 16 437 c 1
 16 452 l 1
 177 471 l 1
 177 146 l 2
 177 80 213 52 271 52 c 0
 309 52 347 82 366 123 c 1
 366 362 l 2
 366 423 369 433 319 437 c 1
 319 452 l 1
 472 471 l 1
 472 88 l 2
 472 40 481 34 523 29 c 1
EndSplineSet
Validated: 33
EndChar

StartChar: v
Encoding: 118 118 87
Width: 518
Flags: MW
HStem: -9 21G<257 270 257 257> 442 20G<0 222 222 222 323 517 517 517>
LayerCount: 2
Fore
SplineSet
323 462 m 1
 517 462 l 1
 517 448 l 1
 487 448 450 446 392 306 c 2
 270 -9 l 1
 257 -9 l 1
 80 375 69 396 69 396 c 2
 45 447 18 447 0 448 c 1
 0 462 l 1
 222 462 l 1
 222 448 l 1
 161 448 197 375 197 375 c 1
 309 134 l 1
 375 305 l 1
 375 305 432 448 323 448 c 1
 323 462 l 1
EndSplineSet
Validated: 33
EndChar

StartChar: w
Encoding: 119 119 88
Width: 786
Flags: MW
HStem: -9 21G<266 280 266 266 533 546 533 533> 442 20G<19 233 233 233 288 503 503 503 590 777 777 777>
LayerCount: 2
Fore
SplineSet
590 462 m 1
 777 462 l 1
 777 448 l 1
 755 448 710 444 662 308 c 2
 546 -9 l 1
 533 -9 l 1
 393 304 l 1
 280 -9 l 1
 266 -9 l 1
 96 375 83 400 83 400 c 2
 61 445 35 447 19 448 c 1
 19 462 l 1
 233 462 l 1
 233 448 l 1
 175 448 207 385 207 385 c 1
 317 138 l 1
 385 324 l 1
 354 392 350 400 350 400 c 2
 328 445 304 447 288 448 c 1
 288 462 l 1
 503 462 l 1
 503 448 l 1
 439 448 474 384 474 384 c 1
 583 138 l 1
 646 313 l 1
 646 313 696 448 590 448 c 1
 590 462 l 1
EndSplineSet
Validated: 33
EndChar

StartChar: x
Encoding: 120 120 89
Width: 529
Flags: MW
HStem: 0 21G<15 229 15 15 299 522 299 299> 442 20G<9 230 230 230 286 506 506 506>
LayerCount: 2
Fore
SplineSet
432 61 m 2
 464 15 506 15 522 15 c 1
 522 0 l 1
 299 0 l 1
 299 15 l 1
 349 15 298 85 298 85 c 1
 231 186 l 1
 193 131 l 2
 171 98 118 15 229 15 c 1
 229 0 l 1
 15 0 l 1
 15 15 l 1
 37 15 86 12 182 143 c 2
 222 199 l 1
 83 405 l 1
 46 450 29 446 9 447 c 1
 9 462 l 1
 230 462 l 1
 230 447 l 1
 205 447 184 432 220 381 c 2
 283 286 l 1
 317 331 l 2
 333 357 394 447 286 447 c 1
 286 462 l 1
 506 462 l 1
 506 447 l 1
 481 446 427 454 326 319 c 2
 291 273 l 1
 432 61 l 2
EndSplineSet
Validated: 33
EndChar

StartChar: y
Encoding: 121 121 90
Width: 536
Flags: MW
HStem: 442 20G<9 230 230 230 325 520 520 520>
LayerCount: 2
Fore
SplineSet
325 462 m 1
 520 462 l 1
 520 448 l 1
 492 448 452 442 391 290 c 1
 237 -123 l 2
 213 -186 185 -212 168 -225 c 0
 152 -238 121 -244 100 -234 c 0
 69 -220 56 -184 69 -153 c 0
 83 -122 119 -108 150 -122 c 0
 166 -129 176 -143 180 -158 c 0
 184 -171 207 -161 222 -121 c 2
 264 -6 l 1
 173 197 76 403 76 403 c 2
 58 445 24 447 9 448 c 1
 9 462 l 1
 230 462 l 1
 230 448 l 1
 172 448 202 381 202 381 c 1
 317 135 l 1
 377 293 l 1
 377 293 441 449 325 448 c 1
 325 462 l 1
EndSplineSet
Validated: 33
EndChar

StartChar: z
Encoding: 122 122 91
Width: 448
Flags: MW
HStem: 0 21G<29 384 29 29> 132 20G<378 393 393 393> 310 20G<52 67 52 52> 442 20G<57 409 409 409>
LayerCount: 2
Fore
SplineSet
409 462 m 1
 164 15 l 1
 314 15 364 87 378 152 c 1
 393 152 l 1
 384 0 l 1
 29 0 l 1
 288 447 l 1
 154 447 86 410 67 330 c 1
 52 330 l 1
 57 462 l 1
 409 462 l 1
EndSplineSet
Validated: 1
EndChar

StartChar: braceleft
Encoding: 123 123 92
Width: 329
Flags: MW
HStem: -164 21G<272 272> 260 20G<116 116> 715 20G<272 272>
VStem: 128 80<3 120 120 147 451 568>
LayerCount: 2
Fore
SplineSet
272 -150 m 1
 272 -164 l 1
 193 -153 128 -112 128 3 c 2
 128 120 l 2
 128 268 87 264 49 273 c 1
 49 286 l 1
 86 297 128 293 128 451 c 2
 128 568 l 2
 128 683 193 724 272 735 c 1
 272 721 l 1
 231 706 208 672 208 568 c 2
 208 424 l 2
 208 314 146 280 86 280 c 1
 146 280 208 256 208 147 c 2
 208 3 l 2
 208 -101 231 -136 272 -150 c 1
EndSplineSet
Validated: 1
EndChar

StartChar: bar
Encoding: 124 124 93
Width: 214
Flags: MW
HStem: -164 21G<73 73 73 140> 715 20G<73 140 140 140>
VStem: 73 67<-164 735 -164 735>
LayerCount: 2
Fore
SplineSet
73 -164 m 1
 73 735 l 1
 140 735 l 1
 140 -164 l 1
 73 -164 l 1
EndSplineSet
Validated: 1
EndChar

StartChar: braceright
Encoding: 125 125 94
Width: 327
Flags: MW
HStem: -164 21G<53 53> 260 20G<209 209> 715 20G<53 53>
VStem: 117 80<3 120 424 451 451 568>
LayerCount: 2
Fore
SplineSet
53 -164 m 1
 53 -150 l 1
 94 -136 117 -101 117 3 c 2
 117 147 l 2
 117 256 179 280 239 280 c 1
 179 280 117 314 117 424 c 2
 117 568 l 2
 117 672 94 706 53 721 c 1
 53 735 l 1
 132 724 197 683 197 568 c 2
 197 451 l 2
 197 293 239 297 276 286 c 1
 276 273 l 1
 238 264 197 268 197 120 c 2
 197 3 l 2
 197 -112 132 -153 53 -164 c 1
EndSplineSet
Validated: 1
EndChar

StartChar: asciitilde
Encoding: 126 126 95
Width: 589
Flags: MW
HStem: 199 78 253 78
VStem: 61 470<206 325>
LayerCount: 2
Fore
SplineSet
343 204 m 1x60
 226 247 l 2
 192 259 100 257 74 201 c 1
 61 206 l 1x60
 127 369 252 326 252 326 c 1
 369 283 l 2
 403 270 493 275 519 330 c 1
 531 325 l 1xa0
 464 162 343 204 343 204 c 1x60
EndSplineSet
Validated: 33
EndChar

StartChar: exclamdown
Encoding: 161 161 98
Width: 302
Flags: MW
HStem: -175 21G<96 207 96 96> 336 20G<124 180 180 180> 436 133<134.5 171.5>
VStem: 86 133<484 521> 110 83
LayerCount: 2
Fore
SplineSet
124 356 m 1xe8
 180 356 l 1
 207 -175 l 1xf0
 96 -175 l 1
 124 356 l 1xe8
153 569 m 0
 190 569 219 539 219 503 c 0
 219 465 190 436 153 436 c 0
 116 436 86 465 86 503 c 0
 86 539 116 569 153 569 c 0
EndSplineSet
Validated: 1
EndChar

StartChar: cent
Encoding: 162 162 99
Width: 524
Flags: MW
HStem: -118 21G<308 326 308 308> 451 20G<308 308 326 368> 573 20G<308 326 326 326>
VStem: 75 110<189 288>
LayerCount: 2
Fore
SplineSet
185 246 m 0
 185 132 243 80 308 64 c 1
 308 455 l 1
 263 446 185 401 185 246 c 0
474 128 m 1
 486 121 l 1
 474 75 427 2 326 -9 c 1
 326 -118 l 1
 308 -118 l 1
 308 -9 l 1
 159 -8 75 101 75 231 c 0
 75 345 157 462 308 471 c 1
 308 593 l 1
 326 593 l 1
 326 471 l 1
 410 471 447 434 460 418 c 0
 472 404 479 380 470 360 c 0
 459 332 426 316 397 328 c 0
 368 339 354 372 366 400 c 0
 371 415 383 425 395 430 c 0
 404 433 379 456 326 456 c 1
 326 61 l 1
 387 56 454 92 474 128 c 1
EndSplineSet
Validated: 33
EndChar

StartChar: sterling
Encoding: 163 163 100
Width: 659
Flags: MW
HStem: -9 21G<136 177.5> 342 20G<100 194 100 100 332 332 332 503> 357 20G<100 187 187 187 323 503 503 503>
LayerCount: 2
Fore
SplineSet
283 84 m 1xc0
 247 107 218 124 188 136 c 0
 93 177 40 112 52 68 c 0
 69 7 127 6 140 6 c 0
 208 6 256 36 283 84 c 1xc0
251 169 m 1
 251 169 288 155 295 150 c 1
 297 189 280 228 249 277 c 0
 233 302 210 336 194 362 c 1
 100 362 l 1
 100 377 l 1
 187 377 l 1
 50 674 292 787 428 728 c 0xc0
 489 702 507 669 517 642 c 0
 524 622 517 595 499 577 c 0
 474 553 434 553 408 579 c 0
 383 604 385 645 410 669 c 0
 423 682 439 685 455 685 c 0
 471 684 448 707 423 715 c 0
 272 759 164 653 323 377 c 1
 503 377 l 1
 503 362 l 1
 332 362 l 1
 362 321 l 1xa0
 404 253 398 181 369 125 c 1
 386 113 452 91 452 91 c 1
 520 68 590 91 598 135 c 1
 613 132 l 1
 614 23 518 -5 508 -6 c 0
 451 -13 389 17 321 60 c 1
 275 4 214 -9 141 -9 c 0
 131 -9 58 -5 36 64 c 0
 21 111 60 234 251 169 c 1
EndSplineSet
Validated: 33
EndChar

StartChar: currency
Encoding: 164 164 101
Width: 588
Flags: MW
HStem: 73 21G<68 68 512 512> 109 73<267.5 312 267.5 315.5> 508 73<267.5 312> 597 20G<68 68 512 512>
VStem: 54 73<323 367 323 371> 452 73<323 367>
LayerCount: 2
Fore
SplineSet
175 460 m 0
 144 430 127 389 127 345 c 0
 127 301 144 260 175 230 c 0
 205 200 245 182 290 182 c 0
 334 182 375 200 404 230 c 0
 434 260 452 301 452 345 c 0
 452 389 434 430 405 460 c 0
 375 490 334 508 290 508 c 0
 245 508 205 490 175 460 c 0
479 205 m 1
 562 123 l 1
 512 73 l 1
 430 155 l 1
 391 126 341 109 290 109 c 0
 238 109 189 126 149 155 c 1
 68 73 l 1
 18 123 l 1
 100 205 l 1
 71 245 54 293 54 345 c 0
 54 397 71 446 100 485 c 1
 18 567 l 1
 68 617 l 1
 149 535 l 1
 189 565 238 581 290 581 c 0
 341 581 391 565 430 535 c 1
 512 617 l 1
 562 567 l 1
 479 485 l 1
 509 446 525 397 525 345 c 0
 525 293 509 245 479 205 c 1
EndSplineSet
Validated: 1
EndChar

StartChar: yen
Encoding: 165 165 102
Width: 661
Flags: MW
HStem: 0 237<193 273 393 473 193 193> 221 102<84 250 84 273 84 250 393 561> 287 20G<84 258 84 84 393 561 393 393> 684 20G<-24 263 263 263 406 685 685 685>
VStem: 273 120<116 221 79 221 237 282 282 282>
LayerCount: 2
Fore
SplineSet
406 689 m 1x58
 406 704 l 1
 685 704 l 1
 685 689 l 1
 650 689 575 688 464 469 c 1
 393 323 l 1
 561 323 l 1
 561 307 l 1
 393 307 l 1
 393 237 l 1
 561 237 l 1
 561 221 l 1
 393 221 l 1x58
 393 116 l 2
 393 42 431 15 473 15 c 1
 473 0 l 1
 193 0 l 1
 193 15 l 1xb8
 235 15 273 42 273 116 c 2
 273 221 l 1
 84 221 l 1
 84 237 l 1x58
 273 237 l 1
 273 282 l 1
 258 307 l 1
 84 307 l 1xb8
 84 323 l 1
 250 323 l 1x58
 121 549 81 611 81 611 c 2
 37 688 5 689 -24 690 c 1
 -24 704 l 1
 263 704 l 1xb8
 263 690 l 1
 239 690 172 691 240 576 c 2
 384 338 l 1
 455 484 l 2
 472 519 546 689 406 689 c 1x58
EndSplineSet
Validated: 33
EndChar

StartChar: brokenbar
Encoding: 166 166 103
Width: 212
Flags: MW
HStem: -191 21G<71 141 71 71> 166 20G<71 141 141 141> 340 20G<71 141 71 71> 715 20G<71 141 141 141>
VStem: 71 70<-191 186 -191 186 360 735>
LayerCount: 2
Fore
SplineSet
141 735 m 1
 141 360 l 1
 71 360 l 1
 71 735 l 1
 141 735 l 1
141 186 m 1
 141 -191 l 1
 71 -191 l 1
 71 186 l 1
 141 186 l 1
EndSplineSet
Validated: 1
EndChar

StartChar: section
Encoding: 167 167 104
Width: 545
Flags: MW
HStem: -253 15<230 230> -218 109 574 107 703 16
VStem: 55 56 107 72 112 114 322 113 362 84 440 55
LayerCount: 2
Fore
SplineSet
189 394 m 1x9840
 41 296 136 219 211 168 c 0
 254 140 322 98 331 92 c 0
 346 83 358 74 366 67 c 1
 510 170 411 246 336 296 c 0
 294 326 223 369 215 375 c 0
 204 383 194 390 189 394 c 1x9840
379 55 m 1
 424 14 454 -43 446 -109 c 0
 431 -257 293 -259 230 -253 c 0
 175 -248 134 -218 121 -197 c 0x9280
 111 -181 108 -156 119 -138 c 0
 134 -110 168 -101 197 -116 c 0
 224 -131 234 -166 218 -193 c 0xd240
 210 -207 196 -216 181 -218 c 0x9240
 173 -219 198 -234 229 -238 c 0
 300 -247 355 -213 362 -147 c 0
 369 -97 355 -59 287 -12 c 2
 161 71 l 2x9880
 47 147 -11 285 175 406 c 1
 123 453 100 507 107 574 c 0
 123 722 254 724 317 719 c 0
 372 714 413 683 426 662 c 0x95
 436 646 439 621 429 603 c 0
 413 575 379 566 351 581 c 0
 324 597 314 631 329 658 c 0xb9
 337 672 345 679 358 681 c 0
 367 683 352 699 320 703 c 0
 243 710 186 678 179 612 c 0
 173 562 192 522 261 476 c 2x95
 386 394 l 2
 502 319 561 173 379 55 c 1
EndSplineSet
Validated: 33
EndChar

StartChar: dieresis
Encoding: 168 168 105
Width: 263
Flags: MW
HStem: 593 105<30.5 59.5 204 233>
VStem: -8 105<630.5 659.5> 166 106<630.5 659.5>
LayerCount: 2
Fore
SplineSet
166 645 m 0
 166 674 190 698 218 698 c 0
 248 698 272 674 272 645 c 0
 272 616 248 593 218 593 c 0
 190 593 166 616 166 645 c 0
-8 645 m 0
 -8 674 16 698 45 698 c 0
 74 698 97 674 97 645 c 0
 97 616 74 593 45 593 c 0
 16 593 -8 616 -8 645 c 0
EndSplineSet
Validated: 1
EndChar

StartChar: copyright
Encoding: 169 169 106
Width: 808
Flags: MW
HStem: -4 63<318 487 318 505.5> -4 173<379 425.5 379 505.5> 135 20G<343 433> 256 20G<522 536 536 536> 548 193<378 424.5> 678 63<318 487>
VStem: 30 64<283.5 453 283.5 471> 207 87<299.5 418.5> 710 65<283.5 453>
LayerCount: 2
Fore
SplineSet
522 276 m 1x5b80
 536 276 l 1
 541 190 l 1
 499 162 463 155 403 155 c 0
 283 155 207 240 207 359 c 0
 207 478 283 562 403 562 c 0
 461 562 506 556 541 528 c 1
 536 442 l 1
 522 442 l 1
 510 536 446 548 403 548 c 0
 353 548 294 521 294 359 c 0
 294 195 355 169 403 169 c 0
 448 169 510 182 522 276 c 1x5b80
775 368 m 0
 775 163 608 -4 403 -4 c 0
 196 -4 30 163 30 368 c 0
 30 574 196 741 403 741 c 0
 608 741 775 574 775 368 c 0
710 368 m 0
 710 538 571 678 403 678 c 0
 233 678 94 538 94 368 c 0xbb80
 94 199 233 59 403 59 c 0
 571 59 710 199 710 368 c 0
EndSplineSet
Validated: 1
EndChar

StartChar: ordfeminine
Encoding: 170 170 107
Width: 300
Flags: MW
HStem: 453 29<99 99.5> 684 20G<132 163.5>
VStem: 21 56<514 532.5 514 534> 155 57<517 579 579 579 594 600 516 624 516 651>
LayerCount: 2
Fore
SplineSet
155 579 m 1
 100 566 77 547 77 518 c 0
 77 510 82 482 116 482 c 0
 138 482 152 503 155 517 c 0
 155 518 155 579 155 579 c 1
248 493 m 1
 259 489 l 1
 256 472 238 453 205 453 c 1
 205 453 160 453 156 492 c 1
 149 471 118 453 81 453 c 1
 81 453 21 453 21 506 c 0
 21 562 64 571 155 594 c 1
 155 624 l 2
 155 678 125 700 86 683 c 0
 69 676 67 668 70 668 c 0
 78 668 84 664 88 658 c 0
 96 646 92 630 81 621 c 0
 69 613 53 615 44 627 c 0
 38 635 38 647 42 655 c 0
 46 665 56 681 81 694 c 0
 105 706 132 704 132 704 c 1
 195 704 212 661 212 600 c 2
 212 516 l 1
 212 516 212 480 236 481 c 1
 236 481 246 481 248 493 c 1
EndSplineSet
Validated: 33
EndChar

StartChar: guillemotleft
Encoding: 171 171 108
Width: 610
Flags: MW
HStem: 33 21G<318 318 522 522> 485 20G<318 318 522 522>
LayerCount: 2
Fore
SplineSet
522 505 m 1
 522 472 l 1
 387 266 l 1
 522 65 l 1
 522 33 l 1
 291 266 l 1
 522 505 l 1
318 505 m 1
 318 472 l 1
 182 266 l 1
 318 65 l 1
 318 33 l 1
 87 266 l 1
 318 505 l 1
EndSplineSet
Validated: 1
EndChar

StartChar: logicalnot
Encoding: 172 172 109
Width: 648
Flags: MW
HStem: 80 21G<529 601 529 529> 323 71<41 529 41 601>
VStem: 529 72<80 323 323 323>
LayerCount: 2
Fore
SplineSet
41 394 m 1
 601 394 l 1
 601 80 l 1
 529 80 l 1
 529 323 l 1
 41 323 l 1
 41 394 l 1
EndSplineSet
Validated: 1
EndChar

StartChar: uni00AD
Encoding: 173 173 110
Width: 444
Flags: MW
HStem: 215 80<64 379 64 379>
LayerCount: 2
Fore
SplineSet
379 215 m 1
 64 215 l 1
 64 295 l 1
 379 295 l 1
 379 215 l 1
EndSplineSet
Validated: 1
EndChar

StartChar: registered
Encoding: 174 174 111
Width: 811
Flags: MW
HStem: -3 65<318 487.5 318 505.5> -3 199<376.5 388 249 505.5> 182 186<351 368 368 388 249 368> 334 20G<351 377 351 351> 549 193<249 505.5 351 368 351 351> 678 64<318 487.5>
VStem: 30 65<284.5 454 284.5 472> 286 65<253 354 368 510 510 527.5> 469 74<425 505.5 425 505.5> 710 65<284.5 454>
LayerCount: 2
Fore
SplineSet
469 460 m 0x5bc0
 469 551 423 549 368 549 c 2
 351 549 l 1
 351 368 l 1
 368 368 l 2
 425 368 469 368 469 460 c 0x5bc0
775 369 m 0xabc0
 775 164 608 -3 403 -3 c 0
 197 -3 30 164 30 369 c 0
 30 575 197 742 403 742 c 0
 608 742 775 575 775 369 c 0xabc0
710 369 m 0
 710 539 572 678 403 678 c 0x5bc0
 233 678 95 539 95 369 c 0
 95 200 233 62 403 62 c 0
 572 62 710 200 710 369 c 0
604 196 m 1
 604 182 l 1xabc0
 558 182 l 2
 476 183 486 183 453 300 c 0xa7c0
 437 356 377 354 377 354 c 1
 351 354 l 1x5bc0
 351 249 l 2
 351 211 365 196 388 196 c 1
 388 182 l 1
 249 182 l 1
 249 196 l 1
 273 196 286 211 286 253 c 2
 286 510 l 2
 286 545 273 549 249 549 c 1
 249 563 l 1
 368 563 l 2
 476 563 543 551 543 460 c 0
 543 390 501 367 440 361 c 1xabc0
 475 363 516 347 543 239 c 0
 553 198 589 196 604 196 c 1
EndSplineSet
Validated: 33
EndChar

StartChar: macron
Encoding: 175 175 112
Width: 360
Flags: MW
HStem: 591 60<-16 377 -16 377>
LayerCount: 2
Fore
SplineSet
377 591 m 1
 -16 591 l 1
 -16 651 l 1
 377 651 l 1
 377 591 l 1
EndSplineSet
Validated: 1
EndChar

StartChar: degree
Encoding: 176 176 113
Width: 381
Flags: MW
HStem: 478 35<161.5 213.5 161.5 222.5> 700 37<161.5 213.5>
VStem: 57 36<581 632.5 581 643> 281 36<581 632.5>
LayerCount: 2
Fore
SplineSet
93 607 m 0
 93 555 135 513 188 513 c 0
 239 513 281 555 281 607 c 0
 281 658 239 700 188 700 c 0
 135 700 93 658 93 607 c 0
57 607 m 0
 57 679 116 737 187 737 c 0
 258 737 317 679 317 607 c 0
 317 536 258 478 187 478 c 0
 116 478 57 536 57 607 c 0
EndSplineSet
Validated: 1
EndChar

StartChar: plusminus
Encoding: 177 177 114
Width: 608
Flags: MW
HStem: 0 71<41 560 41 560> 120 20G<264 335 264 264> 302 71<41 264 41 264 335 560> 515 20G<264 335 335 335>
VStem: 264 71<140 302 140 302 373 535>
LayerCount: 2
Fore
SplineSet
335 373 m 1
 560 373 l 1
 560 302 l 1
 335 302 l 1
 335 140 l 1
 264 140 l 1
 264 302 l 1
 41 302 l 1
 41 373 l 1
 264 373 l 1
 264 535 l 1
 335 535 l 1
 335 373 l 1
41 0 m 1
 41 71 l 1
 560 71 l 1
 560 0 l 1
 41 0 l 1
EndSplineSet
Validated: 1
EndChar

StartChar: twosuperior
Encoding: 178 178 115
Width: 266
Flags: MW
HStem: 379 50<81 164 164 171.5 81 199> 684 20G<119 142>
LayerCount: 2
Fore
SplineSet
206 454 m 1
 219 454 l 1
 199 379 l 1
 31 379 l 1
 134 531 l 1
 213 656 70 699 44 616 c 1
 30 619 l 1
 37 706 119 704 119 704 c 1
 165 704 198 670 198 629 c 0
 198 599 182 572 147 525 c 0
 124 495 81 429 81 429 c 1
 164 429 l 2
 179 429 196 437 206 454 c 1
EndSplineSet
Validated: 33
EndChar

StartChar: threesuperior
Encoding: 179 179 116
Width: 271
Flags: MW
HStem: 367 20G<105 144> 373 21G<105.5 143.5> 684 20G<123 158.5>
LayerCount: 2
Fore
SplineSet
231 480 m 0xa0
 234 399 164 373 123 373 c 0x60
 88 373 62 385 45 399 c 0
 37 406 34 419 37 430 c 0
 41 446 58 455 74 451 c 0
 90 446 99 429 95 413 c 0
 92 405 88 399 81 396 c 0
 76 395 87 387 123 387 c 0
 165 387 187 422 181 464 c 0
 178 485 164 527 95 534 c 1
 95 549 l 1
 168 566 171 628 137 655 c 0
 111 676 68 667 55 628 c 1
 40 630 l 1
 47 704 122 704 124 704 c 0
 193 704 243 618 163 557 c 1
 208 544 229 510 231 480 c 0xa0
EndSplineSet
Validated: 33
EndChar

StartChar: acute
Encoding: 180 180 117
Width: 360
Flags: MW
HStem: 558 21G<87 87 87 116> 701 20G<260 260>
LayerCount: 2
Fore
SplineSet
87 558 m 1
 260 721 l 1
 356 692 l 1
 116 558 l 1
 87 558 l 1
EndSplineSet
Validated: 1
EndChar

StartChar: mu
Encoding: 181 181 118
Width: 539
Flags: MW
HStem: 451 20G<172 172 467 467>
VStem: 67 105<-187.5 -163 -163 -2 142 362 362 393> 361 106<63 87 87 95 95 95 123 362 362 392.5>
LayerCount: 2
Fore
SplineSet
518 29 m 1
 518 14 l 1
 387 -8 l 2
 361 -13 361 9 361 9 c 1
 361 95 l 1
 339 34 250 -23 172 -2 c 1
 172 -163 l 2
 172 -212 182 -223 224 -227 c 1
 224 -242 l 1
 94 -264 l 2
 67 -269 67 -247 67 -247 c 1
 67 362 l 2
 67 424 69 431 11 437 c 1
 11 452 l 1
 172 471 l 1
 172 142 l 2
 174 79 208 52 266 52 c 0
 304 52 342 82 361 123 c 1
 361 362 l 2
 361 423 364 433 314 437 c 1
 314 452 l 1
 467 471 l 1
 467 87 l 2
 467 39 476 34 518 29 c 1
EndSplineSet
Validated: 33
EndChar

StartChar: paragraph
Encoding: 182 182 119
Width: 643
Flags: MW
HStem: -265 21G<163 352 163 163 418 557 418 418> 280 20G<219 287> 684 20G<287 288 288 352 352 352 418 564 564 564>
VStem: 287 65<-123 300 300 300 -265 704> 418 64<-153 -114 -114 559>
LayerCount: 2
Fore
SplineSet
482 559 m 2
 482 -114 l 2
 482 -192 509 -250 557 -250 c 1
 557 -265 l 1
 418 -265 l 1
 418 704 l 1
 564 704 l 1
 564 689 l 1
 514 689 482 629 482 559 c 2
288 704 m 1
 352 704 l 1
 352 -265 l 1
 163 -265 l 1
 163 -250 l 1
 211 -250 287 -233 287 -123 c 2
 287 300 l 1
 151 300 37 334 37 500 c 0
 37 665 167 703 287 704 c 2
 288 704 l 1
EndSplineSet
Validated: 1
EndChar

StartChar: periodcentered
Encoding: 183 183 120
Width: 260
Flags: MW
HStem: 246 106<117 146.5>
VStem: 78 107<284.5 313.5>
LayerCount: 2
Fore
SplineSet
132 246 m 0
 102 246 78 270 78 299 c 0
 78 328 102 352 132 352 c 0
 161 352 185 328 185 299 c 0
 185 270 161 246 132 246 c 0
EndSplineSet
Validated: 1
EndChar

StartChar: cedilla
Encoding: 184 184 121
Width: 272
Flags: MW
HStem: -230 21G<113 148.5> -24 20G<116 131 131 131>
LayerCount: 2
Fore
SplineSet
116 -4 m 1
 131 -4 l 1
 110 -64 l 1
 202 -43 242 -97 236 -148 c 0
 227 -217 165 -230 132 -230 c 0
 94 -230 71 -215 64 -209 c 0
 57 -203 53 -191 56 -181 c 0
 60 -166 76 -158 90 -162 c 0
 105 -167 114 -181 110 -196 c 0
 108 -203 105 -206 101 -208 c 0
 99 -210 104 -217 132 -217 c 0
 165 -217 187 -195 187 -161 c 0
 187 -139 165 -77 85 -92 c 1
 116 -4 l 1
EndSplineSet
Validated: 33
EndChar

StartChar: onesuperior
Encoding: 185 185 122
Width: 221
Flags: MW
HStem: 375 20G<45 55 169 177> 380 21G<45 177 45 45> 685 20G<124 139 139 139>
VStem: 88 51<433 619 619 636>
LayerCount: 2
Fore
SplineSet
139 433 m 2xb0
 139 398 161 395 177 395 c 1xb0
 177 380 l 1
 45 380 l 1x70
 45 395 l 1
 65 395 88 399 88 433 c 2
 88 619 l 2
 88 653 57 635 50 629 c 1
 39 644 l 1
 124 705 l 1
 139 705 l 1
 139 433 l 2xb0
EndSplineSet
Validated: 33
EndChar

StartChar: ordmasculine
Encoding: 186 186 123
Width: 327
Flags: MW
HStem: 368 20G<143.5 181> 373 21G<110.5 213.5> 687 20G<110.5 213.5>
VStem: 33 62<494 580.5> 228 62<494 580.5 494 601.5>
LayerCount: 2
Fore
SplineSet
162 388 m 0xb8
 200 388 228 409 228 537 c 0
 228 666 198 692 162 692 c 0
 125 692 95 666 95 537 c 0
 95 409 125 388 162 388 c 0xb8
162 707 m 0
 265 707 290 624 290 537 c 0
 290 451 265 373 162 373 c 0x78
 59 373 33 451 33 537 c 0
 33 624 59 707 162 707 c 0
EndSplineSet
Validated: 1
EndChar

StartChar: guillemotright
Encoding: 187 187 124
Width: 609
Flags: MW
HStem: 33 21G<84 84 288 288> 485 20G<84 84 288 288>
LayerCount: 2
Fore
SplineSet
84 472 m 1
 84 505 l 1
 315 266 l 1
 84 33 l 1
 84 65 l 1
 219 266 l 1
 84 472 l 1
288 472 m 1
 288 505 l 1
 519 266 l 1
 288 33 l 1
 288 65 l 1
 424 266 l 1
 288 472 l 1
EndSplineSet
Validated: 1
EndChar

StartChar: onequarter
Encoding: 188 188 125
Width: 642
Flags: MW
HStem: 0 136<412 453 517 558 412 412> 105 31<380 453 380 453 517 569> 355 20G<85 222 85 85> 369 20G<85 95.5 213.5 222> 688 20G<570 628 628 628> 726 20G<166 183 183 183>
VStem: 129 54<429 656 656 674> 453 64<73 75 75 105 45 105 136 280 280 280>
LayerCount: 2
Fore
SplineSet
453 136 m 1x9f
 453 280 l 1
 373 161 l 2
 357 136 368 136 380 136 c 2
 453 136 l 1x9f
570 708 m 1
 628 708 l 1
 71 36 l 1
 14 36 l 1x5f
 570 708 l 1
222 389 m 1
 222 375 l 1
 85 375 l 1x5f
 85 389 l 1
 106 389 129 391 129 429 c 2
 129 656 l 2
 129 692 97 671 87 663 c 1x9f
 78 676 l 1
 166 746 l 1
 183 746 l 1
 183 429 l 2
 183 389 205 389 222 389 c 1
569 105 m 1
 517 105 l 1
 517 75 l 2
 517 15 536 14 558 14 c 1
 558 0 l 1
 412 0 l 1x9f
 412 14 l 1
 433 14 453 16 453 73 c 2xaf
 453 105 l 1
 323 105 l 1
 323 113 l 1
 493 367 l 1
 517 364 l 1
 517 136 l 1
 569 136 l 1
 569 105 l 1
EndSplineSet
Validated: 33
Ligature2: "'frac' Diagonal Fractions in Latin lookup 8 subtable" one uni2215 four
Ligature2: "'frac' Diagonal Fractions in Latin lookup 8 subtable" one fraction four
Ligature2: "'frac' Diagonal Fractions in Latin lookup 8 subtable" one slash four
Ligature2: "'frac' Diagonal Fractions in Latin lookup 7 subtable" one uni2215 four
Ligature2: "'frac' Diagonal Fractions in Latin lookup 7 subtable" one fraction four
Ligature2: "'frac' Diagonal Fractions in Latin lookup 7 subtable" one slash four
Ligature2: "'frac' Diagonal Fractions in Latin lookup 6 subtable" one uni2215 four
Ligature2: "'frac' Diagonal Fractions in Latin lookup 6 subtable" one fraction four
Ligature2: "'frac' Diagonal Fractions in Latin lookup 6 subtable" one slash four
Ligature2: "'frac' Diagonal Fractions in Latin lookup 5 subtable" one uni2215 four
Ligature2: "'frac' Diagonal Fractions in Latin lookup 5 subtable" one fraction four
Ligature2: "'frac' Diagonal Fractions in Latin lookup 5 subtable" one slash four
Ligature2: "'frac' Diagonal Fractions in Latin lookup 4 subtable" one uni2215 four
Ligature2: "'frac' Diagonal Fractions in Latin lookup 4 subtable" one fraction four
Ligature2: "'frac' Diagonal Fractions in Latin lookup 4 subtable" one slash four
Ligature2: "'frac' Diagonal Fractions in Latin lookup 3 subtable" one uni2215 four
Ligature2: "'frac' Diagonal Fractions in Latin lookup 3 subtable" one fraction four
Ligature2: "'frac' Diagonal Fractions in Latin lookup 3 subtable" one slash four
Ligature2: "'frac' Diagonal Fractions in Latin lookup 2 subtable" one uni2215 four
Ligature2: "'frac' Diagonal Fractions in Latin lookup 2 subtable" one fraction four
Ligature2: "'frac' Diagonal Fractions in Latin lookup 2 subtable" one slash four
EndChar

StartChar: onehalf
Encoding: 189 189 126
Width: 647
Flags: MW
HStem: 0 57<446 542 542 550.5 446 583 392 542> 352 20G<492 518.5> 355 20G<85 222 85 85> 369 20G<85 95.5 213.5 222> 688 20G<570 628 628 628> 726 20G<166 183 183 183>
VStem: 129 54<429 656 656 674> 393 188<274 274>
LayerCount: 2
Fore
SplineSet
593 86 m 1xaf
 607 86 l 1
 583 0 l 1
 392 0 l 1
 508 174 l 1
 598 317 436 364 407 270 c 1
 393 274 l 1
 401 374 492 372 492 372 c 1
 545 372 581 332 581 285 c 0
 581 251 562 220 521 167 c 0
 496 133 446 57 446 57 c 1x9f
 542 57 l 2
 559 57 582 66 593 86 c 1xaf
570 708 m 1
 628 708 l 1
 71 36 l 1
 14 36 l 1
 570 708 l 1
222 389 m 1
 222 375 l 1
 85 375 l 1
 85 389 l 1
 106 389 129 391 129 429 c 2
 129 656 l 2xcf
 129 692 97 671 87 663 c 1
 78 676 l 1
 166 746 l 1
 183 746 l 1
 183 429 l 2
 183 389 205 389 222 389 c 1
EndSplineSet
Validated: 33
Ligature2: "'frac' Diagonal Fractions in Latin lookup 8 subtable" one uni2215 two
Ligature2: "'frac' Diagonal Fractions in Latin lookup 8 subtable" one fraction two
Ligature2: "'frac' Diagonal Fractions in Latin lookup 8 subtable" one slash two
Ligature2: "'frac' Diagonal Fractions in Latin lookup 7 subtable" one uni2215 two
Ligature2: "'frac' Diagonal Fractions in Latin lookup 7 subtable" one fraction two
Ligature2: "'frac' Diagonal Fractions in Latin lookup 7 subtable" one slash two
Ligature2: "'frac' Diagonal Fractions in Latin lookup 6 subtable" one uni2215 two
Ligature2: "'frac' Diagonal Fractions in Latin lookup 6 subtable" one fraction two
Ligature2: "'frac' Diagonal Fractions in Latin lookup 6 subtable" one slash two
Ligature2: "'frac' Diagonal Fractions in Latin lookup 5 subtable" one uni2215 two
Ligature2: "'frac' Diagonal Fractions in Latin lookup 5 subtable" one fraction two
Ligature2: "'frac' Diagonal Fractions in Latin lookup 5 subtable" one slash two
Ligature2: "'frac' Diagonal Fractions in Latin lookup 4 subtable" one uni2215 two
Ligature2: "'frac' Diagonal Fractions in Latin lookup 4 subtable" one fraction two
Ligature2: "'frac' Diagonal Fractions in Latin lookup 4 subtable" one slash two
Ligature2: "'frac' Diagonal Fractions in Latin lookup 3 subtable" one uni2215 two
Ligature2: "'frac' Diagonal Fractions in Latin lookup 3 subtable" one fraction two
Ligature2: "'frac' Diagonal Fractions in Latin lookup 3 subtable" one slash two
Ligature2: "'frac' Diagonal Fractions in Latin lookup 2 subtable" one uni2215 two
Ligature2: "'frac' Diagonal Fractions in Latin lookup 2 subtable" one fraction two
Ligature2: "'frac' Diagonal Fractions in Latin lookup 2 subtable" one slash two
EndChar

StartChar: threequarters
Encoding: 190 190 127
Width: 643
Flags: MW
HStem: 0 136<412 453 517 558 412 412> 105 31<380 453 380 453 517 569> 352 20G<126.5 170> 366 20G<126.5 173.5> 688 20G<570 628 628 628> 726 20G<145 185.5>
VStem: 453 64<73 75 75 105 45 105 136 280 280 280>
LayerCount: 2
Fore
SplineSet
453 136 m 1xae
 453 280 l 1
 373 161 l 2
 357 136 368 136 380 136 c 2
 453 136 l 1xae
570 708 m 1
 628 708 l 1
 71 36 l 1
 14 36 l 1x6e
 570 708 l 1
147 372 m 0
 106 372 77 385 58 401 c 0
 49 409 45 424 48 435 c 0x6e
 53 454 73 465 90 459 c 0
 109 454 121 434 114 416 c 0
 111 407 107 402 101 399 c 0
 96 398 106 386 147 386 c 0xae
 200 386 217 426 211 475 c 0
 208 500 193 551 114 558 c 1
 114 571 l 1
 196 591 199 661 162 691 c 0
 133 713 83 702 69 658 c 1
 54 663 l 1
 61 746 144 746 146 746 c 0
 225 746 281 650 189 582 c 1
 240 569 266 527 268 493 c 0
 271 398 193 372 147 372 c 0
569 105 m 1
 517 105 l 1xae
 517 75 l 2
 517 15 536 14 558 14 c 1
 558 0 l 1
 412 0 l 1
 412 14 l 1
 433 14 453 16 453 73 c 2x9e
 453 105 l 1
 323 105 l 1
 323 113 l 1
 493 367 l 1
 517 364 l 1
 517 136 l 1
 569 136 l 1
 569 105 l 1
EndSplineSet
Validated: 33
Ligature2: "'frac' Diagonal Fractions in Latin lookup 8 subtable" three uni2215 four
Ligature2: "'frac' Diagonal Fractions in Latin lookup 8 subtable" three fraction four
Ligature2: "'frac' Diagonal Fractions in Latin lookup 8 subtable" three slash four
Ligature2: "'frac' Diagonal Fractions in Latin lookup 7 subtable" three uni2215 four
Ligature2: "'frac' Diagonal Fractions in Latin lookup 7 subtable" three fraction four
Ligature2: "'frac' Diagonal Fractions in Latin lookup 7 subtable" three slash four
Ligature2: "'frac' Diagonal Fractions in Latin lookup 6 subtable" three uni2215 four
Ligature2: "'frac' Diagonal Fractions in Latin lookup 6 subtable" three fraction four
Ligature2: "'frac' Diagonal Fractions in Latin lookup 6 subtable" three slash four
Ligature2: "'frac' Diagonal Fractions in Latin lookup 5 subtable" three uni2215 four
Ligature2: "'frac' Diagonal Fractions in Latin lookup 5 subtable" three fraction four
Ligature2: "'frac' Diagonal Fractions in Latin lookup 5 subtable" three slash four
Ligature2: "'frac' Diagonal Fractions in Latin lookup 4 subtable" three uni2215 four
Ligature2: "'frac' Diagonal Fractions in Latin lookup 4 subtable" three fraction four
Ligature2: "'frac' Diagonal Fractions in Latin lookup 4 subtable" three slash four
Ligature2: "'frac' Diagonal Fractions in Latin lookup 3 subtable" three uni2215 four
Ligature2: "'frac' Diagonal Fractions in Latin lookup 3 subtable" three fraction four
Ligature2: "'frac' Diagonal Fractions in Latin lookup 3 subtable" three slash four
Ligature2: "'frac' Diagonal Fractions in Latin lookup 2 subtable" three uni2215 four
Ligature2: "'frac' Diagonal Fractions in Latin lookup 2 subtable" three fraction four
Ligature2: "'frac' Diagonal Fractions in Latin lookup 2 subtable" three slash four
EndChar

StartChar: questiondown
Encoding: 191 191 128
Width: 596
Flags: MW
HStem: 326 148<305.5 346.5>
VStem: 252 148<378.5 420>
LayerCount: 2
Fore
SplineSet
252 399 m 0
 252 441 285 474 326 474 c 0
 367 474 400 441 400 399 c 0
 400 358 367 326 326 326 c 0
 285 326 252 358 252 399 c 0
249 124 m 0
 302 141 330 188 325 248 c 1
 348 251 l 1
 354 212 359 147 295 93 c 0
 249 54 218 9 227 -96 c 0
 239 -230 348 -257 431 -224 c 0
 468 -209 460 -183 450 -182 c 0
 435 -180 422 -171 413 -158 c 0
 394 -131 401 -92 427 -73 c 0
 453 -54 492 -63 511 -90 c 0
 525 -109 523 -132 518 -152 c 0
 512 -174 485 -216 436 -237 c 0
 276 -309 108 -235 101 -100 c 0
 94 46 193 105 249 124 c 0
EndSplineSet
Validated: 33
EndChar

StartChar: Acircumflex
Encoding: 194 194 131
Width: 698
Flags: MW
HStem: 0 220<172 251 251 251 172 683> 185 20G<169 417 417 417> 684 20G<336 349 336 336> 735 20 901 21
LayerCount: 2
Fore
SplineSet
411 220 m 1xa0
 172 220 l 1
 287 532 l 1
 411 220 l 1xa0
683 15 m 1
 656 17 633 12 600 92 c 2
 600 92 533 263 349 704 c 1
 336 704 l 1
 165 248 l 1
 73 15 48 16 16 15 c 1xa0
 16 0 l 1
 251 0 l 1
 251 15 l 1
 102 9 155 165 169 205 c 1x60
 417 205 l 1
 449 125 l 2
 461 97 492 15 426 15 c 1
 426 0 l 1
 683 0 l 1
 683 15 l 1
462 735 m 1x18
 344 824 l 1
 225 735 l 1
 195 735 l 1
 344 922 l 1
 493 735 l 1
 462 735 l 1x18
EndSplineSet
Validated: 41
EndChar

StartChar: Atilde
Encoding: 195 195 132
Width: 698
Flags: MW
HStem: 0 220<172 251 16 411 172 683 172 426> 185 20G<169 417 169 169> 684 20G<336 349 349 349>
LayerCount: 2
Fore
SplineSet
389 758 m 1xa0
 272 802 l 2
 238 813 149 811 122 755 c 1
 110 760 l 1
 176 923 298 881 298 881 c 1
 415 838 l 2
 449 825 540 832 565 887 c 1
 577 880 l 1
 511 717 389 758 389 758 c 1xa0
172 220 m 1
 411 220 l 1
 287 532 l 1x60
 172 220 l 1
683 15 m 1
 683 0 l 1
 426 0 l 1xa0
 426 15 l 1
 492 15 461 97 449 125 c 2
 417 205 l 1
 169 205 l 1
 155 165 102 9 251 15 c 1
 251 0 l 1
 16 0 l 1
 16 15 l 1
 48 16 73 15 165 248 c 1
 336 704 l 1
 349 704 l 1
 533 263 600 92 600 92 c 2
 633 12 656 17 683 15 c 1
EndSplineSet
Validated: 33
EndChar

StartChar: Adieresis
Encoding: 196 196 133
Width: 698
Flags: MW
HStem: 0 220<172 251 16 411 172 683 172 426> 185 20G<169 417 169 169> 684 20G<336 349 349 349> 778 105<242 271 415.5 444.5>
VStem: 204 105<815.5 844.5> 378 106<815.5 844.5>
LayerCount: 2
Fore
SplineSet
378 830 m 0x1c
 378 859 401 883 430 883 c 0
 459 883 484 859 484 830 c 0
 484 801 459 778 430 778 c 0
 401 778 378 801 378 830 c 0x1c
204 830 m 0
 204 859 228 883 256 883 c 0
 286 883 309 859 309 830 c 0
 309 801 286 778 256 778 c 0
 228 778 204 801 204 830 c 0
172 220 m 1
 411 220 l 1xa0
 287 532 l 1
 172 220 l 1
683 15 m 1
 683 0 l 1
 426 0 l 1
 426 15 l 1
 492 15 461 97 449 125 c 2
 417 205 l 1
 169 205 l 1xa0
 155 165 102 9 251 15 c 1
 251 0 l 1
 16 0 l 1
 16 15 l 1x60
 48 16 73 15 165 248 c 1
 336 704 l 1
 349 704 l 1
 533 263 600 92 600 92 c 2
 633 12 656 17 683 15 c 1
EndSplineSet
Validated: 33
EndChar

StartChar: Aring
Encoding: 197 197 134
Width: 698
Flags: MW
HStem: 0 220<172 251 16 411 172 683 172 426> 185 20G<169 417 169 169> 684 20G<336 349 349 349> 778 40<326 360.5 326 371.5> 943 40<326 360.5>
VStem: 242 39<863 897.5 863 908> 406 40<863 897.5>
LayerCount: 2
Fore
SplineSet
281 880 m 0x1e
 281 846 309 818 343 818 c 0
 378 818 406 846 406 880 c 0
 406 915 378 943 343 943 c 0
 309 943 281 915 281 880 c 0x1e
242 880 m 0
 242 936 287 983 343 983 c 0
 400 983 446 936 446 880 c 0
 446 824 400 778 343 778 c 0
 287 778 242 824 242 880 c 0
172 220 m 1
 411 220 l 1xa0
 287 532 l 1
 172 220 l 1
683 15 m 1
 683 0 l 1
 426 0 l 1
 426 15 l 1
 492 15 461 97 449 125 c 2
 417 205 l 1
 169 205 l 1xa0
 155 165 102 9 251 15 c 1
 251 0 l 1
 16 0 l 1
 16 15 l 1x60
 48 16 73 15 165 248 c 1
 336 704 l 1
 349 704 l 1
 533 263 600 92 600 92 c 2
 633 12 656 17 683 15 c 1
EndSplineSet
Validated: 33
EndChar

StartChar: AE
Encoding: 198 198 135
Width: 970
Flags: MW
HStem: 0 21G<10 253 10 10 379 906 379 379> 192 20G<892 906 906 906> 219 20G<229 449 229 229> 225 20G<754 769 754 754> 234 20G<235 449 449 449> 327 20G<573 619 573 573> 342 20G<573 619 619 625.5> 444 20G<754 769 769 769> 684 20G<367 893 893 893>
VStem: 449 124<127 239 239 239 254 347 362 582 582 589.5>
LayerCount: 2
Fore
SplineSet
235 254 m 1xcdc0
 449 254 l 1
 449 582 l 2
 449 597 448 617 446 628 c 1
 235 254 l 1xcdc0
892 212 m 1
 906 212 l 1
 906 0 l 1
 379 0 l 1
 379 15 l 1
 422 15 449 32 449 127 c 2
 449 239 l 1
 229 239 l 1xe5c0
 113 25 193 15 253 15 c 1
 253 0 l 1
 10 0 l 1
 10 15 l 1
 42 17 93 38 225 270 c 2
 439 651 l 1
 425 687 397 689 367 689 c 1
 367 704 l 1
 893 704 l 1
 893 519 l 1
 878 519 l 1
 861 689 654 689 614 689 c 2
 573 689 l 1
 573 362 l 1
 619 362 l 2
 632 362 746 359 754 464 c 1
 769 464 l 1
 769 245 l 1
 754 245 l 1xd3c0
 746 350 632 347 619 347 c 2
 573 347 l 1
 573 15 l 1
 609 15 l 2
 654 15 862 13 892 212 c 1
EndSplineSet
Validated: 33
EndChar

StartChar: Ccedilla
Encoding: 199 199 136
Width: 681
Flags: MW
HStem: -231 237<372 407.5> -9 21G<373 373 388 441.5> 189 20G<610 625 625 625> 693 20G<282.5 439.5>
VStem: 41 154<249 458>
LayerCount: 2
Fore
SplineSet
373 -9 m 1x78
 171 -3 41 146 41 352 c 0
 41 564 177 713 388 713 c 0
 491 713 575 703 638 652 c 1
 625 496 l 1
 610 496 l 1
 568 646 485 698 388 698 c 0
 280 698 195 640 195 352 c 0
 195 61 283 6 388 6 c 0xb8
 488 6 591 78 610 209 c 1
 625 209 l 1
 638 53 l 1
 564 4 495 -9 388 -9 c 1x78
 369 -65 l 1
 461 -44 501 -98 495 -149 c 0
 486 -218 424 -231 391 -231 c 0xb8
 353 -231 330 -216 323 -210 c 0
 316 -204 312 -192 315 -182 c 0
 319 -167 335 -159 349 -163 c 0
 364 -168 372 -182 369 -197 c 0
 367 -204 364 -207 360 -209 c 0
 358 -211 363 -219 391 -218 c 0
 424 -218 447 -196 446 -162 c 0
 446 -140 424 -78 344 -93 c 1
 373 -9 l 1x78
EndSplineSet
Validated: 33
EndChar

StartChar: Eacute
Encoding: 201 201 138
Width: 625
Flags: MW
HStem: 0 21G<29 562 29 29> 193 20G<547 562 562 562> 198 20G 223 20G 225 20G<410 425 410 410> 328 20G<209 259 209 209> 330 20G 343 20G<209 259 259 266> 445 20G<410 425 425 425> 684 20G<29 549 549 549> 735 21G<148 148 148 177> 878 20G<321 321> 936 20G
VStem: 80 145 85 124<127 348 363 582 582 613>
LayerCount: 2
Fore
SplineSet
547 213 m 1xb24c
 562 213 l 1xc9c2
 562 0 l 1
 29 0 l 1
 29 15 l 1
 71 15 85 59 85 127 c 2
 85 582 l 2
 85 644 73 689 29 689 c 1
 29 704 l 1
 549 704 l 1
 549 519 l 1xccc2
 534 519 l 1
 517 688 295 689 254 689 c 2
 209 689 l 1
 209 363 l 1
 259 363 l 2
 273 363 402 363 410 465 c 1
 425 465 l 1
 425 245 l 1
 410 245 l 1
 402 348 272 348 259 348 c 2
 209 348 l 1
 209 15 l 1
 250 15 l 2
 294 15 515 13 547 213 c 1xb24c
148 735 m 1
 321 898 l 1x0030
 417 869 l 1
 177 735 l 1
 148 735 l 1
EndSplineSet
Validated: 33
EndChar

StartChar: Ecircumflex
Encoding: 202 202 139
Width: 625
Flags: MW
HStem: 0 21G<29 562 562 562> 193 20G<547 562 547 547> 198 20G 223 20G 225 20G<410 425 425 425> 328 20G<209 259 259 265.5> 330 20G 343 20G<209 259 209 209> 445 20G<410 425 410 410> 684 20G<29 549 29 29> 704 83 735 20 901 21 955 20G
VStem: 80 145 85 124<93 127 127 348 363 582>
LayerCount: 2
Fore
SplineSet
562 213 m 1xccc1
 547 213 l 1
 515 13 294 15 250 15 c 2
 209 15 l 1
 209 348 l 1
 259 348 l 2
 272 348 402 348 410 245 c 1
 425 245 l 1
 425 465 l 1
 410 465 l 1
 402 363 273 363 259 363 c 2
 209 363 l 1
 209 689 l 1
 254 689 l 2
 295 689 517 688 534 519 c 1
 549 519 l 1xc9c1
 549 704 l 1
 29 704 l 1
 29 689 l 1
 73 689 85 644 85 582 c 2
 85 127 l 2
 85 59 71 15 29 15 c 1
 29 0 l 1
 562 0 l 1
 562 213 l 1xccc1
410 735 m 1x0018
 292 824 l 1
 173 735 l 1
 143 735 l 1
 292 922 l 1
 441 735 l 1
 410 735 l 1x0018
EndSplineSet
Validated: 41
EndChar

StartChar: Edieresis
Encoding: 203 203 140
Width: 625
Flags: MW
HStem: 0 21G<29 562 29 29> 193 20G<547 562 562 562> 225 20G<410 425 410 410> 328 20G<209 259 209 209> 343 20G<209 259 259 266> 445 20G<410 425 425 425> 684 20G<29 549 549 549> 778 105<192.5 221.5 366.5 395.5>
VStem: 85 124<127 348 363 582 582 613> 154 106<815.5 844.5> 328 106<815.5 844.5>
LayerCount: 2
Fore
SplineSet
328 830 m 0x0160
 328 859 352 883 381 883 c 0
 410 883 434 859 434 830 c 0
 434 801 410 778 381 778 c 0
 352 778 328 801 328 830 c 0x0160
154 830 m 0
 154 859 178 883 207 883 c 0
 236 883 260 859 260 830 c 0
 260 801 236 778 207 778 c 0
 178 778 154 801 154 830 c 0
547 213 m 1
 562 213 l 1xee80
 562 0 l 1
 29 0 l 1
 29 15 l 1
 71 15 85 59 85 127 c 2
 85 582 l 2
 85 644 73 689 29 689 c 1
 29 704 l 1
 549 704 l 1
 549 519 l 1xf680
 534 519 l 1
 517 688 295 689 254 689 c 2
 209 689 l 1
 209 363 l 1
 259 363 l 2
 273 363 402 363 410 465 c 1
 425 465 l 1
 425 245 l 1
 410 245 l 1
 402 348 272 348 259 348 c 2
 209 348 l 1
 209 15 l 1
 250 15 l 2
 294 15 515 13 547 213 c 1
EndSplineSet
Validated: 33
EndChar

StartChar: Igrave
Encoding: 204 204 141
Width: 361
Flags: MW
HStem: 0 21G<44 323 44 44> 684 20G<44 323 323 323> 735 21G<285 314 285 285> 878 20G<141 141>
VStem: 122 123<115 605>
LayerCount: 2
Fore
SplineSet
44 689 m 1
 44 704 l 1
 323 704 l 1
 323 689 l 1
 280 689 245 667 245 605 c 2
 245 115 l 2
 245 46 281 15 323 15 c 1
 323 0 l 1
 44 0 l 1
 44 15 l 1
 86 15 122 46 122 115 c 2
 122 605 l 2
 122 667 88 689 44 689 c 1
141 898 m 1x30
 314 735 l 1
 285 735 l 1
 45 869 l 1
 141 898 l 1x30
EndSplineSet
Validated: 1
EndChar

StartChar: Iacute
Encoding: 205 205 142
Width: 361
Flags: MW
HStem: 0 21G<44 323 44 44> 684 20G<44 323 323 323> 735 21G<46 46 46 75> 878 20G<219 219>
VStem: 122 123<115 605>
LayerCount: 2
Fore
SplineSet
44 689 m 1
 44 704 l 1
 323 704 l 1
 323 689 l 1
 280 689 245 667 245 605 c 2
 245 115 l 2
 245 46 281 15 323 15 c 1
 323 0 l 1
 44 0 l 1
 44 15 l 1
 86 15 122 46 122 115 c 2
 122 605 l 2
 122 667 88 689 44 689 c 1
46 735 m 1
 219 898 l 1x30
 315 869 l 1
 75 735 l 1
 46 735 l 1
EndSplineSet
Validated: 1
EndChar

StartChar: Icircumflex
Encoding: 206 206 143
Width: 361
Flags: MW
HStem: 0 21G<44 323 44 44> 684 20G<44 323 323 323> 735 20 901 21
VStem: 122 123<115 605>
LayerCount: 2
Fore
SplineSet
44 689 m 1
 44 704 l 1
 323 704 l 1
 323 689 l 1
 280 689 245 667 245 605 c 2
 245 115 l 2
 245 46 281 15 323 15 c 1
 323 0 l 1
 44 0 l 1
 44 15 l 1
 86 15 122 46 122 115 c 2
 122 605 l 2
 122 667 88 689 44 689 c 1
304 735 m 1x30
 186 824 l 1
 67 735 l 1
 37 735 l 1
 186 922 l 1
 335 735 l 1
 304 735 l 1x30
EndSplineSet
Validated: 1
EndChar

StartChar: Idieresis
Encoding: 207 207 144
Width: 361
Flags: MW
HStem: 0 21G<44 323 44 44> 684 20G<44 323 323 323> 689 194<44 111.5 82.5 323> 778 105<82.5 111.5 256.5 285.5>
VStem: 44 106<815.5 844.5> 122 123<115 605> 218 106<815.5 844.5>
LayerCount: 2
Fore
SplineSet
271 778 m 0xda
 242 778 218 801 218 830 c 0
 218 859 242 883 271 883 c 0
 300 883 324 859 324 830 c 0
 324 801 300 778 271 778 c 0xda
150 830 m 0
 150 801 126 778 97 778 c 0
 68 778 44 801 44 830 c 0
 44 859 68 883 97 883 c 0
 126 883 150 859 150 830 c 0
44 689 m 1xaa
 44 704 l 1
 323 704 l 1xda
 323 689 l 1
 280 689 245 667 245 605 c 2
 245 115 l 2xa4
 245 46 281 15 323 15 c 1
 323 0 l 1
 44 0 l 1
 44 15 l 1xaa
 86 15 122 46 122 115 c 2
 122 605 l 2xa4
 122 667 88 689 44 689 c 1xaa
EndSplineSet
Validated: 1
EndChar

StartChar: Eth
Encoding: 208 208 145
Width: 732
Flags: MW
HStem: 0 21G<38 277 38 38> 322 20G<26 109 26 26 233 378 233 233> 341 20G<26 109 109 109 233 378 378 378> 684 20G<38 277 277 376.5>
VStem: 109 124<128 342 15 342 361 576 576 607> 537 148<201 496.5 201 508.5>
LayerCount: 2
Fore
SplineSet
537 350 m 0xbc
 537 667 381 689 277 689 c 2
 233 689 l 1
 233 361 l 1
 378 361 l 1
 378 342 l 1
 233 342 l 1
 233 15 l 1xdc
 277 15 l 2
 380 15 537 28 537 350 c 0xbc
685 350 m 0
 685 52 476 0 277 0 c 2
 38 0 l 1
 38 15 l 1
 81 15 109 60 109 128 c 2
 109 342 l 1
 26 342 l 1
 26 361 l 1
 109 361 l 1
 109 576 l 2xbc
 109 638 82 689 38 689 c 1
 38 704 l 1
 277 704 l 2
 476 704 685 643 685 350 c 0
EndSplineSet
Validated: 1
EndChar

StartChar: Ntilde
Encoding: 209 209 146
Width: 822
Flags: MW
HStem: 0 21G<21 317 21 21 614 658 614 614> 684 20G<9 224 224 224 508 802 802 802>
LayerCount: 2
Fore
SplineSet
455 758 m 1
 338 802 l 2
 305 813 215 811 189 755 c 1
 177 760 l 1
 242 923 364 881 364 881 c 1
 481 838 l 2
 515 825 606 832 631 887 c 1
 643 880 l 1
 577 717 455 758 455 758 c 1
508 704 m 1
 802 704 l 1
 802 689 l 1
 654 690 658 499 658 452 c 2
 658 0 l 1
 614 0 l 1
 184 547 l 1
 184 252 l 2
 184 208 183 15 317 15 c 1
 317 0 l 1
 21 0 l 1
 21 15 l 1
 169 15 167 207 167 252 c 2
 167 566 l 1
 128 616 l 2
 64 696 35 687 9 689 c 1
 9 704 l 1
 224 704 l 1
 641 177 l 1
 641 452 l 2
 641 499 643 690 508 689 c 1
 508 704 l 1
EndSplineSet
Validated: 33
EndChar

StartChar: Ograve
Encoding: 210 210 147
Width: 755
Flags: MW
HStem: -9 21G<266 486> -8 21G 693 20G<266 486> 735 21G<462 491 462 462> 878 20G<318 318> 939 20G
VStem: 41 143<247.5 446> 42 171 559 173 566 145<247.5 446 247.5 484>
LayerCount: 2
Fore
SplineSet
566 347 m 0xa240
 566 72 494 6 376 6 c 0
 257 6 184 72 184 347 c 0
 184 621 257 698 376 698 c 0
 494 698 566 621 566 347 c 0xa240
711 347 m 0
 711 545 596 713 376 713 c 0
 156 713 41 545 41 347 c 0
 41 148 156 -9 376 -9 c 0
 596 -9 711 148 711 347 c 0
318 898 m 1x18
 491 735 l 1
 462 735 l 1
 222 869 l 1
 318 898 l 1x18
EndSplineSet
Validated: 9
EndChar

StartChar: Ocircumflex
Encoding: 212 212 149
Width: 755
Flags: MW
HStem: -9 21G<266 486> -8 21G 684 20G 693 20G<266 486> 713 78 735 20 901 21 959 20G
VStem: 41 143<247.5 446> 42 171 559 173 566 145<247.5 446 247.5 484>
LayerCount: 2
Fore
SplineSet
566 347 m 0x9090
 566 72 494 6 376 6 c 0
 257 6 184 72 184 347 c 0
 184 621 257 698 376 698 c 0
 494 698 566 621 566 347 c 0x9090
711 347 m 0
 711 545 596 713 376 713 c 0
 156 713 41 545 41 347 c 0
 41 148 156 -9 376 -9 c 0
 596 -9 711 148 711 347 c 0
493 735 m 1x06
 375 824 l 1
 256 735 l 1
 226 735 l 1
 375 922 l 1
 524 735 l 1
 493 735 l 1x06
EndSplineSet
Validated: 9
EndChar

StartChar: Otilde
Encoding: 213 213 150
Width: 755
Flags: MW
HStem: -9 21G<266 486> 693 20G<266 486>
VStem: 41 143<247.5 446> 566 145<247.5 446 247.5 484>
LayerCount: 2
Fore
SplineSet
309 802 m 2
 275 813 186 811 159 755 c 1
 147 759 l 1
 213 923 335 881 335 881 c 1
 452 837 l 2
 486 825 576 832 602 887 c 1
 614 880 l 1
 547 717 426 758 426 758 c 1
 309 802 l 2
566 347 m 0
 566 72 494 6 376 6 c 0
 257 6 184 72 184 347 c 0
 184 621 257 698 376 698 c 0
 494 698 566 621 566 347 c 0
711 347 m 0
 711 545 596 713 376 713 c 0
 156 713 41 545 41 347 c 0
 41 148 156 -9 376 -9 c 0
 596 -9 711 148 711 347 c 0
EndSplineSet
Validated: 41
EndChar

StartChar: Odieresis
Encoding: 214 214 151
Width: 755
Flags: MW
HStem: -9 21G<266 486> 693 20G<266 486> 777 106<275.5 304.5 449.5 478.5>
VStem: 41 143<247.5 446> 238 105<815.5 844.5> 411 106<815.5 844.5> 566 145<247.5 446 247.5 484>
LayerCount: 2
Fore
SplineSet
411 830 m 0
 411 859 435 883 464 883 c 0
 493 883 517 859 517 830 c 0
 517 801 493 777 464 777 c 0
 435 777 411 801 411 830 c 0
238 830 m 0
 238 859 261 883 290 883 c 0
 319 883 343 859 343 830 c 0
 343 801 319 777 290 777 c 0
 261 777 238 801 238 830 c 0
566 347 m 0
 566 621 494 698 376 698 c 0
 257 698 184 621 184 347 c 0
 184 72 257 6 376 6 c 0
 494 6 566 72 566 347 c 0
711 347 m 0
 711 148 596 -9 376 -9 c 0
 156 -9 41 148 41 347 c 0
 41 545 156 713 376 713 c 0
 596 713 711 545 711 347 c 0
EndSplineSet
Validated: 1
EndChar

StartChar: multiply
Encoding: 215 215 152
Width: 600
Flags: MW
HStem: 13 21G<116 116 485 485> 476 20G<116 116 485 485>
LayerCount: 2
Fore
SplineSet
356 254 m 1
 541 70 l 1
 485 13 l 1
 300 198 l 1
 116 13 l 1
 59 70 l 1
 244 254 l 1
 59 439 l 1
 116 496 l 1
 300 311 l 1
 485 496 l 1
 541 439 l 1
 356 254 l 1
EndSplineSet
Validated: 1
EndChar

StartChar: Oslash
Encoding: 216 216 153
Width: 756
Flags: MW
HStem: -35 21G<136 157 136 136> -9 21G<342 487> 693 20G<267 413> 725 20G<606 627 627 627>
VStem: 42 143<291 446> 567 145<247.5 401.5>
LayerCount: 2
Fore
SplineSet
377 6 m 0
 495 6 567 72 567 347 c 0
 567 456 555 534 533 588 c 1
 231 87 l 1
 263 25 312 6 377 6 c 0
185 347 m 0
 185 235 199 159 222 107 c 1
 524 608 l 1
 492 675 442 698 377 698 c 0
 258 698 185 621 185 347 c 0
573 654 m 1
 664 588 712 474 712 347 c 0
 712 148 597 -9 377 -9 c 0
 307 -9 248 7 199 35 c 1
 157 -35 l 1
 136 -35 l 1
 184 44 l 1
 90 106 42 218 42 347 c 0
 42 545 157 713 377 713 c 0
 449 713 509 695 558 664 c 1
 606 745 l 1
 627 745 l 1
 573 654 l 1
EndSplineSet
Validated: 1
EndChar

StartChar: Ugrave
Encoding: 217 217 154
Width: 736
Flags: MW
HStem: -9 52<339 385> -9 60 684 20G<17 301 17 17 435 716 435 435> 735 21G<464 493 464 464> 878 20G<320 320>
VStem: 92 122<235 243 243 601 601 602> 92 145
LayerCount: 2
Fore
SplineSet
320 898 m 1x18
 493 735 l 1
 464 735 l 1
 224 869 l 1
 320 898 l 1x18
332 -9 m 0xa4
 438 -9 578 41 577 238 c 2
 577 522 l 2
 577 570 575 690 716 689 c 1
 716 704 l 1
 435 704 l 1
 435 689 l 1
 562 690 562 570 562 522 c 2
 562 238 l 2
 562 111 479 43 390 43 c 0
 288 43 214 114 214 235 c 2
 214 601 l 2
 214 676 258 689 301 689 c 1
 301 704 l 1
 17 704 l 1
 17 689 l 1
 61 689 92 666 92 602 c 2
 92 243 l 2
 92 80 200 -9 332 -9 c 0xa4
EndSplineSet
Validated: 41
EndChar

StartChar: Uacute
Encoding: 218 218 155
Width: 736
Flags: MW
HStem: -9 52<339 385> -9 60 684 20G<17 301 301 301 435 716 716 716> 735 21G<235 235 235 264> 878 20G<408 408> 939 20G
VStem: 92 122<243 601> 92 145
LayerCount: 2
Fore
SplineSet
332 -9 m 0x65
 200 -9 92 80 92 243 c 2
 92 602 l 2
 92 666 61 689 17 689 c 1
 17 704 l 1
 301 704 l 1
 301 689 l 1
 258 689 214 676 214 601 c 2
 214 235 l 2
 214 114 288 43 390 43 c 0
 479 43 562 111 562 238 c 2
 562 522 l 2
 562 570 562 690 435 689 c 1
 435 704 l 1
 716 704 l 1
 716 689 l 1
 575 690 577 570 577 522 c 2
 577 238 l 2
 578 41 438 -9 332 -9 c 0x65
235 735 m 1
 408 898 l 1x18
 504 869 l 1
 264 735 l 1
 235 735 l 1
EndSplineSet
Validated: 33
EndChar

StartChar: Ucircumflex
Encoding: 219 219 156
Width: 736
Flags: MW
HStem: -9 52<339 385> -9 60 684 20G<17 301 17 17 435 716 435 435> 735 20 901 21
VStem: 92 122<235 243 243 601 601 602> 92 145
LayerCount: 2
Fore
SplineSet
496 735 m 1x18
 378 824 l 1
 259 735 l 1
 229 735 l 1
 378 922 l 1
 527 735 l 1
 496 735 l 1x18
332 -9 m 0xa4
 438 -9 578 41 577 238 c 2
 577 522 l 2
 577 570 575 690 716 689 c 1
 716 704 l 1
 435 704 l 1
 435 689 l 1
 562 690 562 570 562 522 c 2
 562 238 l 2
 562 111 479 43 390 43 c 0
 288 43 214 114 214 235 c 2
 214 601 l 2
 214 676 258 689 301 689 c 1
 301 704 l 1
 17 704 l 1
 17 689 l 1
 61 689 92 666 92 602 c 2
 92 243 l 2
 92 80 200 -9 332 -9 c 0xa4
EndSplineSet
Validated: 41
EndChar

StartChar: Udieresis
Encoding: 220 220 157
Width: 736
Flags: MW
HStem: -9 52<339 385> 684 20G<17 301 301 301 435 716 716 716> 777 106<265.5 294.5 439.5 468.5>
VStem: 92 122<243 601> 228 105<815.5 844.5> 401 106<815.5 844.5>
LayerCount: 2
Fore
SplineSet
401 830 m 0
 401 859 425 883 454 883 c 0
 483 883 507 859 507 830 c 0
 507 801 483 777 454 777 c 0
 425 777 401 801 401 830 c 0
228 830 m 0
 228 859 251 883 280 883 c 0
 309 883 333 859 333 830 c 0
 333 801 309 777 280 777 c 0
 251 777 228 801 228 830 c 0
332 -9 m 0
 200 -9 92 80 92 243 c 2
 92 602 l 2
 92 666 61 689 17 689 c 1
 17 704 l 1
 301 704 l 1
 301 689 l 1
 258 689 214 676 214 601 c 2
 214 235 l 2
 214 114 288 43 390 43 c 0
 479 43 562 111 562 238 c 2
 562 522 l 2
 562 570 562 690 435 689 c 1
 435 704 l 1
 716 704 l 1
 716 689 l 1
 575 690 577 570 577 522 c 2
 577 238 l 2
 578 41 438 -9 332 -9 c 0
EndSplineSet
Validated: 33
EndChar

StartChar: Yacute
Encoding: 221 221 158
Width: 732
Flags: MW
HStem: 0 21G<227 506 227 227> 684 20G<9 297 297 297 439 718 718 718> 735 21G<257 257 257 286> 878 20G<430 430>
VStem: 307 119<117 282 282 282>
LayerCount: 2
Fore
SplineSet
439 704 m 1
 718 704 l 1
 718 689 l 1
 683 689 609 687 497 468 c 1
 426 320 l 1
 426 117 l 2
 426 42 464 15 506 15 c 1
 506 0 l 1
 227 0 l 1
 227 15 l 1
 269 15 307 42 307 117 c 2
 307 282 l 1
 160 542 115 611 115 611 c 2
 71 687 38 689 9 690 c 1
 9 704 l 1
 297 704 l 1
 297 690 l 1
 272 690 206 691 274 576 c 2
 417 338 l 1
 488 485 l 2
 505 520 579 689 439 689 c 1
 439 704 l 1
257 735 m 1
 430 898 l 1x30
 526 869 l 1
 286 735 l 1
 257 735 l 1
EndSplineSet
Validated: 33
EndChar

StartChar: Thorn
Encoding: 222 222 159
Width: 628
Flags: MW
HStem: 0 191<234 261 261 309> 156 20G<234 261 234 234> 562 142<234 234 234 261>
VStem: 112 122<119 176 191 562 577 600> 460 136<289 461 289 467>
LayerCount: 2
Fore
SplineSet
234 562 m 1x78
 234 191 l 1
 261 191 l 2
 371 191 460 194 460 375 c 0
 460 559 368 562 261 562 c 2
 234 562 l 1x78
261 176 m 2
 234 176 l 1
 234 119 l 2
 234 51 267 15 309 15 c 1
 309 0 l 1
 36 0 l 1
 36 15 l 1
 78 15 112 51 112 119 c 2
 112 600 l 2xb8
 112 662 80 689 36 689 c 1
 36 704 l 1
 309 704 l 1
 309 689 l 1x78
 266 689 234 662 234 600 c 2
 234 577 l 1
 261 577 l 2
 460 577 596 547 596 375 c 0xb8
 596 203 460 176 261 176 c 2
EndSplineSet
Validated: 1
EndChar

StartChar: germandbls
Encoding: 223 223 160
Width: 605
Flags: MW
HStem: -9 21G<320 434.5> 0 21G<28 175 28 28> 389 20G<273 307.5> 727 20G<201 321.5>
VStem: 68 107<120 495 495 529 0 571.5> 385 100<512.5 648.5 512 659.5> 456 125
LayerCount: 2
Fore
SplineSet
581 202 m 0x7a
 581 87 520 -9 349 -9 c 0
 291 -9 260 15 249 32 c 0xba
 238 48 233 71 240 89 c 0
 250 116 281 129 307 118 c 0
 333 108 346 77 336 51 c 0
 330 38 319 28 308 23 c 0
 299 20 310 6 349 6 c 0
 440 6 457 108 456 212 c 0
 455 353 342 409 273 409 c 1
 273 424 l 1
 326 424 385 445 385 580 c 0
 385 739 285 732 270 732 c 0
 172 732 175 529 175 529 c 1
 175 0 l 1x7c
 28 0 l 1
 28 15 l 1
 66 27 68 69 68 120 c 2
 68 495 l 2
 68 648 132 747 270 747 c 0
 373 747 485 722 485 575 c 0
 485 449 370 419 350 419 c 1
 418 419 581 369 581 202 c 0x7a
EndSplineSet
Validated: 33
EndChar

StartChar: agrave
Encoding: 224 224 161
Width: 508
Flags: MW
HStem: -9 53<190.5 191> -8 60 451 20G<254 314> 541 21G<362 391 362 362> 677 20G 684 20G<218 218>
VStem: 41 109<109 144 109 145.5> 41 128 298 108<111 241 99 271 258 258 258 271 271 318> 300 126
LayerCount: 2
Fore
SplineSet
298 241 m 1xa280
 298 241 298 101 298 99 c 0
 289 75 265 44 222 44 c 0
 159 44 150 102 150 116 c 0
 150 172 191 217 298 241 c 1xa280
481 66 m 1
 475 45 453 45 453 45 c 1
 406 45 406 111 406 111 c 1
 406 271 l 2
 406 389 374 471 254 471 c 1
 254 471 203 474 159 451 c 0
 105 422 90 394 81 378 c 0
 72 362 73 340 85 323 c 0
 101 300 134 295 157 311 c 0
 180 328 186 360 169 383 c 0
 160 395 149 401 135 403 c 0
 129 404 134 422 169 440 c 0
 244 476 298 421 298 318 c 2
 298 258 l 1
 125 214 41 198 41 93 c 0
 41 -9 156 -9 156 -9 c 1
 226 -9 285 28 299 74 c 1
 308 -10 391 -9 391 -9 c 1
 449 -9 489 29 496 60 c 1
 481 66 l 1
218 704 m 1x14
 391 541 l 1
 362 541 l 1
 122 675 l 1
 218 704 l 1x14
EndSplineSet
Validated: 41
EndChar

StartChar: acircumflex
Encoding: 226 226 163
Width: 508
Flags: MW
HStem: -9 53<190.5 191> -8 60 451 20G<254 314> 467 66 517 20 683 21 701 20G
VStem: 41 109<109 144 109 145.5> 41 128 298 108<111 241 99 271 258 258 258 271 271 318> 300 126
LayerCount: 2
Fore
SplineSet
298 241 m 1xa140
 298 241 298 101 298 99 c 0
 289 75 265 44 222 44 c 0
 159 44 150 102 150 116 c 0
 150 172 191 217 298 241 c 1xa140
481 66 m 1
 475 45 453 45 453 45 c 1
 406 45 406 111 406 111 c 1
 406 271 l 2
 406 389 374 471 254 471 c 1
 254 471 203 474 159 451 c 0
 105 422 90 394 81 378 c 0
 72 362 73 340 85 323 c 0
 101 300 134 295 157 311 c 0
 180 328 186 360 169 383 c 0
 160 395 149 401 135 403 c 0
 129 404 134 422 169 440 c 0
 244 476 298 421 298 318 c 2
 298 258 l 1
 125 214 41 198 41 93 c 0
 41 -9 156 -9 156 -9 c 1
 226 -9 285 28 299 74 c 1
 308 -10 391 -9 391 -9 c 1
 449 -9 489 29 496 60 c 1
 481 66 l 1
381 517 m 1x0c
 263 606 l 1
 144 517 l 1
 114 517 l 1
 263 704 l 1
 412 517 l 1
 381 517 l 1x0c
EndSplineSet
Validated: 41
EndChar

StartChar: atilde
Encoding: 227 227 164
Width: 508
Flags: MW
HStem: -9 53<190.5 191> 451 20G<254 314>
VStem: 41 109<109 144 109 145.5> 298 108<111 241 241 241 258 271 111 318 111 369.5>
LayerCount: 2
Fore
SplineSet
307 554 m 1
 190 597 l 2
 156 609 67 607 40 551 c 1
 28 555 l 1
 94 718 216 677 216 677 c 1
 333 633 l 2
 367 621 457 628 483 682 c 1
 495 676 l 1
 428 513 307 554 307 554 c 1
298 241 m 1
 191 217 150 172 150 116 c 0
 150 102 159 44 222 44 c 0
 265 44 289 75 298 99 c 0
 298 101 298 241 298 241 c 1
481 66 m 1
 496 60 l 1
 489 29 449 -9 391 -9 c 1
 391 -9 308 -10 299 74 c 1
 285 28 226 -9 156 -9 c 1
 156 -9 41 -9 41 93 c 0
 41 198 125 214 298 258 c 1
 298 318 l 2
 298 421 244 476 169 440 c 0
 134 422 129 404 135 403 c 0
 149 401 160 395 169 383 c 0
 186 360 180 328 157 311 c 0
 134 295 101 300 85 323 c 0
 73 340 72 362 81 378 c 0
 90 394 105 422 159 451 c 0
 203 474 254 471 254 471 c 1
 374 471 406 389 406 271 c 2
 406 111 l 1
 406 111 406 45 453 45 c 1
 453 45 475 45 481 66 c 1
EndSplineSet
Validated: 33
EndChar

StartChar: adieresis
Encoding: 228 228 165
Width: 508
Flags: MW
HStem: -9 53<190.5 191> 451 20G<254 314> 563 106<155.5 185 329.5 358.5>
VStem: 41 109<109 144 109 145.5> 118 105<601.5 630.5> 292 105<601.5 630.5> 298 108<111 241 99 271 258 258 258 271 271 318>
LayerCount: 2
Fore
SplineSet
344 563 m 0x2c
 315 563 292 587 292 616 c 0
 292 645 315 669 344 669 c 0
 373 669 397 645 397 616 c 0
 397 587 373 563 344 563 c 0x2c
118 616 m 0
 118 645 141 669 170 669 c 0
 200 669 223 645 223 616 c 0
 223 587 200 563 170 563 c 0
 141 563 118 587 118 616 c 0
298 241 m 1xd2
 298 241 298 101 298 99 c 0
 289 75 265 44 222 44 c 0
 159 44 150 102 150 116 c 0
 150 172 191 217 298 241 c 1xd2
481 66 m 1
 475 45 453 45 453 45 c 1
 406 45 406 111 406 111 c 1
 406 271 l 2
 406 389 374 471 254 471 c 1
 254 471 203 474 159 451 c 0
 105 422 90 394 81 378 c 0
 72 362 73 340 85 323 c 0
 101 300 134 295 157 311 c 0
 180 328 186 360 169 383 c 0
 160 395 149 401 135 403 c 0
 129 404 134 422 169 440 c 0
 244 476 298 421 298 318 c 2
 298 258 l 1
 125 214 41 198 41 93 c 0
 41 -9 156 -9 156 -9 c 1
 226 -9 285 28 299 74 c 1
 308 -10 391 -9 391 -9 c 1
 449 -9 489 29 496 60 c 1
 481 66 l 1
EndSplineSet
Validated: 41
EndChar

StartChar: aring
Encoding: 229 229 166
Width: 508
Flags: MW
HStem: -9 53<190.5 191> 451 20G<254 314> 536 40<236.5 271 236.5 282> 700 40<236.5 271>
VStem: 41 109<109 144 109 145.5> 152 39<621 655 621 666> 298 108<111 241 99 271 258 258 258 271 271 318> 316 39<621 655>
LayerCount: 2
Fore
SplineSet
254 700 m 0x35
 219 700 191 672 191 638 c 0
 191 604 219 576 254 576 c 0
 288 576 316 604 316 638 c 0
 316 672 288 700 254 700 c 0x35
254 536 m 0
 197 536 152 582 152 638 c 0
 152 694 197 740 254 740 c 0
 310 740 355 694 355 638 c 0
 355 582 310 536 254 536 c 0
298 241 m 1xca
 298 241 298 101 298 99 c 0
 289 75 265 44 222 44 c 0
 159 44 150 102 150 116 c 0
 150 172 191 217 298 241 c 1xca
481 66 m 1
 475 45 453 45 453 45 c 1
 406 45 406 111 406 111 c 1
 406 271 l 2
 406 389 374 471 254 471 c 1
 254 471 203 474 159 451 c 0
 105 422 90 394 81 378 c 0
 72 362 73 340 85 323 c 0
 101 300 134 295 157 311 c 0
 180 328 186 360 169 383 c 0
 160 395 149 401 135 403 c 0
 129 404 134 422 169 440 c 0
 244 476 298 421 298 318 c 2
 298 258 l 1
 125 214 41 198 41 93 c 0
 41 -9 156 -9 156 -9 c 1
 226 -9 285 28 299 74 c 1
 308 -10 391 -9 391 -9 c 1
 449 -9 489 29 496 60 c 1
 481 66 l 1
EndSplineSet
Validated: 41
EndChar

StartChar: ae
Encoding: 230 230 167
Width: 722
Flags: MW
HStem: -9 53<187.5 198.5> 234 20G<395 584 584 584> 239 232<465.5 560.5 241 394>
VStem: 41 109<108.5 142.5> 288 107<203 311 242 311 258 311 254 318 254 369.5> 584 97<254 319 239 323.5>
LayerCount: 2
Fore
SplineSet
395 254 m 1xbc
 584 254 l 1
 584 393 549 456 495 456 c 0
 434 456 395 368 395 254 c 1xbc
649 128 m 1
 664 120 l 1
 651 72 614 -9 488 -9 c 0
 407 -9 343 39 317 94 c 1
 304 37 241 -9 156 -9 c 1
 156 -9 41 -9 41 93 c 0
 41 192 119 213 288 258 c 1
 288 318 l 2
 288 421 238 476 163 439 c 0
 128 422 127 406 133 405 c 0
 147 403 157 395 166 383 c 0
 182 360 177 328 153 311 c 0
 130 295 98 300 82 323 c 0
 70 340 69 362 78 378 c 0
 86 394 100 421 154 450 c 0
 198 473 241 471 241 471 c 1
 297 471 334 443 355 401 c 1
 395 444 436 471 495 471 c 0
 626 471 681 399 681 239 c 1
 394 239 l 1
 399 127 437 72 514 60 c 0
 572 51 628 89 649 128 c 1
307 111 m 1
 296 138 290 177 288 203 c 0
 287 222 288 242 288 242 c 1xdc
 260 234 150 202 150 116 c 0
 150 101 156 44 219 44 c 0
 269 44 298 86 307 111 c 1
EndSplineSet
Validated: 33
EndChar

StartChar: ccedilla
Encoding: 231 231 168
Width: 491
Flags: MW
HStem: -229 21G<235.5 271.5> -9 21G<251 264 251 255> 451 20G<215 338.5>
VStem: 45 110<186.5 291.5>
LayerCount: 2
Fore
SplineSet
296 456 m 0
 258 456 155 426 155 247 c 0
 155 126 221 74 291 64 c 0
 353 55 423 92 444 129 c 1
 456 122 l 1
 443 71 388 -9 264 -9 c 0
 260 -9 259 -9 251 -9 c 1
 232 -63 l 1
 324 -42 365 -96 358 -147 c 0
 350 -216 288 -229 255 -229 c 0
 216 -229 193 -214 186 -208 c 0
 180 -202 176 -190 178 -180 c 0
 183 -165 198 -157 213 -161 c 0
 228 -166 235 -180 232 -195 c 0
 231 -201 227 -205 223 -207 c 0
 221 -209 226 -217 255 -216 c 0
 288 -216 310 -194 309 -160 c 0
 309 -138 288 -76 208 -91 c 1
 237 -8 l 1
 129 6 45 109 45 232 c 0
 45 351 134 471 296 471 c 0
 381 471 417 435 430 419 c 0
 442 405 449 381 440 361 c 0
 429 333 396 317 367 328 c 0
 338 340 324 372 336 401 c 0
 341 416 353 426 365 431 c 0
 374 433 349 456 296 456 c 0
EndSplineSet
Validated: 33
EndChar

StartChar: egrave
Encoding: 232 232 169
Width: 507
Flags: MW
HStem: -9 21G<189.5 316> 235 20G<148 362 148 148> 240 231<196.5 327.5 196.5 466 196.5 466> 541 21G<363 392 363 363> 684 20G<219 219>
VStem: 36 112<240 240 255 300> 362 104<255 318.5 240 323>
LayerCount: 2
Fore
SplineSet
362 255 m 1xa6
 148 255 l 1
 148 366 200 456 258 456 c 0
 309 456 362 391 362 255 c 1xa6
436 127 m 1
 414 79 339 51 281 60 c 0
 209 71 154 124 148 240 c 1xc6
 466 240 l 1
 466 397 393 471 262 471 c 0
 131 471 36 372 36 228 c 0
 36 103 126 -9 253 -9 c 0
 379 -9 437 71 450 120 c 1
 436 127 l 1
219 704 m 1x18
 392 541 l 1
 363 541 l 1
 123 675 l 1
 219 704 l 1x18
EndSplineSet
Validated: 41
EndChar

StartChar: eacute
Encoding: 233 233 170
Width: 507
Flags: MW
HStem: -9 21G<189.5 316> 235 20G<148 362 362 362> 240 231<196.5 327.5 196.5 466 148 327.5> 541 21G<120 120 120 149> 684 20G<293 293>
VStem: 36 112<240 240 255 300> 362 104<255 318.5 240 323>
LayerCount: 2
Fore
SplineSet
148 255 m 1xa6
 362 255 l 1
 362 391 309 456 258 456 c 0
 200 456 148 366 148 255 c 1xa6
436 127 m 1
 450 120 l 1
 437 71 379 -9 253 -9 c 0
 126 -9 36 103 36 228 c 0
 36 372 131 471 262 471 c 0
 393 471 466 397 466 240 c 1
 148 240 l 1xc6
 154 124 209 71 281 60 c 0
 339 51 414 79 436 127 c 1
120 541 m 1
 293 704 l 1x18
 389 675 l 1
 149 541 l 1
 120 541 l 1
EndSplineSet
Validated: 33
EndChar

StartChar: ecircumflex
Encoding: 234 234 171
Width: 507
Flags: MW
HStem: -9 21G<189.5 316> 235 20G<148 362 148 148> 240 231<196.5 327.5 196.5 466 196.5 466> 517 20 683 21
VStem: 36 112<240 240 255 300> 362 104<255 318.5 240 323>
LayerCount: 2
Fore
SplineSet
362 255 m 1xa6
 148 255 l 1
 148 366 200 456 258 456 c 0
 309 456 362 391 362 255 c 1xa6
436 127 m 1
 414 79 339 51 281 60 c 0
 209 71 154 124 148 240 c 1xc6
 466 240 l 1
 466 397 393 471 262 471 c 0
 131 471 36 372 36 228 c 0
 36 103 126 -9 253 -9 c 0
 379 -9 437 71 450 120 c 1
 436 127 l 1
369 517 m 1x18
 251 606 l 1
 132 517 l 1
 102 517 l 1
 251 704 l 1
 400 517 l 1
 369 517 l 1x18
EndSplineSet
Validated: 41
EndChar

StartChar: edieresis
Encoding: 235 235 172
Width: 507
Flags: MW
HStem: -9 21G<189.5 316> 235 20G<148 362 362 362> 240 231<196.5 327.5 196.5 466 148 327.5> 456 213<155.5 283.5> 563 106<155.5 184.5 329 358.5>
VStem: 36 112<240 240 255 300> 118 105<601.5 630.5> 291 106<601.5 630.5> 362 104<255 318.5 240 323>
LayerCount: 2
Fore
SplineSet
344 563 m 0xad
 314 563 291 587 291 616 c 0
 291 645 314 669 344 669 c 0
 373 669 397 645 397 616 c 0
 397 587 373 563 344 563 c 0xad
258 456 m 0xd480
 200 456 148 366 148 255 c 1
 362 255 l 1
 362 391 309 456 258 456 c 0xd480
281 60 m 0
 339 51 414 79 436 127 c 1
 450 120 l 1
 437 71 379 -9 253 -9 c 0
 126 -9 36 103 36 228 c 0
 36 372 131 471 262 471 c 0
 393 471 466 397 466 240 c 1
 148 240 l 1xac80
 154 124 209 71 281 60 c 0
170 563 m 0
 141 563 118 587 118 616 c 0
 118 645 141 669 170 669 c 0
 199 669 223 645 223 616 c 0xab
 223 587 199 563 170 563 c 0
EndSplineSet
Validated: 33
EndChar

StartChar: igrave
Encoding: 236 236 173
Width: 264
Flags: MW
HStem: 0 21G<39 226 226 226> 451 20G<185 185> 541 21G<230 259 230 230> 684 20G<86 86>
VStem: 79 106<81.5 471 107 357>
LayerCount: 2
Fore
SplineSet
226 15 m 1
 190 25 185 52 185 107 c 2
 185 471 l 1
 29 437 l 1
 29 422 l 1
 70 405 79 391 79 357 c 2
 79 107 l 2
 79 56 77 27 39 15 c 1
 39 0 l 1
 226 0 l 1
 226 15 l 1
86 704 m 1x30
 259 541 l 1
 230 541 l 1
 -10 675 l 1
 86 704 l 1x30
EndSplineSet
Validated: 9
EndChar

StartChar: iacute
Encoding: 237 237 174
Width: 264
Flags: MW
HStem: 0 21G<39 226 39 39> 451 20G<185 185> 541 21G<-1 -1 -1 28> 684 20G<172 172>
VStem: 79 106<107 357 357 374>
LayerCount: 2
Fore
SplineSet
226 15 m 1
 226 0 l 1
 39 0 l 1
 39 15 l 1
 77 27 79 56 79 107 c 2
 79 357 l 2
 79 391 70 405 29 422 c 1
 29 437 l 1
 185 471 l 1
 185 107 l 2
 185 52 190 25 226 15 c 1
-1 541 m 1
 172 704 l 1x30
 268 675 l 1
 28 541 l 1
 -1 541 l 1
EndSplineSet
Validated: 1
EndChar

StartChar: icircumflex
Encoding: 238 238 175
Width: 264
Flags: MW
HStem: 0 21G<39 226 226 226> 451 20G<185 185> 517 20 683 21
VStem: 79 106<81.5 471 107 357>
LayerCount: 2
Fore
SplineSet
226 15 m 1
 190 25 185 52 185 107 c 2
 185 471 l 1
 29 437 l 1
 29 422 l 1
 70 405 79 391 79 357 c 2
 79 107 l 2
 79 56 77 27 39 15 c 1
 39 0 l 1
 226 0 l 1
 226 15 l 1
245 517 m 1x30
 127 606 l 1
 8 517 l 1
 -22 517 l 1
 127 704 l 1
 276 517 l 1
 245 517 l 1x30
EndSplineSet
Validated: 9
EndChar

StartChar: idieresis
Encoding: 239 239 176
Width: 264
Flags: MW
HStem: 0 21G<39 226 39 39> 563 106<26 55.5 199.5 229>
VStem: -12 105<601.5 630.5> 79 106<107 357 357 374> 162 105<601.5 630.5>
LayerCount: 2
Fore
SplineSet
214 563 m 0xd0
 185 563 162 587 162 616 c 0
 162 645 185 669 214 669 c 0
 244 669 267 645 267 616 c 0
 267 587 244 563 214 563 c 0xd0
41 563 m 0
 11 563 -12 587 -12 616 c 0
 -12 645 11 669 41 669 c 0
 70 669 93 645 93 616 c 0
 93 587 70 563 41 563 c 0
226 15 m 1
 226 0 l 1
 39 0 l 1xe8
 39 15 l 1
 77 27 79 56 79 107 c 2
 79 357 l 2
 79 391 70 405 29 422 c 1
 29 437 l 1
 185 471 l 1
 185 107 l 2
 185 52 190 25 226 15 c 1
EndSplineSet
Validated: 1
EndChar

StartChar: eth
Encoding: 240 240 177
Width: 559
Flags: MW
HStem: -9 21G<208 353.5> 409 28<241.5 259 165.5 291.5> 693 20G<176 216>
VStem: 38 127 387 132<331 333 332.5 333>
LayerCount: 2
Fore
SplineSet
387 333 m 0
 355 390 308 409 275 409 c 0
 208 409 166 330 165 200 c 0
 162 45 203 6 269 6 c 0
 357 6 387 98 387 331 c 0
 387 332 387 332 387 333 c 0
519 323 m 0
 519 124 438 -9 269 -9 c 0
 147 -9 35 61 38 216 c 0
 40 328 96 437 235 437 c 0
 283 437 352 424 387 362 c 1
 386 462 366 551 335 607 c 1
 171 523 l 1
 158 536 l 1
 327 623 l 1
 290 676 234 698 176 698 c 1
 176 713 l 1
 256 713 327 690 382 651 c 1
 484 705 l 1
 499 692 l 1
 398 639 l 1
 466 576 519 466 519 323 c 0
EndSplineSet
Validated: 33
EndChar

StartChar: ntilde
Encoding: 241 241 178
Width: 519
Flags: MW
HStem: 0 21G<21 207 21 21 312 499 312 312> 410 61
VStem: 60 106<106 326 365 375.5> 352 106<107 312 312 315>
LayerCount: 2
Fore
SplineSet
307 554 m 1
 190 597 l 2
 156 609 67 607 40 551 c 1
 28 555 l 1
 94 718 216 677 216 677 c 1
 333 633 l 2
 367 621 457 628 483 682 c 1
 495 676 l 1
 428 513 307 554 307 554 c 1
499 15 m 1
 499 0 l 1
 312 0 l 1
 312 15 l 1
 350 26 352 56 352 107 c 2
 352 312 l 2
 352 370 318 410 260 410 c 0
 215 410 170 364 166 326 c 1
 166 106 l 2
 166 51 172 25 207 15 c 1
 207 0 l 1
 21 0 l 1
 21 15 l 1
 59 26 60 55 60 106 c 2
 60 358 l 2
 60 393 51 405 10 422 c 1
 10 437 l 1
 166 471 l 1
 166 365 l 1
 188 425 263 471 326 471 c 0
 405 471 458 436 458 315 c 2
 458 107 l 2
 458 52 463 24 499 15 c 1
EndSplineSet
Validated: 33
EndChar

StartChar: ograve
Encoding: 242 242 179
Width: 548
Flags: MW
HStem: -9 21G<199 351.5> -8 21G 451 20G<199 351.5> 541 21G<382 411 382 382> 678 20G 684 20G<238 238>
VStem: 40 147 41 125<165.5 297> 368 148 384 126<165.5 297 165.5 321.5>
LayerCount: 2
Fore
SplineSet
384 231 m 0xa140
 384 50 350 6 275 6 c 0
 201 6 166 50 166 231 c 0
 166 412 201 456 275 456 c 0
 350 456 384 412 384 231 c 0xa140
510 231 m 0
 510 363 428 471 275 471 c 0
 123 471 41 363 41 231 c 0
 41 100 123 -9 275 -9 c 0
 428 -9 510 100 510 231 c 0
238 704 m 1x14
 411 541 l 1
 382 541 l 1
 142 675 l 1
 238 704 l 1x14
EndSplineSet
Validated: 9
EndChar

StartChar: oacute
Encoding: 243 243 180
Width: 548
Flags: MW
HStem: -9 21G<199 351.5> -8 21G 451 20G<199 351.5> 541 21G<136 136 136 165> 678 20G 684 20G<309 309>
VStem: 40 147 41 125<165.5 297> 368 148 384 126<165.5 297 165.5 321.5>
LayerCount: 2
Fore
SplineSet
384 231 m 0x4a80
 384 412 350 456 275 456 c 0
 201 456 166 412 166 231 c 0
 166 50 201 6 275 6 c 0
 350 6 384 50 384 231 c 0x4a80
510 231 m 0
 510 100 428 -9 275 -9 c 0
 123 -9 41 100 41 231 c 0
 41 363 123 471 275 471 c 0
 428 471 510 363 510 231 c 0
136 541 m 1
 309 704 l 1x14
 405 675 l 1
 165 541 l 1
 136 541 l 1
EndSplineSet
Validated: 1
EndChar

StartChar: ocircumflex
Encoding: 244 244 181
Width: 548
Flags: MW
HStem: -9 21G<199 351.5> -8 21G 451 20G<199 351.5> 467 66 517 20 683 21 701 20G
VStem: 40 147 41 125<165.5 297> 368 148 384 126<165.5 297 165.5 321.5>
LayerCount: 2
Fore
SplineSet
384 231 m 0xa0a0
 384 50 350 6 275 6 c 0
 201 6 166 50 166 231 c 0
 166 412 201 456 275 456 c 0
 350 456 384 412 384 231 c 0xa0a0
510 231 m 0
 510 363 428 471 275 471 c 0
 123 471 41 363 41 231 c 0
 41 100 123 -9 275 -9 c 0
 428 -9 510 100 510 231 c 0
396 517 m 1x0c
 278 606 l 1
 159 517 l 1
 129 517 l 1
 278 704 l 1
 427 517 l 1
 396 517 l 1x0c
EndSplineSet
Validated: 9
EndChar

StartChar: otilde
Encoding: 245 245 182
Width: 548
Flags: MW
HStem: -9 21G<199 351.5> 451 20G<199 351.5>
VStem: 41 125<165.5 297> 384 126<165.5 297 165.5 321.5>
LayerCount: 2
Fore
SplineSet
204 597 m 2
 171 609 81 607 55 551 c 1
 43 555 l 1
 108 718 230 677 230 677 c 1
 347 633 l 2
 381 621 472 628 497 682 c 1
 509 676 l 1
 443 513 321 554 321 554 c 1
 204 597 l 2
384 231 m 0
 384 50 350 6 275 6 c 0
 201 6 166 50 166 231 c 0
 166 412 201 456 275 456 c 0
 350 456 384 412 384 231 c 0
510 231 m 0
 510 363 428 471 275 471 c 0
 123 471 41 363 41 231 c 0
 41 100 123 -9 275 -9 c 0
 428 -9 510 100 510 231 c 0
EndSplineSet
Validated: 41
EndChar

StartChar: odieresis
Encoding: 246 246 183
Width: 548
Flags: MW
HStem: -9 21G<199 351.5> 451 20G<199 351.5> 563 106<174.5 203.5 348 377.5>
VStem: 41 125<165.5 297> 137 105<601.5 630.5> 310 106<601.5 630.5> 384 126<165.5 297 165.5 321.5>
LayerCount: 2
Fore
SplineSet
363 563 m 0x2c
 333 563 310 587 310 616 c 0
 310 645 333 669 363 669 c 0
 392 669 416 645 416 616 c 0
 416 587 392 563 363 563 c 0x2c
189 563 m 0
 160 563 137 587 137 616 c 0
 137 645 160 669 189 669 c 0
 218 669 242 645 242 616 c 0
 242 587 218 563 189 563 c 0
384 231 m 0xd2
 384 50 350 6 275 6 c 0
 201 6 166 50 166 231 c 0
 166 412 201 456 275 456 c 0
 350 456 384 412 384 231 c 0xd2
510 231 m 0
 510 363 428 471 275 471 c 0
 123 471 41 363 41 231 c 0
 41 100 123 -9 275 -9 c 0
 428 -9 510 100 510 231 c 0
EndSplineSet
Validated: 9
EndChar

StartChar: divide
Encoding: 247 247 184
Width: 625
Flags: MW
HStem: -1 122<295.5 329.5> 237 79<45 581 45 581> 432 123<295.5 329.5>
VStem: 251 123<43 77 476.5 510>
LayerCount: 2
Fore
SplineSet
312 432 m 0
 279 432 251 460 251 493 c 0
 251 527 279 555 312 555 c 0
 347 555 374 527 374 493 c 0
 374 460 347 432 312 432 c 0
581 237 m 1
 45 237 l 1
 45 316 l 1
 581 316 l 1
 581 237 l 1
312 -1 m 0
 279 -1 251 26 251 60 c 0
 251 94 279 121 312 121 c 0
 347 121 374 94 374 60 c 0
 374 26 347 -1 312 -1 c 0
EndSplineSet
Validated: 1
EndChar

StartChar: oslash
Encoding: 248 248 185
Width: 548
Flags: MW
HStem: -67 21G<88 88 88 105> -9 21G<252 351.5> 451 20G<199 298> 505 20G<444 460 460 460>
VStem: 41 125<198.5 296> 384 126<164.5 261>
LayerCount: 2
Fore
SplineSet
384 230 m 0
 384 292 377 338 366 370 c 1
 189 72 l 1
 205 21 232 6 275 6 c 0
 350 6 384 49 384 230 c 0
88 -67 m 1
 144 26 l 1
 76 68 41 144 41 230 c 0
 41 362 123 471 275 471 c 0
 321 471 362 460 395 443 c 1
 444 525 l 1
 460 525 l 1
 407 436 l 1
 475 394 510 317 510 230 c 0
 510 99 428 -9 275 -9 c 0
 229 -9 189 1 156 18 c 1
 105 -67 l 1
 88 -67 l 1
183 90 m 1
 361 389 l 1
 345 440 319 456 275 456 c 0
 201 456 166 411 166 230 c 0
 166 167 172 122 183 90 c 1
EndSplineSet
Validated: 1
EndChar

StartChar: ugrave
Encoding: 249 249 186
Width: 543
Flags: MW
HStem: -9 61<168.5 290> -8 72 451 20G<177 177 472 472> 541 21G<382 411 382 382> 678 20G 684 20G<238 238>
VStem: 71 124 72 105<82 471 146 362> 366 106<88 95 9 471 123 362 123 123> 366 125
LayerCount: 2
Fore
SplineSet
523 29 m 1xa180
 481 34 472 40 472 88 c 2
 472 471 l 1
 319 452 l 1
 319 437 l 1
 369 433 366 423 366 362 c 2
 366 123 l 1
 347 82 309 52 271 52 c 0
 213 52 177 80 177 146 c 2
 177 471 l 1
 16 452 l 1
 16 437 l 1
 74 431 72 425 72 362 c 2
 72 143 l 2
 72 21 131 -9 206 -9 c 0
 271 -9 345 40 366 95 c 1
 366 9 l 1
 366 9 366 -12 392 -8 c 2
 523 15 l 1
 523 29 l 1xa180
238 704 m 1x14
 411 541 l 1
 382 541 l 1
 142 675 l 1
 238 704 l 1x14
EndSplineSet
Validated: 41
EndChar

StartChar: ucircumflex
Encoding: 251 251 188
Width: 543
Flags: MW
HStem: -9 61<168.5 290> -8 72 451 20G<177 177 472 472> 517 20 683 21 699 20G
VStem: 71 124 72 105<82 471 146 362> 366 106<88 95 9 471 123 362 123 123> 366 125
LayerCount: 2
Fore
SplineSet
523 29 m 1xa180
 481 34 472 40 472 88 c 2
 472 471 l 1
 319 452 l 1
 319 437 l 1
 369 433 366 423 366 362 c 2
 366 123 l 1
 347 82 309 52 271 52 c 0
 213 52 177 80 177 146 c 2
 177 471 l 1
 16 452 l 1
 16 437 l 1
 74 431 72 425 72 362 c 2
 72 143 l 2
 72 21 131 -9 206 -9 c 0
 271 -9 345 40 366 95 c 1
 366 9 l 1
 366 9 366 -12 392 -8 c 2
 523 15 l 1
 523 29 l 1xa180
389 517 m 1x18
 271 606 l 1
 152 517 l 1
 122 517 l 1
 271 704 l 1
 420 517 l 1
 389 517 l 1x18
EndSplineSet
Validated: 41
EndChar

StartChar: udieresis
Encoding: 252 252 189
Width: 543
Flags: MW
HStem: 563 106<164 193.5 338 367.5>
VStem: 126 106<601.5 630.5> 300 105<601.5 630.5>
LayerCount: 2
Fore
SplineSet
353 563 m 0
 323 563 300 587 300 616 c 0
 300 645 323 669 353 669 c 0
 382 669 405 645 405 616 c 0
 405 587 382 563 353 563 c 0
179 563 m 0
 149 563 126 587 126 616 c 0
 126 645 149 669 179 669 c 0
 208 669 232 645 232 616 c 0
 232 587 208 563 179 563 c 0
523 29 m 1
 523 15 l 1
 392 -8 l 2
 366 -12 366 9 366 9 c 1
 366 95 l 1
 345 40 271 -9 206 -9 c 0
 131 -9 72 21 72 143 c 2
 72 362 l 2
 72 425 74 431 16 437 c 1
 16 452 l 1
 177 471 l 1
 177 146 l 2
 177 80 213 52 271 52 c 0
 309 52 347 82 366 123 c 1
 366 362 l 2
 366 423 369 433 319 437 c 1
 319 452 l 1
 472 471 l 1
 472 88 l 2
 472 40 481 34 523 29 c 1
EndSplineSet
Validated: 33
EndChar

StartChar: yacute
Encoding: 253 253 190
Width: 536
Flags: MW
HStem: 442 20G<9 231 231 231 326 520 520 520> 541 21G<133 133 133 162> 684 20G<306 306>
LayerCount: 2
Fore
SplineSet
326 462 m 1
 520 462 l 1
 520 447 l 1
 492 447 452 442 391 289 c 2
 237 -124 l 2
 214 -186 185 -212 169 -225 c 0
 152 -238 122 -244 100 -234 c 0
 69 -220 56 -184 69 -153 c 0
 83 -122 119 -108 150 -122 c 0
 166 -129 176 -144 181 -158 c 0
 184 -171 206 -161 221 -121 c 2
 263 -7 l 1
 172 197 76 403 76 403 c 2
 58 445 24 447 9 447 c 1
 9 462 l 1
 231 462 l 1
 231 447 l 1
 172 447 203 381 203 381 c 1
 317 135 l 1
 377 293 l 1
 377 293 442 449 326 447 c 1
 326 462 l 1
133 541 m 1
 306 704 l 1x60
 402 675 l 1
 162 541 l 1
 133 541 l 1
EndSplineSet
Validated: 33
EndChar

StartChar: thorn
Encoding: 254 254 191
Width: 579
Flags: MW
HStem: -265 21G<26 213 26 26> -9 21G<269 361.5> 437 34<297.5 322> 711 20G<172 172>
VStem: 66 106<-164 25 140 325 392 627 627 644.5> 410 123<148 295>
LayerCount: 2
Fore
SplineSet
410 215 m 0
 410 375 364 437 280 437 c 0
 217 437 178 389 172 325 c 1
 172 140 l 1
 179 44 234 6 291 6 c 0
 361 6 410 59 410 215 c 0
533 227 m 0
 533 69 430 -9 293 -9 c 0
 245 -9 203 4 172 25 c 1
 172 -164 l 2
 172 -219 177 -241 213 -250 c 1
 213 -265 l 1
 26 -265 l 1
 26 -250 l 1
 64 -239 66 -215 66 -164 c 2
 66 627 l 2
 66 662 57 671 16 682 c 1
 16 697 l 1
 172 731 l 1
 172 392 l 1
 203 448 273 471 322 471 c 0
 445 471 533 375 533 227 c 0
EndSplineSet
Validated: 1
EndChar

StartChar: ydieresis
Encoding: 255 255 192
Width: 536
Flags: MW
HStem: 442 20G<9 231 231 231 326 520 520 520> 447 222<9 195 165.5 231 165.5 326> 563 106<165.5 195 339.5 368.5>
VStem: 128 105<601.5 630.5> 302 105<601.5 630.5>
LayerCount: 2
Fore
SplineSet
354 563 m 0xb8
 325 563 302 587 302 616 c 0
 302 645 325 669 354 669 c 0
 383 669 407 645 407 616 c 0
 407 587 383 563 354 563 c 0xb8
326 462 m 1x58
 520 462 l 1
 520 447 l 1xb8
 492 447 452 442 391 289 c 2
 237 -124 l 2
 214 -186 185 -212 169 -225 c 0
 152 -238 122 -244 100 -234 c 0
 69 -220 56 -184 69 -153 c 0x58
 83 -122 119 -108 150 -122 c 0
 166 -129 176 -144 181 -158 c 0xb8
 184 -171 206 -161 221 -121 c 2
 263 -7 l 1
 172 197 76 403 76 403 c 2
 58 445 24 447 9 447 c 1
 9 462 l 1
 231 462 l 1
 231 447 l 1
 172 447 203 381 203 381 c 1
 317 135 l 1
 377 293 l 1
 377 293 442 449 326 447 c 1
 326 462 l 1x58
180 563 m 0
 151 563 128 587 128 616 c 0
 128 645 151 669 180 669 c 0
 210 669 233 645 233 616 c 0
 233 587 210 563 180 563 c 0
EndSplineSet
Validated: 33
EndChar

StartChar: abreve
Encoding: 259 259 194
Width: 508
Flags: MW
HStem: -9 53<190.5 191> 451 20G<254 314>
VStem: 41 109<109 144 109 145.5> 298 108<111 241 241 241 258 271 111 318 111 369.5>
LayerCount: 2
Fore
SplineSet
298 241 m 1
 191 217 150 172 150 116 c 0
 150 102 159 44 222 44 c 0
 265 44 289 75 298 99 c 0
 298 101 298 241 298 241 c 1
481 66 m 1
 496 60 l 1
 489 29 449 -9 391 -9 c 1
 391 -9 308 -10 299 74 c 1
 285 28 226 -9 156 -9 c 1
 156 -9 41 -9 41 93 c 0
 41 198 125 214 298 258 c 1
 298 318 l 2
 298 421 244 476 169 440 c 0
 134 422 129 404 135 403 c 0
 149 401 160 395 169 383 c 0
 186 360 180 328 157 311 c 0
 134 295 101 300 85 323 c 0
 73 340 72 362 81 378 c 0
 90 394 105 422 159 451 c 0
 203 474 254 471 254 471 c 1
 374 471 406 389 406 271 c 2
 406 111 l 1
 406 111 406 45 453 45 c 1
 453 45 475 45 481 66 c 1
380 704 m 1
 393 704 l 1
 393 628 358 560 263 560 c 0
 166 560 129 628 129 704 c 1
 143 704 l 1
 143 667 165 626 263 626 c 0
 357 626 380 667 380 704 c 1
EndSplineSet
Validated: 33
EndChar

StartChar: Aogonek
Encoding: 260 260 195
Width: 698
Flags: MW
HStem: -185 37 0 15<16 251 16 16 426 459> 205 15<172 411 172 417 169 411> 684 20G<336 349 349 349>
VStem: 16 132 467 216 642 14<-116 -106>
LayerCount: 2
Fore
SplineSet
683 15 m 1xfc
 683 0 l 1
 614 0 l 1x74
 562 -30 534 -75 544 -110 c 0
 555 -156 606 -148 606 -148 c 1
 628 -146 642 -126 642 -106 c 1
 656 -106 l 1
 656 -142 648 -178 593 -185 c 0xf2
 507 -197 490 -140 490 -140 c 1
 470 -74 510 -31 575 0 c 1
 426 0 l 1
 426 15 l 1
 492 15 461 97 449 125 c 2
 417 205 l 1
 169 205 l 1
 155 165 102 9 251 15 c 1
 251 0 l 1
 16 0 l 1
 16 15 l 1
 48 16 73 15 165 248 c 1
 336 704 l 1
 349 704 l 1
 533 263 600 92 600 92 c 2
 633 12 656 17 683 15 c 1xfc
172 220 m 1
 411 220 l 1
 287 532 l 1
 172 220 l 1
EndSplineSet
Validated: 33
EndChar

StartChar: aogonek
Encoding: 261 261 196
Width: 508
Flags: MW
HStem: -184 37 -9 53<190.5 191> -6 21G 302 101 451 20<254 314>
VStem: 41 109<109 144 109 145.5> 75 104 298 108<111 241 241 241 258 271 111 318 111 369.5> 453 14<-115 -105>
LayerCount: 2
Fore
SplineSet
481 66 m 1x5b80
 496 60 l 1
 490 33 458 0 411 -7 c 1
 368 -37 346 -77 355 -109 c 0
 366 -155 417 -147 417 -147 c 1
 439 -145 453 -125 453 -105 c 1
 467 -105 l 1
 467 -141 459 -177 404 -184 c 0
 318 -196 301 -139 301 -139 c 1
 283 -79 315 -37 370 -6 c 1xbb80
 345 -1 305 17 299 74 c 1
 285 28 226 -9 156 -9 c 1
 156 -9 41 -9 41 93 c 0x5d80
 41 198 125 214 298 258 c 1
 298 318 l 2
 298 421 244 476 169 440 c 0
 134 422 129 404 135 403 c 0
 149 401 160 395 169 383 c 0
 186 360 180 328 157 311 c 0
 134 295 101 300 85 323 c 0
 73 340 72 362 81 378 c 0
 90 394 105 422 159 451 c 0
 203 474 254 471 254 471 c 1
 374 471 406 389 406 271 c 2
 406 111 l 1
 406 111 406 45 453 45 c 1
 453 45 475 45 481 66 c 1x5b80
298 99 m 1x5d80
 298 241 l 1
 191 217 150 172 150 116 c 0
 150 102 159 44 222 44 c 0
 265 44 289 75 298 99 c 1x5d80
EndSplineSet
Validated: 33
EndChar

StartChar: Cacute
Encoding: 262 262 197
Width: 681
Flags: MW
HStem: -9 21G<282.5 441.5> 189 20G<610 625 625 625> 693 20G<282.5 439.5> 735 21G<224 224 224 253> 878 20G<397 397>
VStem: 41 154<246.5 458>
LayerCount: 2
Fore
SplineSet
610 209 m 1
 625 209 l 1
 638 53 l 1
 564 4 495 -9 388 -9 c 0
 177 -9 41 141 41 352 c 0
 41 564 177 713 388 713 c 0
 491 713 575 703 638 652 c 1
 625 496 l 1
 610 496 l 1
 568 646 485 698 388 698 c 0
 280 698 195 640 195 352 c 0
 195 61 283 6 388 6 c 0
 488 6 591 78 610 209 c 1
224 735 m 1
 397 898 l 1x18
 493 869 l 1
 253 735 l 1
 224 735 l 1
EndSplineSet
Validated: 1
EndChar

StartChar: cacute
Encoding: 263 263 198
Width: 491
Flags: MW
HStem: -9 21G<203.5 326> 451 20G<215 338.5> 541 21G<130 130 130 159> 684 20G<303 303>
VStem: 45 110<185.5 291>
LayerCount: 2
Fore
SplineSet
444 128 m 1
 456 121 l 1
 443 71 388 -9 264 -9 c 0
 143 -9 45 100 45 232 c 0
 45 350 134 471 296 471 c 0
 381 471 417 434 430 419 c 0
 442 404 449 380 440 361 c 0
 429 333 396 317 367 328 c 0
 338 339 325 372 336 400 c 0
 341 415 352 426 365 431 c 0
 374 434 349 456 296 456 c 0
 258 456 155 425 155 246 c 0
 155 125 221 74 291 63 c 0
 353 54 423 92 444 128 c 1
130 541 m 1
 303 704 l 1x30
 399 675 l 1
 159 541 l 1
 130 541 l 1
EndSplineSet
Validated: 33
EndChar

StartChar: Ccaron
Encoding: 268 268 199
Width: 681
Flags: MW
HStem: -9 21G<282.5 441.5> 189 20G<610 625 625 625> 693 20G<282.5 439.5> 735 21G<365 365> 902 20G<216 246 246 246 483 514 514 514>
VStem: 41 154<246.5 458>
LayerCount: 2
Fore
SplineSet
610 209 m 1
 625 209 l 1
 638 53 l 1
 564 4 495 -9 388 -9 c 0
 177 -9 41 141 41 352 c 0
 41 564 177 713 388 713 c 0
 491 713 575 703 638 652 c 1
 625 496 l 1
 610 496 l 1
 568 646 485 698 388 698 c 0
 280 698 195 640 195 352 c 0
 195 61 283 6 388 6 c 0
 488 6 591 78 610 209 c 1
365 833 m 1
 483 922 l 1x18
 514 922 l 1
 365 735 l 1
 216 922 l 1
 246 922 l 1
 365 833 l 1
EndSplineSet
Validated: 1
EndChar

StartChar: ccaron
Encoding: 269 269 200
Width: 491
Flags: MW
HStem: -9 21G<203.5 326> 451 20G<215 338.5> 517 21G<265 265> 684 20G<116 146 146 146 383 414 414 414>
VStem: 45 110<185.5 291>
LayerCount: 2
Fore
SplineSet
444 128 m 1
 456 121 l 1
 443 71 388 -9 264 -9 c 0
 143 -9 45 100 45 232 c 0
 45 350 134 471 296 471 c 0
 381 471 417 434 430 419 c 0
 442 404 449 380 440 361 c 0
 429 333 396 317 367 328 c 0
 338 339 325 372 336 400 c 0
 341 415 352 426 365 431 c 0
 374 434 349 456 296 456 c 0
 258 456 155 425 155 246 c 0
 155 125 221 74 291 63 c 0
 353 54 423 92 444 128 c 1
265 615 m 1
 383 704 l 1x30
 414 704 l 1
 265 517 l 1
 116 704 l 1
 146 704 l 1
 265 615 l 1
EndSplineSet
Validated: 33
EndChar

StartChar: Dcaron
Encoding: 270 270 201
Width: 768
Flags: MW
HStem: 0 21G<41 281 41 41> 684 20G<41 281 281 380.5> 735 21G<299 299> 902 20G<150 180 180 180 417 448 448 448>
VStem: 112 125<128 576 576 607> 541 148<201 496.5 201 508.5>
LayerCount: 2
Fore
SplineSet
541 350 m 0
 541 667 385 689 281 689 c 2
 237 689 l 1
 237 15 l 1
 281 15 l 2
 383 15 541 28 541 350 c 0
689 350 m 0
 689 52 480 0 281 0 c 2
 41 0 l 1
 41 15 l 1
 84 15 112 60 112 128 c 2
 112 576 l 2
 112 638 85 689 41 689 c 1
 41 704 l 1
 281 704 l 2
 480 704 689 643 689 350 c 0
299 833 m 1
 417 922 l 1x30
 448 922 l 1
 299 735 l 1
 150 922 l 1
 180 922 l 1
 299 833 l 1
EndSplineSet
Validated: 1
EndChar

StartChar: dcaron
Encoding: 271 271 202
Width: 695
Flags: MW
HStem: -9 32<241 270> 451 20G<206 298> 684 20G<572 656 656 656> 722 20G<501 501>
VStem: 34 123<169 316.5> 396 105<63.5 68 68 68 142 300 300 355.5 438 637 637 654.5> 572 84<638.5 704 638.5 704>
LayerCount: 2
Fore
SplineSet
572 704 m 1
 656 704 l 1
 656 573 536 504 536 504 c 1
 526 517 l 1
 526 517 572 555 572 704 c 1
552 27 m 1
 552 12 l 1
 424 -8 l 2
 396 -12 396 10 396 10 c 1
 396 68 l 1
 364 13 294 -9 246 -9 c 0
 122 -9 34 89 34 237 c 0
 34 396 138 471 274 471 c 0
 322 471 364 458 396 438 c 1
 396 637 l 2
 396 672 386 684 345 695 c 1
 345 710 l 1
 501 742 l 1
 501 88 l 2
 501 39 511 30 552 27 c 1
396 142 m 2
 396 300 l 2
 396 411 335 456 276 456 c 0
 206 456 157 405 157 249 c 0
 157 89 199 23 283 23 c 0
 350 23 396 72 396 142 c 2
EndSplineSet
Validated: 33
EndChar

StartChar: Dcroat
Encoding: 272 272 203
Width: 739
Flags: MW
HStem: 0 21G<38 277 38 38> 322 20G<26 109 26 26 233 378 233 233> 341 20G<26 109 109 109 233 378 378 378> 684 20G<38 277 277 376.5>
VStem: 109 124<128 342 15 342 361 576 576 607> 537 148<201 496.5 201 508.5>
LayerCount: 2
Fore
SplineSet
537 350 m 0xbc
 537 667 381 689 277 689 c 2
 233 689 l 1
 233 361 l 1
 378 361 l 1
 378 342 l 1
 233 342 l 1
 233 15 l 1xdc
 277 15 l 2
 380 15 537 28 537 350 c 0xbc
685 350 m 0
 685 52 476 0 277 0 c 2
 38 0 l 1
 38 15 l 1
 81 15 109 60 109 128 c 2
 109 342 l 1
 26 342 l 1
 26 361 l 1
 109 361 l 1
 109 576 l 2xbc
 109 638 82 689 38 689 c 1
 38 704 l 1
 277 704 l 2
 476 704 685 643 685 350 c 0
EndSplineSet
Validated: 1
EndChar

StartChar: dcroat
Encoding: 273 273 204
Width: 600
Flags: MW
HStem: -9 32<241 270> 451 20G<206 298> 456 126<286 305.5> 722 20G<501 501>
VStem: 34 123<169 316.5> 396 105<63.5 68 68 68 142 300 300 355.5 438 564 582 637 637 654.5>
LayerCount: 2
Fore
SplineSet
396 142 m 2xdc
 396 300 l 2
 396 411 335 456 276 456 c 0
 206 456 157 405 157 249 c 0
 157 89 199 23 283 23 c 0
 350 23 396 72 396 142 c 2xdc
286 564 m 1
 286 582 l 1
 396 582 l 1
 396 637 l 2
 396 672 386 684 345 695 c 1
 345 710 l 1
 501 742 l 1
 501 582 l 1
 601 582 l 1
 601 564 l 1
 501 564 l 1xbc
 501 88 l 2
 501 39 511 30 552 27 c 1
 552 12 l 1
 424 -8 l 2
 396 -12 396 10 396 10 c 1
 396 68 l 1
 364 13 294 -9 246 -9 c 0
 122 -9 34 89 34 237 c 0
 34 396 138 471 274 471 c 0
 322 471 364 458 396 438 c 1
 396 564 l 1
 286 564 l 1
EndSplineSet
Validated: 33
EndChar

StartChar: Eogonek
Encoding: 280 280 205
Width: 653
Flags: MW
HStem: -187 37 0 15<29 50 209 250 250 272 29 50> 348 15<209 259 209 259> 445 20G<410 425 425 425> 689 15<29 51 209 209 209 254>
VStem: 85 124<127 348 363 582 582 613> 410 15<245 465 245 465> 534 15<519 704> 547 15<0 213> 556 14<-118 -108>
LayerCount: 2
Fore
SplineSet
547 213 m 1x7e80
 562 213 l 1
 562 0 l 1
 531 0 l 1x7e80
 477 -30 448 -76 458 -112 c 0
 469 -158 520 -150 520 -150 c 1
 542 -148 556 -128 556 -108 c 1
 570 -108 l 1
 570 -144 562 -180 507 -187 c 0xfe40
 421 -199 404 -142 404 -142 c 1
 384 -75 426 -31 493 0 c 1
 29 0 l 1
 29 15 l 1
 71 15 85 59 85 127 c 2
 85 582 l 2
 85 644 73 689 29 689 c 1
 29 704 l 1
 549 704 l 1
 549 519 l 1
 534 519 l 1xff
 517 688 295 689 254 689 c 2
 209 689 l 1
 209 363 l 1
 259 363 l 2
 273 363 402 363 410 465 c 1
 425 465 l 1
 425 245 l 1
 410 245 l 1
 402 348 272 348 259 348 c 2
 209 348 l 1
 209 15 l 1
 250 15 l 2
 294 15 515 13 547 213 c 1x7e80
EndSplineSet
Validated: 33
EndChar

StartChar: eogonek
Encoding: 281 281 206
Width: 507
Flags: MW
HStem: -9 21G<239 244 239 240> 235 20G<148 362 362 362> 240 231<196.5 327.5 196.5 466 148 327.5>
VStem: 36 112<240 240 255 300> 362 104<255 318.5 240 323>
LayerCount: 2
Fore
SplineSet
258 456 m 0xd8
 200 456 148 366 148 255 c 1
 362 255 l 1
 362 391 309 456 258 456 c 0xd8
281 60 m 0
 339 51 414 79 436 127 c 1
 450 120 l 1
 438 76 391 6 289 -7 c 1
 239 -37 213 -80 221 -115 c 0
 234 -160 284 -152 284 -152 c 1
 306 -150 319 -130 319 -110 c 1
 334 -110 l 1
 334 -146 325 -181 270 -190 c 0
 184 -200 168 -144 168 -144 c 1
 149 -83 185 -39 244 -9 c 1
 242 -9 241 -9 239 -9 c 0
 119 -1 36 108 36 228 c 0
 36 372 131 471 262 471 c 0
 393 471 466 397 466 240 c 1
 148 240 l 1xb8
 154 124 209 71 281 60 c 0
EndSplineSet
Validated: 33
EndChar

StartChar: Ecaron
Encoding: 282 282 207
Width: 653
Flags: MW
HStem: 0 21G<29 562 29 29> 193 20G<547 562 562 562> 198 20G 223 20G 225 20G<410 425 410 410> 328 20G<209 259 209 209> 330 20G 343 20G<209 259 259 266> 445 20G<410 425 425 425> 684 20G<29 549 549 549> 735 21G<311 311> 902 20G<162 192 192 192 429 460 460 460> 939 20G
VStem: 85 124<127 348 363 582 582 613> 85 145
LayerCount: 2
Fore
SplineSet
547 213 m 1xb24a
 562 213 l 1xc9c4
 562 0 l 1
 29 0 l 1
 29 15 l 1
 71 15 85 59 85 127 c 2
 85 582 l 2
 85 644 73 689 29 689 c 1
 29 704 l 1
 549 704 l 1
 549 519 l 1xccc4
 534 519 l 1
 517 688 295 689 254 689 c 2
 209 689 l 1
 209 363 l 1
 259 363 l 2
 273 363 402 363 410 465 c 1
 425 465 l 1
 425 245 l 1
 410 245 l 1
 402 348 272 348 259 348 c 2
 209 348 l 1
 209 15 l 1
 250 15 l 2
 294 15 515 13 547 213 c 1xb24a
311 833 m 1
 429 922 l 1x0030
 460 922 l 1
 311 735 l 1
 162 922 l 1
 192 922 l 1
 311 833 l 1
EndSplineSet
Validated: 33
EndChar

StartChar: ecaron
Encoding: 283 283 208
Width: 507
Flags: MW
HStem: -9 21G<189.5 316> 235 20G<148 362 362 362> 240 231<196.5 327.5 196.5 466 148 327.5> 517 21G<257 257> 684 20G<108 138 138 138 375 406 406 406>
VStem: 36 112<240 240 255 300> 362 104<255 318.5 240 323>
LayerCount: 2
Fore
SplineSet
148 255 m 1xa6
 362 255 l 1
 362 391 309 456 258 456 c 0
 200 456 148 366 148 255 c 1xa6
436 127 m 1
 450 120 l 1
 437 71 379 -9 253 -9 c 0
 126 -9 36 103 36 228 c 0
 36 372 131 471 262 471 c 0
 393 471 466 397 466 240 c 1
 148 240 l 1xc6
 154 124 209 71 281 60 c 0
 339 51 414 79 436 127 c 1
257 615 m 1
 375 704 l 1x18
 406 704 l 1
 257 517 l 1
 108 704 l 1
 138 704 l 1
 257 615 l 1
EndSplineSet
Validated: 33
EndChar

StartChar: dotlessi
Encoding: 305 305 209
Width: 263
Flags: MW
HStem: 0 21G<39 225 39 39> 451 20G<184 184>
VStem: 79 105<107 357 357 374>
LayerCount: 2
Fore
SplineSet
225 15 m 1
 225 0 l 1
 39 0 l 1
 39 15 l 1
 77 27 79 56 79 107 c 2
 79 357 l 2
 79 391 69 405 28 422 c 1
 28 437 l 1
 184 471 l 1
 184 107 l 2
 184 52 189 25 225 15 c 1
EndSplineSet
Validated: 1
EndChar

StartChar: lacute
Encoding: 314 314 211
Width: 265
Flags: MW
HStem: 0 21G<33 220 33 33> 722 20G<179 179> 764 21G<-16 -16 -16 13> 907 20G<157 157>
VStem: 73 106<107 634 634 651.5>
LayerCount: 2
Fore
SplineSet
220 15 m 1
 220 0 l 1
 33 0 l 1
 33 15 l 1
 71 26 73 56 73 107 c 2
 73 634 l 2
 73 669 64 684 23 695 c 1
 23 710 l 1
 179 742 l 1
 179 107 l 2
 179 52 184 24 220 15 c 1
-16 764 m 1
 157 927 l 1x30
 253 898 l 1
 13 764 l 1
 -16 764 l 1
EndSplineSet
Validated: 1
EndChar

StartChar: Lcaron
Encoding: 317 317 212
Width: 637
Flags: MW
HStem: 0 21G<45 578 45 45> 197 20G<564 578 578 578> 504 21G<314 314> 684 20G<37 314 314 314 349 433 433 433>
VStem: 108 123<124 600 15 602 15 632.5> 349 84<638.5 704 638.5 704>
LayerCount: 2
Fore
SplineSet
349 704 m 1
 433 704 l 1
 433 573 314 504 314 504 c 1
 303 517 l 1
 303 517 349 555 349 704 c 1
564 217 m 1
 578 217 l 1xd8
 578 0 l 1
 45 0 l 1
 45 15 l 1
 88 15 108 56 108 124 c 2
 108 602 l 2
 108 663 80 689 37 689 c 1
 37 704 l 1
 314 704 l 1
 314 689 l 1
 271 689 231 672 231 600 c 2
 231 15 l 1
 267 15 l 2
 321 15 538 15 564 217 c 1
EndSplineSet
Validated: 1
EndChar

StartChar: lcaron
Encoding: 318 318 213
Width: 392
Flags: MW
HStem: 0 21G<33 220 33 33> 684 20G<252 336 336 336> 722 20G<179 179>
VStem: 73 106<107 634 634 651.5> 252 84<638.5 704 638.5 704>
LayerCount: 2
Fore
SplineSet
252 704 m 1
 336 704 l 1
 336 573 217 504 217 504 c 1
 206 517 l 1
 206 517 252 555 252 704 c 1
220 15 m 1
 220 0 l 1
 33 0 l 1
 33 15 l 1
 71 26 73 56 73 107 c 2
 73 634 l 2
 73 669 64 684 23 695 c 1
 23 710 l 1
 179 742 l 1
 179 107 l 2
 179 52 184 24 220 15 c 1
EndSplineSet
Validated: 1
EndChar

StartChar: Lslash
Encoding: 321 321 214
Width: 646
Flags: MW
HStem: 0 21G<69 603 69 69> 198 20G<588 603 603 603> 684 20G<61 339 339 339>
VStem: 132 123<131 284 284 284 303 354 373 600>
LayerCount: 2
Fore
SplineSet
588 218 m 1
 603 218 l 1
 603 0 l 1
 69 0 l 1
 69 15 l 1
 111 15 132 63 132 131 c 2
 132 284 l 1
 10 216 l 1
 10 235 l 1
 132 303 l 1
 132 602 l 2
 132 664 104 689 61 689 c 1
 61 704 l 1
 339 704 l 1
 339 689 l 1
 295 689 255 673 255 600 c 2
 255 373 l 1
 454 485 l 1
 454 466 l 1
 255 354 l 1
 255 15 l 1
 291 15 l 2
 550 15 588 166 588 218 c 1
EndSplineSet
Validated: 1
EndChar

StartChar: lslash
Encoding: 322 322 215
Width: 312
Flags: MW
HStem: 0 21G<62 248 62 62> 726 20G<208 208>
VStem: 102 106<107 322 322 322 341 390 409 636 636 653.5>
LayerCount: 2
Fore
SplineSet
12 266 m 1
 12 285 l 1
 102 341 l 1
 102 636 l 2
 102 671 92 685 52 697 c 1
 52 711 l 1
 208 746 l 1
 208 409 l 1
 295 464 l 1
 295 445 l 1
 208 390 l 1
 208 107 l 2
 208 52 213 24 248 15 c 1
 248 0 l 1
 62 0 l 1
 62 15 l 1
 100 26 102 56 102 107 c 2
 102 322 l 1
 12 266 l 1
EndSplineSet
Validated: 1
EndChar

StartChar: Nacute
Encoding: 323 323 216
Width: 840
Flags: MW
HStem: 0 21G<21 317 21 21 614 657 614 614> 684 20G<9 224 224 224 508 802 802 802> 735 21G<273 273 273 302> 878 20G<446 446>
LayerCount: 2
Fore
SplineSet
508 704 m 1
 802 704 l 1
 802 689 l 1
 654 690 657 499 657 453 c 2
 657 0 l 1
 614 0 l 1
 183 549 l 1
 183 253 l 2
 183 208 182 15 317 15 c 1
 317 0 l 1
 21 0 l 1
 21 15 l 1
 168 15 168 208 168 253 c 2
 168 565 l 1
 128 616 l 2
 64 696 35 687 9 689 c 1
 9 704 l 1
 224 704 l 1
 642 177 l 1
 642 453 l 2
 642 499 642 690 508 689 c 1
 508 704 l 1
273 735 m 1
 446 898 l 1x30
 542 869 l 1
 302 735 l 1
 273 735 l 1
EndSplineSet
Validated: 33
EndChar

StartChar: nacute
Encoding: 324 324 217
Width: 519
Flags: MW
HStem: 0 21G<21 207 21 21 312 499 312 312> 410 61 541 21G<144 144 144 173> 684 20G<317 317>
VStem: 60 106<106 326 365 375.5> 352 106<107 312 312 315>
LayerCount: 2
Fore
SplineSet
499 15 m 1
 499 0 l 1
 312 0 l 1
 312 15 l 1
 350 26 352 56 352 107 c 2
 352 312 l 2
 352 370 318 410 260 410 c 0
 215 410 170 364 166 326 c 1
 166 106 l 2
 166 51 172 25 207 15 c 1
 207 0 l 1
 21 0 l 1
 21 15 l 1
 59 26 60 55 60 106 c 2
 60 358 l 2
 60 393 51 405 10 422 c 1
 10 437 l 1
 166 471 l 1
 166 365 l 1
 188 425 263 471 326 471 c 0
 405 471 458 436 458 315 c 2
 458 107 l 2
 458 52 463 24 499 15 c 1
144 541 m 1
 317 704 l 1x30
 413 675 l 1
 173 541 l 1
 144 541 l 1
EndSplineSet
Validated: 1
EndChar

StartChar: Ncaron
Encoding: 327 327 218
Width: 840
Flags: MW
HStem: 0 21G<21 317 21 21 614 657 614 614> 684 20G<9 224 224 224 508 802 802 802> 735 21G<404 404> 902 20G<255 285 285 285 522 553 553 553> 937 20G
LayerCount: 2
Fore
SplineSet
508 704 m 1
 802 704 l 1
 802 689 l 1
 654 690 657 499 657 453 c 2
 657 0 l 1
 614 0 l 1
 183 549 l 1
 183 253 l 2
 183 208 182 15 317 15 c 1
 317 0 l 1
 21 0 l 1
 21 15 l 1
 168 15 168 208 168 253 c 2
 168 565 l 1
 128 616 l 2
 64 696 35 687 9 689 c 1
 9 704 l 1
 224 704 l 1
 642 177 l 1
 642 453 l 2
 642 499 642 690 508 689 c 1
 508 704 l 1
404 833 m 1
 522 922 l 1x30
 553 922 l 1
 404 735 l 1
 255 922 l 1
 285 922 l 1
 404 833 l 1
EndSplineSet
Validated: 33
EndChar

StartChar: ncaron
Encoding: 328 328 219
Width: 519
Flags: MW
HStem: 0 21G<21 207 21 21 312 499 312 312> 410 61 517 21G<262 262> 684 20G<113 143 143 143 380 411 411 411>
VStem: 60 106<106 326 365 375.5> 352 106<107 312 312 315>
LayerCount: 2
Fore
SplineSet
499 15 m 1
 499 0 l 1
 312 0 l 1
 312 15 l 1
 350 26 352 56 352 107 c 2
 352 312 l 2
 352 370 318 410 260 410 c 0
 215 410 170 364 166 326 c 1
 166 106 l 2
 166 51 172 25 207 15 c 1
 207 0 l 1
 21 0 l 1
 21 15 l 1
 59 26 60 55 60 106 c 2
 60 358 l 2
 60 393 51 405 10 422 c 1
 10 437 l 1
 166 471 l 1
 166 365 l 1
 188 425 263 471 326 471 c 0
 405 471 458 436 458 315 c 2
 458 107 l 2
 458 52 463 24 499 15 c 1
262 615 m 1
 380 704 l 1x30
 411 704 l 1
 262 517 l 1
 113 704 l 1
 143 704 l 1
 262 615 l 1
EndSplineSet
Validated: 1
EndChar

StartChar: Ohungarumlaut
Encoding: 336 336 220
Width: 775
Flags: MW
HStem: -9 21G<266 486> 693 20G<266 486> 735 21G<205 205 205 234 380 380 380 409> 879 20G<375 375 550 550>
VStem: 41 143<247.5 446> 566 145<247.5 446 247.5 484>
LayerCount: 2
Fore
SplineSet
566 347 m 0
 566 621 494 698 376 698 c 0
 257 698 184 621 184 347 c 0
 184 72 257 6 376 6 c 0
 494 6 566 72 566 347 c 0
711 347 m 0
 711 148 596 -9 376 -9 c 0
 156 -9 41 148 41 347 c 0
 41 545 156 713 376 713 c 0
 596 713 711 545 711 347 c 0
380 735 m 1
 550 899 l 1x30
 649 869 l 1
 409 735 l 1
 380 735 l 1
205 735 m 1
 375 899 l 1
 474 869 l 1
 234 735 l 1
 205 735 l 1
EndSplineSet
Validated: 1
EndChar

StartChar: ohungarumlaut
Encoding: 337 337 221
Width: 548
Flags: MW
HStem: -9 21G<199 351.5> 451 20G<199 351.5> 541 21G<100 100 100 129 275 275 275 304> 685 20G<270 270 445 445>
VStem: 41 125<165.5 297> 384 126<165.5 297 165.5 321.5>
LayerCount: 2
Fore
SplineSet
384 231 m 0
 384 412 350 456 275 456 c 0
 201 456 166 412 166 231 c 0
 166 50 201 6 275 6 c 0
 350 6 384 50 384 231 c 0
510 231 m 0
 510 100 428 -9 275 -9 c 0
 123 -9 41 100 41 231 c 0
 41 363 123 471 275 471 c 0
 428 471 510 363 510 231 c 0
275 541 m 1
 445 705 l 1x30
 544 675 l 1
 304 541 l 1
 275 541 l 1
100 541 m 1
 270 705 l 1
 369 675 l 1
 129 541 l 1
 100 541 l 1
EndSplineSet
Validated: 1
EndChar

StartChar: OE
Encoding: 338 338 222
Width: 966
Flags: MW
HStem: -9 21G<247 372> 0 21G<429 902 429 429> 193 20G<887 902 902 902> 225 20G<745 760 745 745> 328 20G<585 625 585 585> 343 20G<585 625 625 632> 445 20G<745 760 760 760> 684 20G<426 889 889 889> 693 20G<247 371.5>
VStem: 42 143<247.5 446> 461 124<118 348 363 582 582 637>
LayerCount: 2
Fore
SplineSet
461 118 m 2xbb60
 461 582 l 2
 461 692 407 698 357 698 c 0
 238 698 185 621 185 347 c 0
 185 72 238 6 357 6 c 0
 406 6 461 12 461 118 c 2xbb60
887 213 m 1
 902 213 l 1
 902 0 l 1
 429 0 l 1
 403 -5 387 -9 357 -9 c 0
 137 -9 42 148 42 347 c 0x7b60
 42 545 137 713 357 713 c 0
 386 713 401 710 426 704 c 1
 889 704 l 1
 889 519 l 1
 874 519 l 1
 847 693 665 689 625 689 c 2
 585 689 l 1
 585 363 l 1xbae0
 625 363 l 2
 639 363 738 360 745 465 c 1
 760 465 l 1xb760
 760 245 l 1
 745 245 l 1
 738 351 638 348 625 348 c 2
 585 348 l 1
 585 15 l 1
 621 15 l 2
 665 15 858 11 887 213 c 1
EndSplineSet
Validated: 33
EndChar

StartChar: oe
Encoding: 339 339 223
Width: 784
Flags: MW
HStem: -9 21G<178 292 527 619.5> 231 20G<462 646 646 646> 236 235<528 619.5 178 462>
VStem: 40 125<163.5 295> 343 119<236 236 251 308 236 319.5> 646 97<251 316 236 320.5>
LayerCount: 2
Fore
SplineSet
462 251 m 1xbc
 646 251 l 1
 646 390 607 456 557 456 c 0
 496 456 462 365 462 251 c 1xbc
713 128 m 1
 729 120 l 1
 715 72 680 -9 559 -9 c 0
 495 -9 449 21 410 66 c 1
 373 19 330 -9 254 -9 c 0
 102 -9 40 98 40 229 c 0
 40 361 102 471 254 471 c 0
 329 471 379 438 412 391 c 1
 452 440 499 471 557 471 c 0
 682 471 743 396 743 236 c 1
 462 236 l 1
 465 123 503 72 577 60 c 0
 635 51 693 91 713 128 c 1
254 456 m 0
 186 456 165 410 165 229 c 0
 165 48 185 6 254 6 c 0xdc
 322 6 343 48 343 229 c 0
 343 410 320 456 254 456 c 0
EndSplineSet
Validated: 33
EndChar

StartChar: racute
Encoding: 341 341 225
Width: 425
Flags: MW
HStem: 0 21G<24 212 24 24> 541 21G<72 72 72 101> 684 20G<245 245>
VStem: 64 107<108 337 363 375>
LayerCount: 2
Fore
SplineSet
297 467 m 0
 317 472 348 468 366 451 c 0
 391 426 391 385 366 360 c 0
 341 335 301 334 274 359 c 0
 262 372 256 388 257 403 c 0
 259 417 205 400 171 337 c 1
 171 108 l 2
 171 52 176 25 212 15 c 1
 212 0 l 1
 24 0 l 1
 24 15 l 1
 62 27 64 56 64 108 c 2
 64 358 l 2
 64 392 55 407 14 422 c 1
 14 437 l 1
 171 471 l 1
 171 363 l 1
 216 438 265 459 297 467 c 0
72 541 m 1
 245 704 l 1x60
 341 675 l 1
 101 541 l 1
 72 541 l 1
EndSplineSet
Validated: 33
EndChar

StartChar: rcaron
Encoding: 345 345 227
Width: 397
Flags: MW
HStem: 0 21G<24 212 24 24> 518 21G<183 183> 685 20G<34 64 64 64 301 332 332 332>
VStem: 64 107<108 337 363 375>
LayerCount: 2
Fore
SplineSet
297 467 m 0
 317 472 348 468 366 451 c 0
 391 426 391 385 366 360 c 0
 341 335 301 334 274 359 c 0
 262 372 256 388 257 403 c 0
 259 417 205 400 171 337 c 1
 171 108 l 2
 171 52 176 25 212 15 c 1
 212 0 l 1
 24 0 l 1
 24 15 l 1
 62 27 64 56 64 108 c 2
 64 358 l 2
 64 392 55 407 14 422 c 1
 14 437 l 1
 171 471 l 1
 171 363 l 1
 216 438 265 459 297 467 c 0
183 616 m 1
 301 705 l 1x60
 332 705 l 1
 183 518 l 1
 34 705 l 1
 64 705 l 1
 183 616 l 1
EndSplineSet
Validated: 33
EndChar

StartChar: sacute
Encoding: 347 347 229
Width: 435
Flags: MW
HStem: -9 21G<164.5 273.5> 145 20G<47 62 62 62> 303 20G<347 362 347 347> 451 20G<147.5 255.5> 541 21G<99 99 99 128> 684 20G<272 272>
LayerCount: 2
Fore
SplineSet
358 43 m 1
 358 43 322 -9 225 -9 c 0
 104 -9 47 34 47 34 c 1
 47 165 l 1
 62 165 l 1
 73 112 101 6 225 6 c 0
 313 6 313 104 237 154 c 2
 136 215 l 2
 39 277 15 347 63 417 c 1
 63 417 97 471 198 471 c 0
 313 471 362 440 362 440 c 1
 362 323 l 1
 347 323 l 1
 337 370 307 456 198 456 c 0
 118 456 100 371 187 316 c 2
 288 253 l 2
 378 197 407 113 358 43 c 1
99 541 m 1
 272 704 l 1x0c
 368 675 l 1
 128 541 l 1
 99 541 l 1
EndSplineSet
Validated: 33
EndChar

StartChar: Scedilla
Encoding: 350 350 230
Width: 586
Flags: MW
HStem: -230 13<281 311.5 281 311.5> -92 33 -9 15<292 302 292 292> -8 14<277 277> 698 15<212 345 191.5 347.5>
VStem: 34 122 46 15<50 242 242 242> 219 54 350 49 415 120 493 15<497 665>
LayerCount: 2
Fore
SplineSet
505 73 m 1xac40
 505 73 460 -9 302 -9 c 2
 292 -9 l 1xaa20
 273 -64 l 1
 365 -43 405 -97 399 -148 c 0
 390 -217 328 -230 295 -230 c 0
 257 -230 234 -215 227 -209 c 0
 220 -203 216 -191 219 -181 c 0
 223 -166 239 -158 253 -162 c 0
 268 -167 277 -181 273 -196 c 0
 271 -203 268 -206 264 -208 c 0
 262 -210 267 -217 295 -217 c 0
 328 -217 350 -195 350 -161 c 0
 350 -139 328 -77 248 -92 c 1
 277 -8 l 1
 117 -3 46 50 46 50 c 1xdba0
 46 242 l 1
 61 242 l 1
 77 151 128 6 302 6 c 0
 431 6 458 163 338 249 c 1xaa40
 179 351 l 2
 60 427 -12 522 68 636 c 1
 68 636 117 713 266 713 c 0
 424 713 508 665 508 665 c 1
 508 497 l 1
 493 497 l 1xac20
 479 573 429 698 266 698 c 0
 158 698 97 562 237 471 c 2
 397 366 l 2
 530 278 569 169 505 73 c 1xac40
EndSplineSet
Validated: 33
EndChar

StartChar: scedilla
Encoding: 351 351 231
Width: 435
Flags: MW
HStem: -230 13<199 229.5 199 229.5> -92 33 -9 15<210 225 210 210> -8 14<195 195> 456 15<158 252.5>
VStem: 39 91 47 15<34 165 165 165> 137 54 268 49 293 89 347 15<323 440>
LayerCount: 2
Fore
SplineSet
358 43 m 1xaa40
 358 43 322 -9 225 -9 c 2
 210 -9 l 1xaa40
 191 -64 l 1
 283 -43 323 -97 317 -148 c 0
 308 -217 246 -230 213 -230 c 0
 175 -230 152 -215 145 -209 c 0
 138 -203 134 -191 137 -181 c 0
 141 -166 157 -158 171 -162 c 0
 186 -167 195 -181 191 -196 c 0
 189 -203 186 -206 182 -208 c 0
 180 -210 185 -217 213 -217 c 0
 246 -217 268 -195 268 -161 c 0
 268 -139 246 -77 166 -92 c 1
 195 -8 l 1
 95 -2 47 34 47 34 c 1xdb80
 47 165 l 1
 62 165 l 1
 73 112 101 6 225 6 c 0
 313 6 313 104 237 154 c 2xaa40
 136 215 l 2
 39 277 15 347 63 417 c 1
 63 417 97 471 198 471 c 0
 313 471 362 440 362 440 c 1
 362 323 l 1
 347 323 l 1
 337 370 307 456 198 456 c 0
 118 456 100 371 187 316 c 2xac20
 288 253 l 2
 378 197 407 113 358 43 c 1xaa40
EndSplineSet
Validated: 33
EndChar

StartChar: scaron
Encoding: 353 353 233
Width: 435
Flags: MW
HStem: -9 21G<164.5 273.5> 145 20G<47 62 62 62> 303 20G<347 362 347 347> 451 20G<147.5 255.5> 495 21G<205 205> 662 20G<56 86 86 86 323 354 354 354>
LayerCount: 2
Fore
SplineSet
205 593 m 1
 323 682 l 1
 354 682 l 1
 205 495 l 1
 56 682 l 1
 86 682 l 1
 205 593 l 1
358 43 m 1
 358 43 322 -9 225 -9 c 0
 104 -9 47 34 47 34 c 1
 47 165 l 1
 62 165 l 1
 73 112 101 6 225 6 c 0
 313 6 313 104 237 154 c 2
 136 215 l 2
 39 277 15 347 63 417 c 1
 63 417 97 471 198 471 c 0
 313 471 362 440 362 440 c 1
 362 323 l 1
 347 323 l 1
 337 370 307 456 198 456 c 0
 118 456 100 371 187 316 c 2
 288 253 l 2
 378 197 407 113 358 43 c 1
EndSplineSet
Validated: 33
EndChar

StartChar: uni0162
Encoding: 354 354 234
Width: 676
Flags: MW
HStem: -225 13<337 367.5 337 367.5> -87 33 0 15<196 217 196 334 196 217 455 476> 689 15<228.5 236 236 275 397 436 397 397>
VStem: 19 15<515 704> 275 54 275 122<109 689> 406 49 639 15<515 704>
LayerCount: 2
Fore
SplineSet
19 704 m 1xfa80
 654 704 l 1
 654 515 l 1
 639 515 l 1
 633 686 443 689 436 689 c 2
 397 689 l 1
 397 109 l 2
 397 42 434 15 476 15 c 1
 476 0 l 1
 349 0 l 1xfa80
 329 -59 l 1
 421 -38 461 -92 455 -143 c 0
 446 -212 384 -225 351 -225 c 0
 313 -225 290 -210 283 -204 c 0
 276 -198 272 -186 275 -176 c 0
 279 -161 295 -153 309 -157 c 0
 324 -162 333 -176 329 -191 c 0
 327 -198 324 -201 320 -203 c 0
 318 -205 323 -212 351 -212 c 0
 384 -212 406 -190 406 -156 c 0xfd80
 406 -134 384 -72 304 -87 c 1
 334 0 l 1
 196 0 l 1
 196 15 l 1
 238 15 275 42 275 109 c 2
 275 689 l 1
 236 689 l 2
 221 689 40 686 34 515 c 1
 19 515 l 1
 19 704 l 1xfa80
EndSplineSet
Validated: 33
EndChar

StartChar: uni0163
Encoding: 355 355 235
Width: 336
Flags: MW
HStem: -225 21G<146.5 168> -9 61<187.5 272.5> 441 21<20 70 20 20 177 292> 597 20G<177 177>
VStem: 70 107<144 147 147 441 462 600 600 600>
LayerCount: 2
Fore
SplineSet
192 -9 m 0
 183 -9 174 -9 166 -7 c 1
 144 -64 l 1
 238 -43 278 -97 272 -148 c 0
 263 -216 201 -224 168 -225 c 0
 125 -225 107 -214 100 -208 c 0
 93 -202 89 -190 92 -180 c 0
 96 -165 112 -157 126 -162 c 0
 141 -166 151 -181 146 -195 c 0
 143 -204 138 -209 132 -211 c 0
 128 -213 138 -221 168 -222 c 0
 205 -222 223 -194 223 -160 c 0
 223 -138 203 -76 123 -91 c 1
 153 -5 l 1
 101 6 70 46 70 144 c 2
 70 441 l 1
 20 441 l 1
 18 462 l 1
 70 462 l 1
 70 600 l 1
 177 617 l 1
 177 462 l 1
 295 462 l 1
 292 441 l 1
 177 441 l 1
 177 147 l 2
 177 79 204 52 258 52 c 0
 287 52 312 70 323 87 c 1
 329 84 l 1
 312 38 251 -9 192 -9 c 0
EndSplineSet
Validated: 33
EndChar

StartChar: Tcaron
Encoding: 356 356 236
Width: 676
Flags: MW
HStem: 0 21G<196 476 196 196> 684 20G<19 654 654 654> 735 21G<338 338> 902 20G<189 219 219 219 456 487 487 487>
VStem: 275 122<109 689>
LayerCount: 2
Fore
SplineSet
19 704 m 1
 654 704 l 1
 654 515 l 1
 639 515 l 1
 633 686 443 689 436 689 c 2
 397 689 l 1
 397 109 l 2
 397 42 434 15 476 15 c 1
 476 0 l 1
 196 0 l 1
 196 15 l 1
 238 15 275 42 275 109 c 2
 275 689 l 1
 236 689 l 2
 221 689 40 686 34 515 c 1
 19 515 l 1
 19 704 l 1
338 833 m 1
 456 922 l 1x30
 487 922 l 1
 338 735 l 1
 189 922 l 1
 219 922 l 1
 338 833 l 1
EndSplineSet
Validated: 1
EndChar

StartChar: tcaron
Encoding: 357 357 237
Width: 357
Flags: MW
HStem: -9 60<153.5 265.5> 442 20G<17 70 70 70 176 295 295 295> 684 20G<248 332 332 332>
VStem: 70 106<144 147 147 447 462 600 600 600> 248 84<638.5 704 638.5 704>
LayerCount: 2
Fore
SplineSet
248 704 m 1
 332 704 l 1
 332 573 212 504 212 504 c 1
 201 517 l 1
 201 517 248 555 248 704 c 1
311 90 m 1
 324 82 l 1
 307 37 254 -9 191 -9 c 0
 116 -9 70 23 70 144 c 2
 70 447 l 1
 20 447 l 1
 17 462 l 1
 70 462 l 1
 70 600 l 1
 176 617 l 1
 176 462 l 1
 295 462 l 1
 291 447 l 1
 176 447 l 1
 176 147 l 2
 176 79 202 51 251 51 c 0
 280 51 303 72 311 90 c 1
EndSplineSet
Validated: 1
EndChar

StartChar: Uring
Encoding: 366 366 238
Width: 752
Flags: MW
HStem: -9 52<339 385> 684 20G<17 301 301 301 435 716 716 716> 786 36<340 372.5 340 382> 939 36<340 372.5>
VStem: 92 122<243 601> 261 37<864 896.5 864 906.5> 414 37<864 896.5>
LayerCount: 2
Fore
SplineSet
332 -9 m 0
 200 -9 92 80 92 243 c 2
 92 602 l 2
 92 666 61 689 17 689 c 1
 17 704 l 1
 301 704 l 1
 301 689 l 1
 258 689 214 676 214 601 c 2
 214 235 l 2
 214 114 288 43 390 43 c 0
 479 43 562 111 562 238 c 2
 562 522 l 2
 562 570 562 690 435 689 c 1
 435 704 l 1
 716 704 l 1
 716 689 l 1
 575 690 577 570 577 522 c 2
 577 238 l 2
 578 41 438 -9 332 -9 c 0
298 880 m 0
 298 848 324 822 356 822 c 0
 389 822 414 848 414 880 c 0
 414 913 389 939 356 939 c 0
 324 939 298 913 298 880 c 0
261 880 m 0
 261 933 304 975 356 975 c 0
 408 975 451 933 451 880 c 0
 451 829 408 786 356 786 c 0
 304 786 261 829 261 880 c 0
EndSplineSet
Validated: 33
EndChar

StartChar: uring
Encoding: 367 367 239
Width: 543
Flags: MW
HStem: -9 61<168.5 290> 451 20G<177 177 472 472> 521 36<250 282.5 250 292> 674 36<250 282.5>
VStem: 72 105<143 146 146 362 362 393.5> 171 37<599 631.5 599 641.5> 324 37<599 631.5> 366 106<64 88 88 95 95 95 123 362 362 392.5>
LayerCount: 2
Fore
SplineSet
523 29 m 1xc9
 523 15 l 1
 392 -8 l 2
 366 -12 366 9 366 9 c 1
 366 95 l 1
 345 40 271 -9 206 -9 c 0
 131 -9 72 21 72 143 c 2
 72 362 l 2
 72 425 74 431 16 437 c 1
 16 452 l 1
 177 471 l 1
 177 146 l 2
 177 80 213 52 271 52 c 0
 309 52 347 82 366 123 c 1
 366 362 l 2
 366 423 369 433 319 437 c 1
 319 452 l 1
 472 471 l 1
 472 88 l 2
 472 40 481 34 523 29 c 1xc9
208 615 m 0
 208 583 234 557 266 557 c 0
 299 557 324 583 324 615 c 0
 324 648 299 674 266 674 c 0
 234 674 208 648 208 615 c 0
171 615 m 0
 171 668 214 710 266 710 c 0
 318 710 361 668 361 615 c 0
 361 564 318 521 266 521 c 0
 214 521 171 564 171 615 c 0
EndSplineSet
Validated: 33
EndChar

StartChar: Uhungarumlaut
Encoding: 368 368 240
Width: 752
Flags: MW
HStem: -9 52<339 385> -9 60 684 20G<17 301 301 301 435 716 716 716> 704 102 735 21G<208 208 208 237 383 383 383 412> 879 20G<378 378 553 553> 949 20G
VStem: 92 122<243 601> 92 145<243 735 602 735>
LayerCount: 2
Fore
SplineSet
332 -9 m 0x5280
 200 -9 92 80 92 243 c 2
 92 602 l 2
 92 666 61 689 17 689 c 1
 17 704 l 1
 301 704 l 1
 301 689 l 1
 258 689 214 676 214 601 c 2
 214 235 l 2
 214 114 288 43 390 43 c 0
 479 43 562 111 562 238 c 2
 562 522 l 2
 562 570 562 690 435 689 c 1
 435 704 l 1
 716 704 l 1
 716 689 l 1
 575 690 577 570 577 522 c 2
 577 238 l 2
 578 41 438 -9 332 -9 c 0x5280
383 735 m 1
 553 899 l 1x0c
 652 869 l 1
 412 735 l 1
 383 735 l 1
208 735 m 1
 378 899 l 1
 477 869 l 1
 237 735 l 1
 208 735 l 1
EndSplineSet
Validated: 33
EndChar

StartChar: uhungarumlaut
Encoding: 369 369 241
Width: 543
Flags: MW
HStem: -9 61<168.5 290> -8 72 451 20G<177 177 472 472> 685 20G<260 260 435 435>
VStem: 72 105<143 146 146 362 362 393.5> 73 124 366 106<64 88 88 95 95 95 123 362 362 392.5> 368 125
LayerCount: 2
Fore
SplineSet
523 29 m 1x55
 523 15 l 1
 392 -8 l 2
 366 -12 366 9 366 9 c 1
 366 95 l 1
 345 40 271 -9 206 -9 c 0
 131 -9 72 21 72 143 c 2
 72 362 l 2
 72 425 74 431 16 437 c 1
 16 452 l 1
 177 471 l 1
 177 146 l 2
 177 80 213 52 271 52 c 0
 309 52 347 82 366 123 c 1
 366 362 l 2
 366 423 369 433 319 437 c 1
 319 452 l 1
 472 471 l 1
 472 88 l 2
 472 40 481 34 523 29 c 1x55
265 541 m 1
 435 705 l 1xaa
 534 675 l 1
 294 541 l 1
 265 541 l 1
90 541 m 1
 260 705 l 1
 359 675 l 1
 119 541 l 1
 90 541 l 1
EndSplineSet
Validated: 33
EndChar

StartChar: Ydieresis
Encoding: 376 376 242
Width: 732
Flags: MW
HStem: 0 21G<227 506 227 227> 684 20G<9 297 297 297 439 718 718 718> 689 194<439 468 265.5 509> 778 105<265.5 294.5 439 468>
VStem: 227 105<815.5 844.5> 307 119<117 282 282 282> 401 106<815.5 844.5>
LayerCount: 2
Fore
SplineSet
401 830 m 0xda
 401 859 425 883 453 883 c 0
 483 883 507 859 507 830 c 0
 507 801 483 778 453 778 c 0
 425 778 401 801 401 830 c 0xda
439 704 m 1xaa
 718 704 l 1
 718 689 l 1xda
 683 689 609 687 497 468 c 1
 426 320 l 1
 426 117 l 2
 426 42 464 15 506 15 c 1
 506 0 l 1xa4
 227 0 l 1
 227 15 l 1
 269 15 307 42 307 117 c 2
 307 282 l 1
 160 542 115 611 115 611 c 2
 71 688 38 689 9 690 c 1xaa
 9 704 l 1
 297 704 l 1
 297 690 l 1
 272 690 206 691 274 576 c 2xd4
 417 338 l 1
 488 485 l 2
 505 520 579 689 439 689 c 1
 439 704 l 1xaa
227 830 m 0
 227 859 251 883 280 883 c 0
 309 883 332 859 332 830 c 0
 332 801 309 778 280 778 c 0
 251 778 227 801 227 830 c 0
EndSplineSet
Validated: 33
EndChar

StartChar: zacute
Encoding: 378 378 244
Width: 448
Flags: MW
HStem: 0 21G<29 384 29 29> 132 20G<378 393 393 393> 310 20G<52 67 52 52> 442 20G<57 409 409 409> 541 21G<117 117 117 146> 640 20G 684 20G<290 290>
LayerCount: 2
Fore
SplineSet
409 462 m 1
 164 15 l 1xf0
 314 15 364 87 378 152 c 1
 393 152 l 1
 384 0 l 1
 29 0 l 1
 288 447 l 1
 154 447 86 410 67 330 c 1
 52 330 l 1
 57 462 l 1
 409 462 l 1
117 541 m 1
 290 704 l 1x0a
 386 675 l 1
 146 541 l 1
 117 541 l 1
EndSplineSet
Validated: 1
EndChar

StartChar: zdotaccent
Encoding: 380 380 246
Width: 448
Flags: MW
HStem: 0 21G<29 384 29 29> 132 20G<378 393 393 393> 310 20G<52 67 52 52> 442 20G<57 409 409 409> 570 112<215.5 246.5>
VStem: 174 113<610.5 641.5>
LayerCount: 2
Fore
SplineSet
409 462 m 1
 164 15 l 1
 314 15 364 87 378 152 c 1
 393 152 l 1
 384 0 l 1
 29 0 l 1
 288 447 l 1
 154 447 86 410 67 330 c 1
 52 330 l 1
 57 462 l 1
 409 462 l 1
231 570 m 0
 200 570 174 595 174 626 c 0
 174 657 200 682 231 682 c 0
 262 682 287 657 287 626 c 0
 287 595 262 570 231 570 c 0
EndSplineSet
Validated: 1
EndChar

StartChar: zcaron
Encoding: 382 382 248
Width: 448
Flags: MW
HStem: 0 21G<29 384 29 29> 132 20G<378 393 393 393> 310 20G<52 67 52 52> 442 20G<57 409 409 409> 495 21G<233 233> 662 20G<84 114 114 114 351 382 382 382>
LayerCount: 2
Fore
SplineSet
233 593 m 1
 351 682 l 1
 382 682 l 1
 233 495 l 1
 84 682 l 1
 114 682 l 1
 233 593 l 1
409 462 m 1
 164 15 l 1xf0
 314 15 364 87 378 152 c 1
 393 152 l 1
 384 0 l 1
 29 0 l 1
 288 447 l 1
 154 447 86 410 67 330 c 1
 52 330 l 1
 57 462 l 1
 409 462 l 1
EndSplineSet
Validated: 1
EndChar

StartChar: florin
Encoding: 402 402 249
Width: 660
Flags: MW
HStem: -239 21G<105.5 136> 347 20G<210 286 210 210 397 509 397 397> 363 20G<211 286 286 286 398 515 515 515> 715 20G<448.5 541.5>
LayerCount: 2
Fore
SplineSet
618 626 m 0xb0
 605 599 573 588 547 601 c 0
 520 614 509 646 522 673 c 0
 529 686 539 695 553 699 c 0
 559 701 559 720 516 720 c 0
 451 720 418 528 418 528 c 1xb0
 398 383 l 1
 515 383 l 1
 509 367 l 1
 397 367 l 1
 360 98 l 2
 328 -144 272 -240 136 -239 c 0
 75 -239 43 -207 33 -191 c 0
 23 -175 21 -149 30 -131 c 0
 43 -104 75 -93 102 -106 c 0
 128 -118 139 -151 126 -178 c 0
 119 -191 107 -200 95 -204 c 0
 88 -206 87 -224 135 -224 c 0
 199 -224 233 -28 233 -28 c 1xd0
 286 367 l 1
 210 367 l 1
 211 383 l 1
 286 383 l 1
 310 576 382 735 515 735 c 0
 568 735 605 703 615 687 c 0
 625 670 627 644 618 626 c 0xb0
EndSplineSet
Validated: 33
EndChar

StartChar: circumflex
Encoding: 710 710 250
Width: 298
Flags: MW
HStem: 531 21G<0 30 0 0 268 268 268 298> 699 20G<149 149>
LayerCount: 2
Fore
SplineSet
149 621 m 1
 30 531 l 1
 0 531 l 1
 149 719 l 1
 298 531 l 1
 268 531 l 1
 149 621 l 1
EndSplineSet
Validated: 1
EndChar

StartChar: caron
Encoding: 711 711 251
Width: 300
Flags: MW
HStem: 533 21G<149 149> 700 20G<0 30 30 30 267 298 298 298>
LayerCount: 2
Fore
SplineSet
149 631 m 1
 267 720 l 1
 298 720 l 1
 149 533 l 1
 0 720 l 1
 30 720 l 1
 149 631 l 1
EndSplineSet
Validated: 1
EndChar

StartChar: uni02C9
Encoding: 713 713 252
Width: 305
Flags: MW
HStem: 588 66<-25 330 -25 330>
LayerCount: 2
Fore
SplineSet
330 588 m 1
 -25 588 l 1
 -25 654 l 1
 330 654 l 1
 330 588 l 1
EndSplineSet
Validated: 1
EndChar

StartChar: breve
Encoding: 728 728 253
Width: 262
Flags: MW
HStem: 560 66<84.5 180 84 180.5> 684 20G<-1 13 13 13 250 263 263 263>
LayerCount: 2
Fore
SplineSet
250 704 m 1
 263 704 l 1
 263 628 228 560 133 560 c 0
 36 560 -1 628 -1 704 c 1
 13 704 l 1
 13 667 35 626 133 626 c 0
 227 626 250 667 250 704 c 1
EndSplineSet
Validated: 1
EndChar

StartChar: dotaccent
Encoding: 729 729 254
Width: 270
Flags: MW
HStem: 589 112<121.5 152.5>
VStem: 80 113<629.5 660.5>
LayerCount: 2
Fore
SplineSet
137 589 m 0
 106 589 80 614 80 645 c 0
 80 676 106 701 137 701 c 0
 168 701 193 676 193 645 c 0
 193 614 168 589 137 589 c 0
EndSplineSet
Validated: 1
EndChar

StartChar: ring
Encoding: 730 730 255
Width: 276
Flags: MW
HStem: 543 36<124 156.5 124 166> 696 36<124 156.5>
VStem: 45 37<621 653.5 621 663.5> 198 37<621 653.5>
LayerCount: 2
Fore
SplineSet
82 637 m 0
 82 605 108 579 140 579 c 0
 173 579 198 605 198 637 c 0
 198 670 173 696 140 696 c 0
 108 696 82 670 82 637 c 0
45 637 m 0
 45 690 88 732 140 732 c 0
 192 732 235 690 235 637 c 0
 235 586 192 543 140 543 c 0
 88 543 45 586 45 637 c 0
EndSplineSet
Validated: 1
EndChar

StartChar: ogonek
Encoding: 731 731 256
Width: 274
Flags: MW
HStem: -17 20G<243 243>
LayerCount: 2
Fore
SplineSet
162 -127 m 0
 173 -173 224 -165 224 -165 c 1
 246 -163 260 -143 260 -123 c 1
 274 -123 l 1
 274 -159 266 -195 211 -202 c 0
 125 -214 108 -157 108 -157 c 1
 84 -76 151 -28 243 3 c 1
 243 -11 l 1
 184 -41 152 -90 162 -127 c 0
EndSplineSet
Validated: 33
EndChar

StartChar: tilde
Encoding: 732 732 257
Width: 431
Flags: MW
HStem: 552 78 606 78
VStem: -19 467<558 678>
LayerCount: 2
Fore
SplineSet
260 557 m 1x60
 143 600 l 2
 109 612 20 609 -7 553 c 1
 -19 558 l 1x60
 47 721 169 679 169 679 c 1
 286 636 l 2
 320 623 410 630 436 685 c 1
 448 678 l 1xa0
 381 515 260 557 260 557 c 1x60
EndSplineSet
Validated: 33
EndChar

StartChar: hungarumlaut
Encoding: 733 733 258
Width: 533
Flags: MW
HStem: 557 21G<87 87 87 116 262 262 262 291> 701 20G<257 257 432 432>
LayerCount: 2
Fore
SplineSet
262 557 m 1
 432 721 l 1
 531 691 l 1
 291 557 l 1
 262 557 l 1
87 557 m 1
 257 721 l 1
 356 691 l 1
 116 557 l 1
 87 557 l 1
EndSplineSet
Validated: 1
EndChar

StartChar: uni03A9
Encoding: 937 937 259
Width: 711
Flags: MW
HStem: 0 101<144 256 144 315 58 256 454 566 566 585.5> 137 20G<29 44 44 44 667 682 682 682> 715 20G<258.5 452>
VStem: 66 129<405.5 528.5> 516 128<405.5 528.5 405.5 571.5>
LayerCount: 2
Fore
SplineSet
667 157 m 1
 682 157 l 1
 653 0 l 1
 395 0 l 1
 415 102 516 193 516 445 c 0
 516 698 429 720 355 720 c 0
 281 720 195 698 195 445 c 0
 195 193 296 102 315 0 c 1
 58 0 l 1
 29 157 l 1
 44 157 l 1
 63 110 106 101 144 101 c 2
 256 101 l 1
 248 127 209 149 175 185 c 0
 91 274 66 361 66 450 c 0
 66 607 162 735 355 735 c 0
 549 735 644 607 644 450 c 0
 644 361 620 274 536 185 c 0
 502 149 463 127 454 101 c 1
 566 101 l 2
 605 101 648 110 667 157 c 1
EndSplineSet
Validated: 1
EndChar

StartChar: uni03BC
Encoding: 956 956 260
Width: 539
Flags: MW
HStem: 451 20G<172 172 467 467>
VStem: 67 105<-187.5 -163 -163 -2 142 362 362 393> 361 106<63 87 87 95 95 95 123 362 362 392.5>
LayerCount: 2
Fore
SplineSet
518 29 m 1
 518 14 l 1
 387 -8 l 2
 361 -13 361 9 361 9 c 1
 361 95 l 1
 339 34 250 -23 172 -2 c 1
 172 -163 l 2
 172 -212 182 -223 224 -227 c 1
 224 -242 l 1
 94 -264 l 2
 67 -269 67 -247 67 -247 c 1
 67 362 l 2
 67 424 69 431 11 437 c 1
 11 452 l 1
 172 471 l 1
 172 142 l 2
 174 79 208 52 266 52 c 0
 304 52 342 82 361 123 c 1
 361 362 l 2
 361 423 364 433 314 437 c 1
 314 452 l 1
 467 471 l 1
 467 87 l 2
 467 39 476 34 518 29 c 1
EndSplineSet
Validated: 33
EndChar

StartChar: pi
Encoding: 960 960 261
Width: 580
Flags: MW
HStem: -41 21G<69 69> -7 48<399.5 496.5> 384 78<177 179 174 429 236 357 236 236 439 439 439 446> 505 20G<550 563 563 563>
VStem: 173 57 357 82<83 108 108 384>
LayerCount: 2
Fore
SplineSet
516 61 m 1
 530 54 l 1
 523 21 496 -7 442 -7 c 0
 357 -7 357 83 357 83 c 1
 357 384 l 1
 236 384 l 1
 224 177 l 2
 218 45 69 -41 69 -41 c 1
 61 -30 l 1
 123 18 163 112 167 183 c 2
 179 384 l 1
 174 384 l 2
 136 382 65 371 22 314 c 1
 9 322 l 1
 9 322 57 459 177 462 c 2
 429 462 l 2
 506 462 545 468 550 525 c 1
 563 525 l 1
 563 439 543 384 446 384 c 2
 439 384 l 1
 439 108 l 2
 439 48 473 41 484 41 c 0
 509 41 516 61 516 61 c 1
EndSplineSet
Validated: 1
EndChar

StartChar: uni2010
Encoding: 8208 8208 262
Width: 447
Flags: MW
HStem: 216 78<64 379 64 379>
LayerCount: 2
Fore
SplineSet
64 294 m 1
 379 294 l 1
 379 216 l 1
 64 216 l 1
 64 294 l 1
EndSplineSet
Validated: 1
EndChar

StartChar: endash
Encoding: 8211 8211 263
Width: 561
Flags: MW
HStem: 222 60<0 561 0 561>
LayerCount: 2
Fore
SplineSet
0 282 m 1
 561 282 l 1
 561 222 l 1
 0 222 l 1
 0 282 l 1
EndSplineSet
Validated: 1
EndChar

StartChar: emdash
Encoding: 8212 8212 264
Width: 1055
Flags: MW
HStem: 222 60<0 1055 0 1055>
LayerCount: 2
Fore
SplineSet
0 282 m 1
 1055 282 l 1
 1055 222 l 1
 0 222 l 1
 0 282 l 1
EndSplineSet
Validated: 1
EndChar

StartChar: quoteleft
Encoding: 8216 8216 265
Width: 253
Flags: MW
HStem: 710 20G<175 175>
LayerCount: 2
Fore
SplineSet
175 730 m 1
 184 719 l 1
 122 673 118 610 134 608 c 0
 151 606 168 601 182 587 c 0
 209 560 210 516 183 488 c 0
 155 460 110 460 83 488 c 0
 40 530 67 610 97 656 c 0
 110 677 130 706 175 730 c 1
EndSplineSet
Validated: 33
EndChar

StartChar: quoteright
Encoding: 8217 8217 266
Width: 255
Flags: MW
HStem: 452 21G<86 86>
LayerCount: 2
Fore
SplineSet
86 452 m 1
 77 463 l 1
 139 509 143 572 127 574 c 0
 110 576 93 581 79 595 c 0
 52 622 51 666 78 694 c 0
 106 722 151 722 178 694 c 0
 221 652 194 572 164 526 c 0
 151 505 131 476 86 452 c 1
EndSplineSet
Validated: 33
EndChar

StartChar: quotesinglbase
Encoding: 8218 8218 267
Width: 256
Flags: MW
HStem: -128 21G<85 85>
LayerCount: 2
Fore
SplineSet
85 -128 m 1
 76 -117 l 1
 138 -71 142 -8 126 -6 c 0
 109 -4 92 1 78 15 c 0
 51 42 50 86 77 114 c 0
 105 142 150 142 177 114 c 0
 220 72 193 -8 163 -54 c 0
 150 -75 130 -104 85 -128 c 1
EndSplineSet
Validated: 33
EndChar

StartChar: quotedblleft
Encoding: 8220 8220 268
Width: 485
Flags: MW
HStem: 698 20G<168 168 393 393>
LayerCount: 2
Fore
SplineSet
393 718 m 1
 402 707 l 1
 340 661 336 598 352 596 c 0
 369 594 386 589 400 575 c 0
 427 548 428 504 401 476 c 0
 373 448 328 448 301 476 c 0
 258 518 285 598 315 644 c 0
 328 665 348 694 393 718 c 1
168 718 m 1
 177 707 l 1
 115 661 111 598 127 596 c 0
 144 594 161 589 175 575 c 0
 203 548 204 504 176 476 c 0
 149 448 103 448 76 476 c 0
 34 518 61 598 90 644 c 0
 103 665 124 694 168 718 c 1
EndSplineSet
Validated: 33
EndChar

StartChar: quotedblright
Encoding: 8221 8221 269
Width: 479
Flags: MW
HStem: 456 21G<86 86 311 311>
LayerCount: 2
Fore
SplineSet
86 456 m 1
 77 467 l 1
 139 513 143 576 127 578 c 0
 110 580 93 585 79 599 c 0
 52 626 51 670 78 698 c 0
 106 726 151 726 178 698 c 0
 221 656 194 576 164 530 c 0
 151 509 131 480 86 456 c 1
311 456 m 1
 302 467 l 1
 364 513 368 576 352 578 c 0
 335 580 318 585 304 599 c 0
 276 626 275 670 303 698 c 0
 330 726 376 726 403 698 c 0
 445 656 418 576 389 530 c 0
 376 509 355 480 311 456 c 1
EndSplineSet
Validated: 33
EndChar

StartChar: quotedblbase
Encoding: 8222 8222 270
Width: 475
Flags: MW
HStem: -128 21G<84 84 309 309>
LayerCount: 2
Fore
SplineSet
84 -128 m 1
 75 -117 l 1
 137 -71 141 -8 125 -6 c 0
 108 -4 91 1 77 15 c 0
 50 42 49 86 76 114 c 0
 104 142 149 142 176 114 c 0
 219 72 192 -8 162 -54 c 0
 149 -75 129 -104 84 -128 c 1
309 -128 m 1
 300 -117 l 1
 362 -71 366 -8 350 -6 c 0
 333 -4 316 1 302 15 c 0
 274 42 273 86 301 114 c 0
 328 142 374 142 401 114 c 0
 443 72 416 -8 387 -54 c 0
 374 -75 353 -104 309 -128 c 1
EndSplineSet
Validated: 33
EndChar

StartChar: dagger
Encoding: 8224 8224 271
Width: 407
Flags: MW
HStem: -265 21G<199 207 199 199> 606 39<190 215 190 219> 645 91<190 215>
VStem: 157 91<678.5 703> 173 59<520 545>
LayerCount: 2
Fore
SplineSet
203 645 m 0xb0
 177 645 157 666 157 691 c 0
 157 715 177 736 203 736 c 0
 227 736 248 715 248 691 c 0
 248 666 227 645 203 645 c 0xb0
115 451 m 0
 124 445 138 431 151 410 c 1
 147 406 l 1
 127 431 94 438 93 431 c 0
 92 422 90 412 82 405 c 0
 67 389 43 389 27 404 c 0
 12 420 11 444 27 459 c 0
 50 484 91 467 115 451 c 0
211 403 m 1
 211 403 209 349 252 292 c 1
 206 43 207 -250 207 -265 c 1
 199 -265 l 1
 199 -250 199 43 154 292 c 1
 196 351 194 403 194 403 c 1
 194 459 173 495 173 545 c 1
 173 545 171 606 203 606 c 0
 235 606 232 545 232 545 c 1xc8
 232 495 211 462 211 403 c 1
378 459 m 0
 394 444 394 420 378 404 c 0
 363 389 338 389 323 405 c 0
 315 412 312 422 311 431 c 0
 311 438 278 431 258 406 c 1
 253 410 l 1
 266 431 281 444 291 451 c 0
 314 467 355 484 378 459 c 0
EndSplineSet
Validated: 33
EndChar

StartChar: daggerdbl
Encoding: 8225 8225 272
Width: 508
Flags: MW
HStem: -228 108<234.5 264.5> 614 108<234 264>
VStem: 195 108<-189 -159.5 652 682> 214 44 240 44
LayerCount: 2
Fore
SplineSet
258 352 m 0xd0
 258 327 271 272 313 245 c 1
 271 216 258 164 258 140 c 0
 258 74 285 56 285 -2 c 1
 285 -2 287 -74 250 -74 c 0
 211 -74 214 -2 214 -2 c 1xd0
 214 56 240 71 240 140 c 0
 240 164 227 220 184 245 c 1
 227 275 240 327 240 352 c 0xc8
 240 417 214 435 214 494 c 1xd0
 214 494 211 566 249 566 c 0
 287 566 284 494 284 494 c 1xc8
 284 435 258 420 258 352 c 0xd0
378 412 m 0
 377 420 338 412 314 383 c 1
 309 386 l 1
 324 412 341 427 353 435 c 0
 380 455 429 474 457 445 c 0
 475 427 475 398 457 380 c 0
 438 362 409 362 391 380 c 0
 382 389 378 401 378 412 c 0
249 614 m 0
 219 614 195 637 195 667 c 0
 195 697 219 722 249 722 c 0
 279 722 303 697 303 667 c 0xe0
 303 637 279 614 249 614 c 0
250 -120 m 0
 279 -120 303 -145 303 -174 c 0
 303 -204 279 -228 250 -228 c 0
 219 -228 195 -204 195 -174 c 0
 195 -145 219 -120 250 -120 c 0
107 380 m 0
 89 362 60 362 41 380 c 0
 23 398 23 427 41 445 c 0
 69 474 118 455 145 435 c 0
 157 427 173 412 189 386 c 1
 183 383 l 1
 160 412 121 420 121 412 c 0
 120 401 116 389 107 380 c 0
391 115 m 0
 409 134 438 134 457 115 c 0
 475 96 475 67 457 49 c 0
 429 21 380 41 353 59 c 0
 341 68 324 83 309 109 c 1
 314 113 l 1
 338 83 377 76 378 83 c 0
 378 94 382 106 391 115 c 0
121 83 m 0
 121 76 160 83 183 113 c 1
 189 109 l 1
 173 83 157 68 145 59 c 0
 118 41 69 21 41 49 c 0
 23 67 23 96 41 115 c 0
 59 134 89 134 107 115 c 0
 116 106 120 94 121 83 c 0
EndSplineSet
Validated: 33
EndChar

StartChar: bullet
Encoding: 8226 8226 273
Width: 473
Flags: MW
HStem: 232 219<200.5 261.5>
VStem: 121 221<311 372>
LayerCount: 2
Fore
SplineSet
231 232 m 0
 170 232 121 281 121 341 c 0
 121 403 170 451 231 451 c 0
 292 451 342 403 342 341 c 0
 342 281 292 232 231 232 c 0
EndSplineSet
Validated: 1
EndChar

StartChar: ellipsis
Encoding: 8230 8230 274
Width: 792
Flags: MW
HStem: -8 144<138 178 373 413 609 649>
VStem: 86 144<43.5 83.5> 321 144<43.5 83.5> 557 144<43.5 83.5>
LayerCount: 2
Fore
SplineSet
701 63 m 0
 701 24 669 -8 629 -8 c 0
 589 -8 557 24 557 63 c 0
 557 104 589 136 629 136 c 0
 669 136 701 104 701 63 c 0
465 63 m 0
 465 24 433 -8 393 -8 c 0
 353 -8 321 24 321 63 c 0
 321 104 353 136 393 136 c 0
 433 136 465 104 465 63 c 0
230 63 m 0
 230 24 198 -8 158 -8 c 0
 118 -8 86 24 86 63 c 0
 86 104 118 136 158 136 c 0
 198 136 230 104 230 63 c 0
EndSplineSet
Validated: 1
EndChar

StartChar: perthousand
Encoding: 8240 8240 275
Width: 1100
Flags: MW
HStem: 0 21G<120 120 120 179> 300 20G<99 208.5> 315 20G<132 176.5> 348 20G<578.5 622.5 909 952.5> 363 20G<546 655.5 876 986> 684 20G<576 635 635 635>
VStem: 17 76<450 542> 214 76<450 542 450 565> 465 75<155 247> 661 76<155 247 155 270> 795 76<155 247> 992 75<155 247 155 270>
LayerCount: 2
Fore
SplineSet
93 496 m 0xb7f0
 93 358 110 335 154 335 c 0
 199 335 214 358 214 496 c 0
 214 634 197 664 154 664 c 0
 109 664 93 634 93 496 c 0xb7f0
290 496 m 0
 290 404 263 320 154 320 c 0xd7f0
 44 320 17 404 17 496 c 0
 17 588 44 679 154 679 c 0
 263 679 290 588 290 496 c 0
601 40 m 0
 646 40 661 63 661 201 c 0
 661 339 644 368 601 368 c 0
 556 368 540 339 540 201 c 0
 540 63 557 40 601 40 c 0
601 383 m 0xaff0
 710 383 737 293 737 201 c 0
 737 109 710 25 601 25 c 0
 491 25 465 109 465 201 c 0
 465 293 491 383 601 383 c 0xaff0
120 0 m 1
 576 704 l 1
 635 704 l 1
 179 0 l 1
 120 0 l 1
931 40 m 0
 977 40 992 63 992 201 c 0
 992 339 974 368 931 368 c 0xb7f0
 887 368 871 339 871 201 c 0
 871 63 888 40 931 40 c 0
931 383 m 0xaff0
 1041 383 1067 293 1067 201 c 0
 1067 109 1041 25 931 25 c 0
 821 25 795 109 795 201 c 0
 795 293 821 383 931 383 c 0xaff0
EndSplineSet
Validated: 1
Ligature2: "'frac' Diagonal Fractions in Latin lookup 8 subtable" zero uni2215 zero zero
Ligature2: "'frac' Diagonal Fractions in Latin lookup 8 subtable" zero fraction zero zero
Ligature2: "'frac' Diagonal Fractions in Latin lookup 8 subtable" zero slash zero zero
Ligature2: "'frac' Diagonal Fractions in Latin lookup 7 subtable" zero uni2215 zero zero
Ligature2: "'frac' Diagonal Fractions in Latin lookup 7 subtable" zero fraction zero zero
Ligature2: "'frac' Diagonal Fractions in Latin lookup 7 subtable" zero slash zero zero
Ligature2: "'frac' Diagonal Fractions in Latin lookup 6 subtable" zero uni2215 zero zero
Ligature2: "'frac' Diagonal Fractions in Latin lookup 6 subtable" zero fraction zero zero
Ligature2: "'frac' Diagonal Fractions in Latin lookup 6 subtable" zero slash zero zero
Ligature2: "'frac' Diagonal Fractions in Latin lookup 5 subtable" zero uni2215 zero zero
Ligature2: "'frac' Diagonal Fractions in Latin lookup 5 subtable" zero fraction zero zero
Ligature2: "'frac' Diagonal Fractions in Latin lookup 5 subtable" zero slash zero zero
Ligature2: "'frac' Diagonal Fractions in Latin lookup 4 subtable" zero uni2215 zero zero
Ligature2: "'frac' Diagonal Fractions in Latin lookup 4 subtable" zero fraction zero zero
Ligature2: "'frac' Diagonal Fractions in Latin lookup 4 subtable" zero slash zero zero
Ligature2: "'frac' Diagonal Fractions in Latin lookup 3 subtable" zero uni2215 zero zero
Ligature2: "'frac' Diagonal Fractions in Latin lookup 3 subtable" zero fraction zero zero
Ligature2: "'frac' Diagonal Fractions in Latin lookup 3 subtable" zero slash zero zero
Ligature2: "'frac' Diagonal Fractions in Latin lookup 2 subtable" zero uni2215 zero zero
Ligature2: "'frac' Diagonal Fractions in Latin lookup 2 subtable" zero fraction zero zero
Ligature2: "'frac' Diagonal Fractions in Latin lookup 2 subtable" zero slash zero zero
EndChar

StartChar: guilsinglleft
Encoding: 8249 8249 276
Width: 339
Flags: MW
HStem: 33 21G<281 281> 485 20G<281 281>
LayerCount: 2
Fore
SplineSet
281 505 m 1
 281 472 l 1
 145 266 l 1
 281 65 l 1
 281 33 l 1
 50 266 l 1
 281 505 l 1
EndSplineSet
Validated: 1
EndChar

StartChar: guilsinglright
Encoding: 8250 8250 277
Width: 339
Flags: MW
HStem: 33 21G<48 48> 485 20G<48 48>
LayerCount: 2
Fore
SplineSet
48 472 m 1
 48 505 l 1
 279 266 l 1
 48 33 l 1
 48 65 l 1
 183 266 l 1
 48 472 l 1
EndSplineSet
Validated: 1
EndChar

StartChar: fraction
Encoding: 8260 8260 278
Width: 343
Flags: MW
HStem: 0 21G<-146 -92 -146 -146> 714 20G<458 513 513 513>
LayerCount: 2
Fore
SplineSet
458 734 m 1
 513 734 l 1
 -92 0 l 1
 -146 0 l 1
 458 734 l 1
EndSplineSet
Validated: 1
EndChar

StartChar: Euro
Encoding: 8364 8364 279
Width: 609
Flags: MW
HStem: -9 21G<303 428> 149 20G<536 551 551 551> 283 20G<30 121 121 121 242 449 449 449> 287 132<30 123 30 123 19 123 243 439 30 243> 383 20G<19 121 19 19 242 455 242 242> 693 20G<303.5 431.5>
VStem: 120 123<287 358.5>
LayerCount: 2
Fore
SplineSet
243 419 m 1xd6
 466 419 l 1
 455 403 l 1
 242 403 l 1
 242 399 242 356 242 352 c 0
 242 348 242 306 242 303 c 2
 449 303 l 1
 439 287 l 1
 243 287 l 1xd6
 252 59 304 6 391 6 c 0
 461 6 536 55 536 169 c 1
 551 169 l 1
 551 36 l 1
 502 2 466 -9 390 -9 c 0xee
 216 -9 140 115 123 287 c 1
 19 287 l 1
 30 303 l 1
 121 303 l 1
 120 319 120 339 120 352 c 0
 120 365 120 384 121 403 c 1
 19 403 l 1
 30 419 l 1
 123 419 l 1xd6
 141 591 216 713 391 713 c 0
 472 713 505 703 551 668 c 1
 551 535 l 1
 536 535 l 1
 536 648 465 698 391 698 c 0xee
 303 698 252 644 243 419 c 1xd6
EndSplineSet
Validated: 1
EndChar

StartChar: afii61289
Encoding: 8467 8467 280
Width: 350
Flags: MW
HStem: -9 21G<188.5 250>
VStem: 85 106<336 498 271 518>
LayerCount: 2
Fore
SplineSet
191 336 m 1
 191 518 l 2
 191 778 260 702 266 694 c 0
 305 644 327 466 226 369 c 2
 191 336 l 1
331 92 m 1
 317 97 l 1
 304 57 281 44 263 41 c 0
 213 32 183 81 188 178 c 2
 190 289 l 1
 243 339 l 2
 337 426 345 630 276 706 c 0
 211 777 85 740 85 498 c 2
 85 271 l 1
 22 221 l 1
 22 177 l 1
 85 225 l 1
 85 194 l 2
 85 30 150 -9 227 -9 c 0
 273 -9 325 33 331 92 c 1
EndSplineSet
Validated: 41
EndChar

StartChar: trademark
Encoding: 8482 8482 281
Width: 699
Flags: MW
HStem: 413 21G<477 491 477 477> 684 20G<13 271 271 271 313 405 405 405 588 669 669 669>
VStem: 13 154<622 689> 117 50<470 689> 117 154<622 689 689 689> 256 115<622 652> 588 49<474 653>
LayerCount: 2
Fore
SplineSet
637 474 m 2xe6
 637 443 654 432 672 432 c 1
 672 417 l 1
 558 417 l 1
 558 432 l 1
 575 432 588 443 588 474 c 2
 588 658 l 1
 491 413 l 1
 477 413 l 1
 371 652 l 1
 371 527 l 2
 371 503 368 432 419 432 c 1
 419 417 l 1
 300 417 l 1
 300 432 l 1
 356 432 355 504 355 527 c 2
 355 672 l 1
 344 689 323 689 313 689 c 1
 313 704 l 1
 405 704 l 1
 504 488 l 1
 588 704 l 1
 669 704 l 1
 669 689 l 1
 652 689 637 680 637 653 c 2
 637 474 l 2xe6
13 704 m 1
 271 704 l 1
 271 622 l 1xca
 256 622 l 1
 256 689 185 689 182 689 c 2
 167 689 l 1
 167 470 l 2
 167 443 182 432 199 432 c 1
 199 417 l 1
 85 417 l 1
 85 432 l 1
 102 432 117 443 117 470 c 2
 117 689 l 1xd6
 101 689 l 2
 95 689 28 689 28 622 c 1
 13 622 l 1
 13 704 l 1
EndSplineSet
Validated: 33
EndChar

StartChar: Omega
Encoding: 8486 8486 282
Width: 711
Flags: MW
HStem: 0 101<144 256 144 315 58 256 454 566 566 585.5> 137 20G<29 44 44 44 667 682 682 682> 715 20G<258.5 452>
VStem: 66 129<405.5 528.5> 516 128<405.5 528.5 405.5 571.5>
LayerCount: 2
Fore
SplineSet
667 157 m 1
 682 157 l 1
 653 0 l 1
 395 0 l 1
 415 102 516 193 516 445 c 0
 516 698 429 720 355 720 c 0
 281 720 195 698 195 445 c 0
 195 193 296 102 315 0 c 1
 58 0 l 1
 29 157 l 1
 44 157 l 1
 63 110 106 101 144 101 c 2
 256 101 l 1
 248 127 209 149 175 185 c 0
 91 274 66 361 66 450 c 0
 66 607 162 735 355 735 c 0
 549 735 644 607 644 450 c 0
 644 361 620 274 536 185 c 0
 502 149 463 127 454 101 c 1
 566 101 l 2
 605 101 648 110 667 157 c 1
EndSplineSet
Validated: 1
EndChar

StartChar: estimated
Encoding: 8494 8494 283
Width: 892
Flags: MW
HStem: 0 29<392.5 501 392.5 511> 120 20G<728 769 769 769> 367 28<176 720 176 858 176 720> 706 29<392.5 499>
VStem: 32 144<265.5 367 395 468.5> 720 138<395 468.5 367 603 367 603>
LayerCount: 2
Fore
SplineSet
176 608 m 1
 176 395 l 1
 720 395 l 1
 720 603 l 1
 650 666 553 706 445 706 c 0
 340 706 245 668 176 608 c 1
445 735 m 0
 673 735 858 570 858 367 c 1
 176 367 l 1
 176 127 l 1
 245 67 340 29 445 29 c 0
 557 29 658 72 728 140 c 1
 769 140 l 1
 693 55 577 0 445 0 c 0
 217 0 32 164 32 367 c 0
 32 570 217 735 445 735 c 0
EndSplineSet
Validated: 1
EndChar

StartChar: partialdiff
Encoding: 8706 8706 284
Width: 538
Flags: MW
HStem: -9 21G<175 322.5> 416 42<250.5 256.5 172 295> 724 20G<213 339.5>
VStem: 377 118
LayerCount: 2
Fore
SplineSet
373 333 m 1
 360 381 312 416 278 416 c 0
 223 416 169 354 156 208 c 0
 140 43 174 6 243 6 c 0
 311 6 354 115 373 333 c 1
495 333 m 0
 480 136 402 -9 243 -9 c 0
 107 -9 27 70 41 225 c 0
 50 340 109 458 235 458 c 0
 278 458 358 434 377 363 c 1
 400 650 345 729 255 729 c 0
 178 729 103 644 110 569 c 1
 94 564 l 1
 63 660 l 1
 97 710 171 744 255 744 c 0
 424 744 515 585 495 333 c 0
EndSplineSet
Validated: 33
EndChar

StartChar: Delta
Encoding: 8710 8710 285
Width: 714
Flags: MW
HStem: 0 40<79 531 79 654> 718 20G<375 375>
LayerCount: 2
Fore
SplineSet
79 40 m 1
 531 40 l 1
 305 567 l 1
 79 40 l 1
375 738 m 1
 669 32 l 1
 654 0 l 1
 38 0 l 1
 32 26 l 1
 33 28 l 1
 320 720 l 1
 375 738 l 1
EndSplineSet
Validated: 1
EndChar

StartChar: product
Encoding: 8719 8719 286
Width: 781
Flags: MW
HStem: -85 21G<38 339 38 38 434 738 434 434> 684 20G<38 738 738 738>
VStem: 122 136<47 587> 518 136<47 587 587 590>
LayerCount: 2
Fore
SplineSet
654 590 m 2
 654 47 l 2
 654 -30 690 -70 738 -70 c 1
 738 -85 l 1
 434 -85 l 1
 434 -70 l 1
 482 -70 518 -30 518 47 c 2
 518 587 l 2
 518 657 483 688 434 688 c 2
 339 688 l 2
 291 688 258 657 258 587 c 2
 258 47 l 2
 258 -30 292 -70 339 -70 c 1
 339 -85 l 1
 38 -85 l 1
 38 -70 l 1
 86 -70 122 -30 122 47 c 2
 122 590 l 2
 122 659 88 689 38 689 c 1
 38 704 l 1
 738 704 l 1
 738 689 l 1
 689 689 654 659 654 590 c 2
EndSplineSet
Validated: 1
EndChar

StartChar: summation
Encoding: 8721 8721 287
Width: 668
Flags: MW
HStem: -98 21G<76 613 76 76> 135 20G<624 640 640 640> 684 20G<21 601 601 601>
LayerCount: 2
Fore
SplineSet
192 689 m 1
 399 328 l 1
 155 -83 l 1
 253 -83 l 2
 542 -83 599 68 624 155 c 1
 640 155 l 1
 613 -98 l 1
 76 -98 l 1
 272 240 l 1
 21 704 l 1
 601 704 l 1
 622 486 l 1
 605 486 l 1
 569 611 426 689 279 689 c 2
 192 689 l 1
EndSplineSet
Validated: 1
EndChar

StartChar: minus
Encoding: 8722 8722 288
Width: 626
Flags: MW
HStem: 216 78<48 581 48 581>
LayerCount: 2
Fore
SplineSet
581 216 m 1
 48 216 l 1
 48 294 l 1
 581 294 l 1
 581 216 l 1
EndSplineSet
Validated: 1
EndChar

StartChar: uni2215
Encoding: 8725 8725 289
Width: 345
Flags: MW
HStem: 0 21G<-146 -90 -146 -146> 714 20G<458 515 515 515>
LayerCount: 2
Fore
SplineSet
458 734 m 1
 515 734 l 1
 -90 0 l 1
 -146 0 l 1
 458 734 l 1
EndSplineSet
Validated: 1
EndChar

StartChar: uni2219
Encoding: 8729 8729 290
Width: 266
Flags: MW
HStem: 243 111<118 149.5>
VStem: 78 112<283 314>
LayerCount: 2
Fore
SplineSet
134 243 m 0
 102 243 78 268 78 298 c 0
 78 330 102 354 134 354 c 0
 165 354 190 330 190 298 c 0
 190 268 165 243 134 243 c 0
EndSplineSet
Validated: 1
EndChar

StartChar: radical
Encoding: 8730 8730 291
Width: 565
Flags: MW
HStem: -185 21G<344 344> 845 20G<498 498>
LayerCount: 2
Fore
SplineSet
355 36 m 1
 498 865 l 1
 542 853 l 1
 362 -178 l 1
 344 -185 l 1
 149 271 l 2
 127 323 88 353 50 338 c 1
 45 351 l 1
 193 414 l 1
 355 36 l 1
EndSplineSet
Validated: 33
EndChar

StartChar: infinity
Encoding: 8734 8734 292
Width: 783
Flags: MW
HStem: 126 78<199 221 199 232 545.5 568> 378 79<198.5 221.5 545.5 568.5>
LayerCount: 2
Fore
SplineSet
673 408 m 0
 736 344 736 239 673 175 c 0
 642 144 601 126 557 126 c 0
 513 126 473 143 441 175 c 0
 440 176 384 235 384 235 c 1
 384 235 327 176 326 175 c 0
 295 144 254 126 210 126 c 0
 166 126 124 144 93 175 c 0
 31 238 34 344 93 409 c 0
 124 440 166 457 210 457 c 0
 254 457 295 440 326 408 c 0
 327 407 384 348 384 348 c 1
 384 348 440 407 441 408 c 0
 473 440 513 457 557 457 c 0
 601 457 642 440 673 408 c 0
150 353 m 0
 134 337 125 315 125 291 c 0
 126 268 134 246 150 230 c 0
 166 214 188 204 210 204 c 0
 232 204 253 214 270 229 c 0
 272 231 329 292 329 292 c 1
 329 292 270 353 269 355 c 0
 254 370 233 378 210 378 c 0
 187 378 166 370 150 353 c 0
617 230 m 0
 633 246 642 268 642 291 c 0
 642 315 633 337 617 353 c 0
 601 370 580 378 557 378 c 0
 534 378 512 370 497 353 c 0
 496 352 439 291 439 291 c 1
 439 291 496 232 497 230 c 0
 513 214 534 204 557 204 c 0
 579 204 600 214 617 230 c 0
EndSplineSet
Validated: 33
EndChar

StartChar: integral
Encoding: 8747 8747 293
Width: 383
Flags: MW
HStem: -210 21G<93.5 172.5> 805 20G<208.5 286.5>
VStem: 147 86
LayerCount: 2
Fore
SplineSet
355 737 m 0
 346 712 319 700 294 710 c 0
 269 720 257 747 266 771 c 0
 271 784 282 793 293 796 c 0
 297 797 290 811 264 811 c 0
 256 811 198 811 216 610 c 2
 251 169 l 2
 272 -82 229 -210 116 -210 c 0
 71 -210 42 -189 32 -175 c 0
 22 -161 18 -139 24 -122 c 0
 33 -97 61 -85 85 -95 c 0
 110 -105 122 -132 113 -157 c 0
 108 -168 99 -177 88 -181 c 0
 82 -183 90 -196 117 -196 c 0
 122 -196 184 -197 165 5 c 2
 130 445 l 2
 109 697 153 825 264 825 c 0
 309 825 338 803 349 790 c 0
 359 777 362 753 355 737 c 0
EndSplineSet
Validated: 33
EndChar

StartChar: approxequal
Encoding: 8776 8776 294
Width: 518
Flags: MW
HStem: 126 78 180 78 306 79 360 78
VStem: 27 467<132 252 252 312>
LayerCount: 2
Fore
SplineSet
306 311 m 1x58
 189 354 l 2
 155 366 66 364 39 307 c 1
 27 312 l 1x98
 93 475 215 434 215 434 c 1
 332 390 l 2
 366 378 456 385 482 439 c 1
 494 433 l 1x68
 427 269 306 311 306 311 c 1x58
306 131 m 1
 189 174 l 2
 155 186 66 183 39 127 c 1
 27 132 l 1x58
 93 295 215 253 215 253 c 1
 332 210 l 2
 366 197 456 204 482 259 c 1
 494 252 l 1
 427 89 306 131 306 131 c 1
EndSplineSet
Validated: 33
EndChar

StartChar: notequal
Encoding: 8800 8800 295
Width: 527
Flags: MW
HStem: 28 21G<184 184> 154 63<46 172 46 202 273 480 46 242> 346 64<46 261 46 292 362 480 46 332> 526 20G<355 355>
LayerCount: 2
Fore
SplineSet
480 346 m 1
 332 346 l 1
 273 217 l 1
 480 217 l 1
 480 154 l 1
 242 154 l 1
 184 28 l 1
 126 54 l 1
 172 154 l 1
 46 154 l 1
 46 217 l 1
 202 217 l 1
 261 346 l 1
 46 346 l 1
 46 410 l 1
 292 410 l 1
 355 546 l 1
 412 519 l 1
 362 410 l 1
 480 410 l 1
 480 346 l 1
EndSplineSet
Validated: 1
EndChar

StartChar: lessequal
Encoding: 8804 8804 296
Width: 532
Flags: MW
HStem: -15 73<47 479 47 479> 565 20G<479 479>
LayerCount: 2
Fore
SplineSet
191 344 m 1
 479 194 l 1
 479 105 l 1
 56 322 l 1
 56 368 l 1
 479 585 l 1
 479 495 l 1
 191 344 l 1
47 58 m 1
 479 58 l 1
 479 -15 l 1
 47 -15 l 1
 47 58 l 1
EndSplineSet
Validated: 1
EndChar

StartChar: greaterequal
Encoding: 8805 8805 297
Width: 532
Flags: MW
HStem: -15 73<55 487 55 487> 565 20G<55 55>
LayerCount: 2
Fore
SplineSet
55 194 m 1
 343 344 l 1
 55 495 l 1
 55 585 l 1
 478 368 l 1
 478 322 l 1
 55 105 l 1
 55 194 l 1
55 58 m 1
 487 58 l 1
 487 -15 l 1
 55 -15 l 1
 55 58 l 1
EndSplineSet
Validated: 1
EndChar

StartChar: lozenge
Encoding: 9674 9674 298
Width: 559
Flags: MW
HStem: -79 21G<256 301 256 256> 713 20G<256 301 301 301>
LayerCount: 2
Fore
SplineSet
428 327 m 1
 278 618 l 1
 127 327 l 1
 278 36 l 1
 428 327 l 1
301 733 m 1
 509 327 l 1
 301 -79 l 1
 256 -79 l 1
 48 327 l 1
 256 733 l 1
 301 733 l 1
EndSplineSet
Validated: 1
EndChar

StartChar: zero.taboldstyle
Encoding: 63043 63043 299
Width: 564
Flags: MW
HStem: -9 21G<214.5 361.5> 451 20G<214.5 361.5>
VStem: 56 125<149 307> 394 126<148 310.5 148 324>
LayerCount: 2
Fore
SplineSet
394 229 m 0
 394 419 362 456 288 456 c 0
 212 456 181 419 181 229 c 0
 181 41 212 6 288 6 c 0
 362 6 394 41 394 229 c 0
520 229 m 0
 520 67 435 -9 288 -9 c 0
 141 -9 56 69 56 229 c 0
 56 385 141 471 288 471 c 0
 435 471 520 392 520 229 c 0
EndSplineSet
Validated: 1
Substitution2: "'pnum' Proportional Numbers in Latin lookup 50 subtable" zero.oldstyle
Substitution2: "'pnum' Proportional Numbers in Latin lookup 49 subtable" zero.oldstyle
Substitution2: "'pnum' Proportional Numbers in Latin lookup 48 subtable" zero.oldstyle
Substitution2: "'pnum' Proportional Numbers in Latin lookup 47 subtable" zero.oldstyle
Substitution2: "'pnum' Proportional Numbers in Latin lookup 46 subtable" zero.oldstyle
Substitution2: "'pnum' Proportional Numbers in Latin lookup 45 subtable" zero.oldstyle
Substitution2: "'pnum' Proportional Numbers in Latin lookup 44 subtable" zero.oldstyle
Substitution2: "'lnum' Lining Figures in Latin lookup 43 subtable" zero
Substitution2: "'lnum' Lining Figures in Latin lookup 42 subtable" zero
Substitution2: "'lnum' Lining Figures in Latin lookup 41 subtable" zero
Substitution2: "'lnum' Lining Figures in Latin lookup 40 subtable" zero
Substitution2: "'lnum' Lining Figures in Latin lookup 39 subtable" zero
Substitution2: "'lnum' Lining Figures in Latin lookup 38 subtable" zero
Substitution2: "'lnum' Lining Figures in Latin lookup 37 subtable" zero
AlternateSubs2: "'aalt' Access All Alternates in Latin lookup 1 subtable" zero zero.oldstyle
EndChar

